<svg width="34" height="105" viewBox="0 0 34 105" fill="none" xmlns="http://www.w3.org/2000/svg">
<g transform="translate(0,0)">
  <path d="M9.90793 24.8702C9.58549 24.8702 9.2688 24.709 8.95787 24.3866C8.64695 24.0641 8.49148 23.7417 8.49148 23.4193V20.034H25.7653V8.28884H29.22C29.5425 8.28884 29.8534 8.45004 30.1528 8.77246C30.4522 9.09487 30.6019 9.4288 30.6019 9.77425V30.3628L25.1089 24.8702H9.90793ZM2.96387 23.4884V4.21259C2.96387 3.89017 3.11357 3.56776 3.41299 3.24534C3.7124 2.92293 4.02333 2.76172 4.34577 2.76172H22.276C22.6214 2.76172 22.9439 2.91717 23.2433 3.22807C23.5427 3.53897 23.6924 3.86714 23.6924 4.21259V16.5104C23.6924 16.8328 23.5427 17.1553 23.2433 17.4777C22.9439 17.8001 22.6214 17.9613 22.276 17.9613H8.49148L2.96387 23.4884ZM21.6196 15.8886V4.83439H5.03672V18.6522L7.59324 15.8886H21.6196Z" fill="#999999"/>
</g>
<g transform="translate(0,36)">
  <path d="M9.90793 24.8702C9.58549 24.8702 9.2688 24.709 8.95787 24.3866C8.64695 24.0641 8.49148 23.7417 8.49148 23.4193V20.034H25.7653V8.28884H29.22C29.5425 8.28884 29.8534 8.45004 30.1528 8.77246C30.4522 9.09487 30.6019 9.4288 30.6019 9.77425V30.3628L25.1089 24.8702H9.90793ZM2.96387 23.4884V4.21259C2.96387 3.89017 3.11357 3.56776 3.41299 3.24534C3.7124 2.92293 4.02333 2.76172 4.34577 2.76172H22.276C22.6214 2.76172 22.9439 2.91717 23.2433 3.22807C23.5427 3.53897 23.6924 3.86714 23.6924 4.21259V16.5104C23.6924 16.8328 23.5427 17.1553 23.2433 17.4777C22.9439 17.8001 22.6214 17.9613 22.276 17.9613H8.49148L2.96387 23.4884ZM21.6196 15.8886V4.83439H5.03672V18.6522L7.59324 15.8886H21.6196Z" fill="#A1D103"/>
</g>
<g transform="translate(0,70)">
  <path d="M9.90793 24.8702C9.58549 24.8702 9.2688 24.709 8.95787 24.3866C8.64695 24.0641 8.49148 23.7417 8.49148 23.4193V20.034H25.7653V8.28884H29.22C29.5425 8.28884 29.8534 8.45004 30.1528 8.77246C30.4522 9.09487 30.6019 9.4288 30.6019 9.77425V30.3628L25.1089 24.8702H9.90793ZM2.96387 23.4884V4.21259C2.96387 3.89017 3.11357 3.56776 3.41299 3.24534C3.7124 2.92293 4.02333 2.76172 4.34577 2.76172H22.276C22.6214 2.76172 22.9439 2.91717 23.2433 3.22807C23.5427 3.53897 23.6924 3.86714 23.6924 4.21259V16.5104C23.6924 16.8328 23.5427 17.1553 23.2433 17.4777C22.9439 17.8001 22.6214 17.9613 22.276 17.9613H8.49148L2.96387 23.4884ZM21.6196 15.8886V4.83439H5.03672V18.6522L7.59324 15.8886H21.6196Z" fill="#a6daef"/>
</g>
</svg>
