<svg width="30" height="90" viewBox="0 0 30 90" fill="none" xmlns="http://www.w3.org/2000/svg">
  <!-- First SVG -->
  <g class="first-svg" transform="translate(0,0)">
    <path d="M25 2.5H5C4.33696 2.5 3.70107 2.76339 3.23223 3.23223C2.76339 3.70107 2.5 4.33696 2.5 5V21.25C2.5 21.913 2.76339 22.5489 3.23223 23.0178C3.70107 23.4866 4.33696 23.75 5 23.75H10.7375L14.1125 27.1375C14.2287 27.2547 14.367 27.3477 14.5193 27.4111C14.6716 27.4746 14.835 27.5072 15 27.5072C15.165 27.5072 15.3284 27.4746 15.4807 27.4111C15.633 27.3477 15.7713 27.2547 15.8875 27.1375L19.2625 23.75H25C25.663 23.75 26.2989 23.4866 26.7678 23.0178C27.2366 22.5489 27.5 21.913 27.5 21.25V5C27.5 4.33696 27.2366 3.70107 26.7678 3.23223C26.2989 2.76339 25.663 2.5 25 2.5Z" fill="#999999"/>
    <path d="M11.875 13.75C11.875 14.1208 11.765 14.4834 11.559 14.7917C11.353 15.1 11.0601 15.3404 10.7175 15.4823C10.3749 15.6242 9.99792 15.6613 9.63421 15.589C9.27049 15.5166 8.9364 15.338 8.67418 15.0758C8.41195 14.8136 8.23338 14.4795 8.16103 14.1158C8.08868 13.7521 8.12581 13.3751 8.26773 13.0325C8.40964 12.6899 8.64996 12.397 8.95831 12.191C9.26665 11.985 9.62916 11.875 10 11.875C10.4973 11.875 10.9742 12.0725 11.3258 12.4242C11.6775 12.7758 11.875 13.2527 11.875 13.75ZM15 11.875C14.6292 11.875 14.2666 11.985 13.9583 12.191C13.65 12.397 13.4096 12.6899 13.2677 13.0325C13.1258 13.3751 13.0887 13.7521 13.161 14.1158C13.2334 14.4795 13.412 14.8136 13.6742 15.0758C13.9364 15.338 14.2705 15.5166 14.6342 15.589C14.9979 15.6613 15.3749 15.6242 15.7175 15.4823C16.0601 15.3404 16.353 15.1 16.559 14.7917C16.765 14.4834 16.875 14.1208 16.875 13.75C16.875 13.2527 16.6775 12.7758 16.3258 12.4242C15.9742 12.0725 15.4973 11.875 15 11.875ZM20 11.875C19.6292 11.875 19.2666 11.985 18.9583 12.191C18.65 12.397 18.4096 12.6899 18.2677 13.0325C18.1258 13.3751 18.0887 13.7521 18.161 14.1158C18.2334 14.4795 18.412 14.8136 18.6742 15.0758C18.9364 15.338 19.2705 15.5166 19.6342 15.589C19.9979 15.6613 20.3749 15.6242 20.7175 15.4823C21.0601 15.3404 21.353 15.1 21.559 14.7917C21.765 14.4834 21.875 14.1208 21.875 13.75C21.875 13.2527 21.6775 12.7758 21.3258 12.4242C20.9742 12.0725 20.4973 11.875 20 11.875Z" fill="#282C34"/>
  </g>

  <!-- Second SVG -->
  <g class="second-svg"  transform="translate(0,30)">
    <path d="M25 2.5H5C4.33696 2.5 3.70107 2.76339 3.23223 3.23223C2.76339 3.70107 2.5 4.33696 2.5 5V21.25C2.5 21.913 2.76339 22.5489 3.23223 23.0178C3.70107 23.4866 4.33696 23.75 5 23.75H10.7375L14.1125 27.1375C14.2287 27.2547 14.367 27.3477 14.5193 27.4111C14.6716 27.4746 14.835 27.5072 15 27.5072C15.165 27.5072 15.3284 27.4746 15.4807 27.4111C15.633 27.3477 15.7713 27.2547 15.8875 27.1375L19.2625 23.75H25C25.663 23.75 26.2989 23.4866 26.7678 23.0178C27.2366 22.5489 27.5 21.913 27.5 21.25V5C27.5 4.33696 27.2366 3.70107 26.7678 3.23223C26.2989 2.76339 25.663 2.5 25 2.5Z" fill="#8A85FF"/>
    <path d="M11.875 13.75C11.875 14.1208 11.765 14.4834 11.559 14.7917C11.353 15.1 11.0601 15.3404 10.7175 15.4823C10.3749 15.6242 9.99792 15.6613 9.63421 15.589C9.27049 15.5166 8.9364 15.338 8.67418 15.0758C8.41195 14.8136 8.23338 14.4795 8.16103 14.1158C8.08868 13.7521 8.12581 13.3751 8.26773 13.0325C8.40964 12.6899 8.64996 12.397 8.95831 12.191C9.26665 11.985 9.62916 11.875 10 11.875C10.4973 11.875 10.9742 12.0725 11.3258 12.4242C11.6775 12.7758 11.875 13.2527 11.875 13.75ZM15 11.875C14.6292 11.875 14.2666 11.985 13.9583 12.191C13.65 12.397 13.4096 12.6899 13.2677 13.0325C13.1258 13.3751 13.0887 13.7521 13.161 14.1158C13.2334 14.4795 13.412 14.8136 13.6742 15.0758C13.9364 15.338 14.2705 15.5166 14.6342 15.589C14.9979 15.6613 15.3749 15.6242 15.7175 15.4823C16.0601 15.3404 16.353 15.1 16.559 14.7917C16.765 14.4834 16.875 14.1208 16.875 13.75C16.875 13.2527 16.6775 12.7758 16.3258 12.4242C15.9742 12.0725 15.4973 11.875 15 11.875ZM20 11.875C19.6292 11.875 19.2666 11.985 18.9583 12.191C18.65 12.397 18.4096 12.6899 18.2677 13.0325C18.1258 13.3751 18.0887 13.7521 18.161 14.1158C18.2334 14.4795 18.412 14.8136 18.6742 15.0758C18.9364 15.338 19.2705 15.5166 19.6342 15.589C19.9979 15.6613 20.3749 15.6242 20.7175 15.4823C21.0601 15.3404 21.353 15.1 21.559 14.7917C21.765 14.4834 21.875 14.1208 21.875 13.75C21.875 13.2527 21.6775 12.7758 21.3258 12.4242C20.9742 12.0725 20.4973 11.875 20 11.875Z" fill="#373566"/>
  </g>

  <g class="second-svg"  transform="translate(0,60)">
    <path d="M25 2.5H5C4.33696 2.5 3.70107 2.76339 3.23223 3.23223C2.76339 3.70107 2.5 4.33696 2.5 5V21.25C2.5 21.913 2.76339 22.5489 3.23223 23.0178C3.70107 23.4866 4.33696 23.75 5 23.75H10.7375L14.1125 27.1375C14.2287 27.2547 14.367 27.3477 14.5193 27.4111C14.6716 27.4746 14.835 27.5072 15 27.5072C15.165 27.5072 15.3284 27.4746 15.4807 27.4111C15.633 27.3477 15.7713 27.2547 15.8875 27.1375L19.2625 23.75H25C25.663 23.75 26.2989 23.4866 26.7678 23.0178C27.2366 22.5489 27.5 21.913 27.5 21.25V5C27.5 4.33696 27.2366 3.70107 26.7678 3.23223C26.2989 2.76339 25.663 2.5 25 2.5Z" fill="#0068b4"/>
    <path d="M11.875 13.75C11.875 14.1208 11.765 14.4834 11.559 14.7917C11.353 15.1 11.0601 15.3404 10.7175 15.4823C10.3749 15.6242 9.99792 15.6613 9.63421 15.589C9.27049 15.5166 8.9364 15.338 8.67418 15.0758C8.41195 14.8136 8.23338 14.4795 8.16103 14.1158C8.08868 13.7521 8.12581 13.3751 8.26773 13.0325C8.40964 12.6899 8.64996 12.397 8.95831 12.191C9.26665 11.985 9.62916 11.875 10 11.875C10.4973 11.875 10.9742 12.0725 11.3258 12.4242C11.6775 12.7758 11.875 13.2527 11.875 13.75ZM15 11.875C14.6292 11.875 14.2666 11.985 13.9583 12.191C13.65 12.397 13.4096 12.6899 13.2677 13.0325C13.1258 13.3751 13.0887 13.7521 13.161 14.1158C13.2334 14.4795 13.412 14.8136 13.6742 15.0758C13.9364 15.338 14.2705 15.5166 14.6342 15.589C14.9979 15.6613 15.3749 15.6242 15.7175 15.4823C16.0601 15.3404 16.353 15.1 16.559 14.7917C16.765 14.4834 16.875 14.1208 16.875 13.75C16.875 13.2527 16.6775 12.7758 16.3258 12.4242C15.9742 12.0725 15.4973 11.875 15 11.875ZM20 11.875C19.6292 11.875 19.2666 11.985 18.9583 12.191C18.65 12.397 18.4096 12.6899 18.2677 13.0325C18.1258 13.3751 18.0887 13.7521 18.161 14.1158C18.2334 14.4795 18.412 14.8136 18.6742 15.0758C18.9364 15.338 19.2705 15.5166 19.6342 15.589C19.9979 15.6613 20.3749 15.6242 20.7175 15.4823C21.0601 15.3404 21.353 15.1 21.559 14.7917C21.765 14.4834 21.875 14.1208 21.875 13.75C21.875 13.2527 21.6775 12.7758 21.3258 12.4242C20.9742 12.0725 20.4973 11.875 20 11.875Z" fill="#004499"/>
  </g>
</svg>