<svg width="34" height="105" viewBox="0 0 34 105" fill="none" xmlns="http://www.w3.org/2000/svg">
<g transform="translate(0,0)">
  <path d="M16.6179 30.3973C14.6602 30.3973 12.8407 30.0461 11.1593 29.3437C9.47803 28.6413 8.01552 27.6683 6.7718 26.4247C5.52809 25.1811 4.555 23.7187 3.85253 22.0375C3.15006 20.3564 2.79883 18.537 2.79883 16.5795C2.79883 14.645 3.15006 12.8372 3.85253 11.156C4.555 9.47486 5.52809 8.01248 6.7718 6.76888C8.01552 5.52528 9.47803 4.54652 11.1593 3.8326C12.8407 3.11868 14.6602 2.76172 16.6179 2.76172C18.3452 2.76172 19.9575 3.03807 21.4545 3.59079C22.9516 4.1435 24.299 4.90348 25.4966 5.87072L24.0111 7.35613C22.9977 6.5501 21.8691 5.9283 20.6254 5.49073C19.3817 5.05317 18.0458 4.83439 16.6179 4.83439C13.2783 4.83439 10.4857 5.95708 8.24007 8.20247C5.99448 10.4479 4.87168 13.2402 4.87168 16.5795C4.87168 19.9188 5.99448 22.7112 8.24007 24.9565C10.4857 27.2019 13.2783 28.3246 16.6179 28.3246C19.9575 28.3246 22.7501 27.2019 24.9957 24.9565C27.2413 22.7112 28.364 19.9188 28.364 16.5795C28.364 15.8886 28.3122 15.215 28.2086 14.5587C28.1049 13.9023 27.9495 13.2632 27.7422 12.6414L29.3314 11.0524C29.6999 11.9045 29.9763 12.7911 30.1605 13.7123C30.3448 14.6335 30.4369 15.5892 30.4369 16.5795C30.4369 18.537 30.0799 20.3564 29.3659 22.0375C28.6519 23.7187 27.6731 25.1811 26.4294 26.4247C25.1857 27.6683 23.7232 28.6413 22.0418 29.3437C20.3605 30.0461 18.5525 30.3973 16.6179 30.3973ZM14.5796 22.8666L8.87921 17.1322L10.4338 15.5777L14.5796 19.7231L28.8823 5.42164L30.4715 6.97614L14.5796 22.8666Z" fill="#999999"/>
</g>
<g transform="translate(0,36)">
  <path d="M16.6179 30.3973C14.6602 30.3973 12.8407 30.0461 11.1593 29.3437C9.47803 28.6413 8.01552 27.6683 6.7718 26.4247C5.52809 25.1811 4.555 23.7187 3.85253 22.0375C3.15006 20.3564 2.79883 18.537 2.79883 16.5795C2.79883 14.645 3.15006 12.8372 3.85253 11.156C4.555 9.47486 5.52809 8.01248 6.7718 6.76888C8.01552 5.52528 9.47803 4.54652 11.1593 3.8326C12.8407 3.11868 14.6602 2.76172 16.6179 2.76172C18.3452 2.76172 19.9575 3.03807 21.4545 3.59079C22.9516 4.1435 24.299 4.90348 25.4966 5.87072L24.0111 7.35613C22.9977 6.5501 21.8691 5.9283 20.6254 5.49073C19.3817 5.05317 18.0458 4.83439 16.6179 4.83439C13.2783 4.83439 10.4857 5.95708 8.24007 8.20247C5.99448 10.4479 4.87168 13.2402 4.87168 16.5795C4.87168 19.9188 5.99448 22.7112 8.24007 24.9565C10.4857 27.2019 13.2783 28.3246 16.6179 28.3246C19.9575 28.3246 22.7501 27.2019 24.9957 24.9565C27.2413 22.7112 28.364 19.9188 28.364 16.5795C28.364 15.8886 28.3122 15.215 28.2086 14.5587C28.1049 13.9023 27.9495 13.2632 27.7422 12.6414L29.3314 11.0524C29.6999 11.9045 29.9763 12.7911 30.1605 13.7123C30.3448 14.6335 30.4369 15.5892 30.4369 16.5795C30.4369 18.537 30.0799 20.3564 29.3659 22.0375C28.6519 23.7187 27.6731 25.1811 26.4294 26.4247C25.1857 27.6683 23.7232 28.6413 22.0418 29.3437C20.3605 30.0461 18.5525 30.3973 16.6179 30.3973ZM14.5796 22.8666L8.87921 17.1322L10.4338 15.5777L14.5796 19.7231L28.8823 5.42164L30.4715 6.97614L14.5796 22.8666Z" fill="#A1D103"/>
</g>
<g transform="translate(0,70)">
  <path d="M16.6179 30.3973C14.6602 30.3973 12.8407 30.0461 11.1593 29.3437C9.47803 28.6413 8.01552 27.6683 6.7718 26.4247C5.52809 25.1811 4.555 23.7187 3.85253 22.0375C3.15006 20.3564 2.79883 18.537 2.79883 16.5795C2.79883 14.645 3.15006 12.8372 3.85253 11.156C4.555 9.47486 5.52809 8.01248 6.7718 6.76888C8.01552 5.52528 9.47803 4.54652 11.1593 3.8326C12.8407 3.11868 14.6602 2.76172 16.6179 2.76172C18.3452 2.76172 19.9575 3.03807 21.4545 3.59079C22.9516 4.1435 24.299 4.90348 25.4966 5.87072L24.0111 7.35613C22.9977 6.5501 21.8691 5.9283 20.6254 5.49073C19.3817 5.05317 18.0458 4.83439 16.6179 4.83439C13.2783 4.83439 10.4857 5.95708 8.24007 8.20247C5.99448 10.4479 4.87168 13.2402 4.87168 16.5795C4.87168 19.9188 5.99448 22.7112 8.24007 24.9565C10.4857 27.2019 13.2783 28.3246 16.6179 28.3246C19.9575 28.3246 22.7501 27.2019 24.9957 24.9565C27.2413 22.7112 28.364 19.9188 28.364 16.5795C28.364 15.8886 28.3122 15.215 28.2086 14.5587C28.1049 13.9023 27.9495 13.2632 27.7422 12.6414L29.3314 11.0524C29.6999 11.9045 29.9763 12.7911 30.1605 13.7123C30.3448 14.6335 30.4369 15.5892 30.4369 16.5795C30.4369 18.537 30.0799 20.3564 29.3659 22.0375C28.6519 23.7187 27.6731 25.1811 26.4294 26.4247C25.1857 27.6683 23.7232 28.6413 22.0418 29.3437C20.3605 30.0461 18.5525 30.3973 16.6179 30.3973ZM14.5796 22.8666L8.87921 17.1322L10.4338 15.5777L14.5796 19.7231L28.8823 5.42164L30.4715 6.97614L14.5796 22.8666Z" fill="#a6daef"/>
</g>
</svg>
