<svg width="20" height="120" viewBox="0 0 20 120" fill="none" xmlns="http://www.w3.org/2000/svg">
<g transform="translate(0,0)">
<path d="M17.5 10C17.5 5.85938 14.1406 2.5 10 2.5C5.85938 2.5 2.5 5.85938 2.5 10C2.5 14.1406 5.85938 17.5 10 17.5C14.1406 17.5 17.5 14.1406 17.5 10Z" stroke="#999999" stroke-width="1.25" stroke-miterlimit="10"/>
<path d="M14.0627 3.69512V11.5627M17.31 8.31543L11.5627 14.0627M16.3053 14.0627H8.4377M11.685 17.31L6.05996 11.685M5.9377 16.2502V8.4377M2.69043 11.685L8.31543 6.05996M3.69512 5.9377H11.2502M8.31543 2.69043L14.0627 8.4377" stroke="#999999" stroke-width="1.25" stroke-linecap="round" stroke-linejoin="round"/>
</g>
<g transform="translate(0,30)">
<path d="M17.5 10C17.5 5.85938 14.1406 2.5 10 2.5C5.85938 2.5 2.5 5.85938 2.5 10C2.5 14.1406 5.85938 17.5 10 17.5C14.1406 17.5 17.5 14.1406 17.5 10Z" stroke="#A1D103" stroke-width="1.25" stroke-miterlimit="10"/>
<path d="M14.0627 3.69512V11.5627M17.31 8.31543L11.5627 14.0627M16.3053 14.0627H8.4377M11.685 17.31L6.05996 11.685M5.9377 16.2502V8.4377M2.69043 11.685L8.31543 6.05996M3.69512 5.9377H11.2502M8.31543 2.69043L14.0627 8.4377" stroke="#A1D103" stroke-width="1.25" stroke-linecap="round" stroke-linejoin="round"/>
</g>
<g transform="translate(0,60)">
<path d="M17.5 10C17.5 5.85938 14.1406 2.5 10 2.5C5.85938 2.5 2.5 5.85938 2.5 10C2.5 14.1406 5.85938 17.5 10 17.5C14.1406 17.5 17.5 14.1406 17.5 10Z" stroke="#8A85FF" stroke-width="1.25" stroke-miterlimit="10"/>
<path d="M14.0627 3.69512V11.5627M17.31 8.31543L11.5627 14.0627M16.3053 14.0627H8.4377M11.685 17.31L6.05996 11.685M5.9377 16.2502V8.4377M2.69043 11.685L8.31543 6.05996M3.69512 5.9377H11.2502M8.31543 2.69043L14.0627 8.4377" stroke="#8A85FF" stroke-width="1.25" stroke-linecap="round" stroke-linejoin="round"/>
</g>
<g transform="translate(0,90)">
<path d="M17.5 10C17.5 5.85938 14.1406 2.5 10 2.5C5.85938 2.5 2.5 5.85938 2.5 10C2.5 14.1406 5.85938 17.5 10 17.5C14.1406 17.5 17.5 14.1406 17.5 10Z" stroke="#a6daef" stroke-width="1.25" stroke-miterlimit="10"/>
<path d="M14.0627 3.69512V11.5627M17.31 8.31543L11.5627 14.0627M16.3053 14.0627H8.4377M11.685 17.31L6.05996 11.685M5.9377 16.2502V8.4377M2.69043 11.685L8.31543 6.05996M3.69512 5.9377H11.2502M8.31543 2.69043L14.0627 8.4377" stroke="#a6daef" stroke-width="1.25" stroke-linecap="round" stroke-linejoin="round"/>
</g>
</svg>
