<svg width="30" height="90" viewBox="0 0 30 90" fill="none" xmlns="http://www.w3.org/2000/svg">
  <!-- First SVG -->
  <g class="first-svg" transform="translate(0,0)">
    <path d="M22.5 2.5H7.5C6.11929 2.5 5 3.61929 5 5V25C5 26.3807 6.11929 27.5 7.5 27.5H22.5C23.8807 27.5 25 26.3807 25 25V5C25 3.61929 23.8807 2.5 22.5 2.5Z" fill="#999999"/>
    <path d="M18.75 16.25C18.75 16.5815 18.6183 16.8995 18.3839 17.1339C18.1495 17.3683 17.8315 17.5 17.5 17.5H16.25V18.75C16.25 19.0815 16.1183 19.3995 15.8839 19.6339C15.6495 19.8683 15.3315 20 15 20C14.6685 20 14.3505 19.8683 14.1161 19.6339C13.8817 19.3995 13.75 19.0815 13.75 18.75V17.5H12.5C12.1685 17.5 11.8505 17.3683 11.6161 17.1339C11.3817 16.8995 11.25 16.5815 11.25 16.25C11.25 15.9185 11.3817 15.6005 11.6161 15.3661C11.8505 15.1317 12.1685 15 12.5 15H13.75V13.75C13.75 13.4185 13.8817 13.1005 14.1161 12.8661C14.3505 12.6317 14.6685 12.5 15 12.5C15.3315 12.5 15.6495 12.6317 15.8839 12.8661C16.1183 13.1005 16.25 13.4185 16.25 13.75V15H17.5C17.8315 15 18.1495 15.1317 18.3839 15.3661C18.6183 15.6005 18.75 15.9185 18.75 16.25ZM20 2.5H10V3.75C10 4.41304 10.2634 5.04893 10.7322 5.51777C11.2011 5.98661 11.837 6.25 12.5 6.25H17.5C18.163 6.25 18.7989 5.98661 19.2678 5.51777C19.7366 5.04893 20 4.41304 20 3.75V2.5Z" fill="#282C34"/>
  </g>

  <!-- Second SVG -->
  <g class="second-svg"  transform="translate(0,30)">
    <path d="M22.5 2.5H7.5C6.11929 2.5 5 3.61929 5 5V25C5 26.3807 6.11929 27.5 7.5 27.5H22.5C23.8807 27.5 25 26.3807 25 25V5C25 3.61929 23.8807 2.5 22.5 2.5Z" fill="#8A85FF"/>
    <path d="M18.75 16.25C18.75 16.5815 18.6183 16.8995 18.3839 17.1339C18.1495 17.3683 17.8315 17.5 17.5 17.5H16.25V18.75C16.25 19.0815 16.1183 19.3995 15.8839 19.6339C15.6495 19.8683 15.3315 20 15 20C14.6685 20 14.3505 19.8683 14.1161 19.6339C13.8817 19.3995 13.75 19.0815 13.75 18.75V17.5H12.5C12.1685 17.5 11.8505 17.3683 11.6161 17.1339C11.3817 16.8995 11.25 16.5815 11.25 16.25C11.25 15.9185 11.3817 15.6005 11.6161 15.3661C11.8505 15.1317 12.1685 15 12.5 15H13.75V13.75C13.75 13.4185 13.8817 13.1005 14.1161 12.8661C14.3505 12.6317 14.6685 12.5 15 12.5C15.3315 12.5 15.6495 12.6317 15.8839 12.8661C16.1183 13.1005 16.25 13.4185 16.25 13.75V15H17.5C17.8315 15 18.1495 15.1317 18.3839 15.3661C18.6183 15.6005 18.75 15.9185 18.75 16.25ZM20 2.5H10V3.75C10 4.41304 10.2634 5.04893 10.7322 5.51777C11.2011 5.98661 11.837 6.25 12.5 6.25H17.5C18.163 6.25 18.7989 5.98661 19.2678 5.51777C19.7366 5.04893 20 4.41304 20 3.75V2.5Z" fill="#373566"/>
  </g>

  <g class="second-svg"  transform="translate(0,60)">
    <path d="M22.5 2.5H7.5C6.11929 2.5 5 3.61929 5 5V25C5 26.3807 6.11929 27.5 7.5 27.5H22.5C23.8807 27.5 25 26.3807 25 25V5C25 3.61929 23.8807 2.5 22.5 2.5Z" fill="#0068b4"/>
    <path d="M18.75 16.25C18.75 16.5815 18.6183 16.8995 18.3839 17.1339C18.1495 17.3683 17.8315 17.5 17.5 17.5H16.25V18.75C16.25 19.0815 16.1183 19.3995 15.8839 19.6339C15.6495 19.8683 15.3315 20 15 20C14.6685 20 14.3505 19.8683 14.1161 19.6339C13.8817 19.3995 13.75 19.0815 13.75 18.75V17.5H12.5C12.1685 17.5 11.8505 17.3683 11.6161 17.1339C11.3817 16.8995 11.25 16.5815 11.25 16.25C11.25 15.9185 11.3817 15.6005 11.6161 15.3661C11.8505 15.1317 12.1685 15 12.5 15H13.75V13.75C13.75 13.4185 13.8817 13.1005 14.1161 12.8661C14.3505 12.6317 14.6685 12.5 15 12.5C15.3315 12.5 15.6495 12.6317 15.8839 12.8661C16.1183 13.1005 16.25 13.4185 16.25 13.75V15H17.5C17.8315 15 18.1495 15.1317 18.3839 15.3661C18.6183 15.6005 18.75 15.9185 18.75 16.25ZM20 2.5H10V3.75C10 4.41304 10.2634 5.04893 10.7322 5.51777C11.2011 5.98661 11.837 6.25 12.5 6.25H17.5C18.163 6.25 18.7989 5.98661 19.2678 5.51777C19.7366 5.04893 20 4.41304 20 3.75V2.5Z" fill="#004499"/>
  </g>
</svg>
