<svg width="28" height="28" viewBox="0 0 28 28" fill="none" xmlns="http://www.w3.org/2000/svg">
<path fill-rule="evenodd" clip-rule="evenodd" d="M16 1C16 0.447715 16.4477 0 17 0H27C27.5523 0 28 0.447715 28 1V9C28 9.55228 27.5523 10 27 10H22L20 12H19V10H17C16.4477 10 16 9.55229 16 9V1ZM13 9V4.08296C12.6748 4.0284 12.3407 4 12 4C8.68629 4 6 6.68629 6 10C6 13.3137 8.68629 16 12 16C14.087 16 15.9251 14.9345 17 13.3178V13C14.7909 13 13 11.2091 13 9ZM0 24.6667C0 20.9848 3.58172 18 8 18L12 24L16 18C20.4183 18 24 20.9848 24 24.6667V28H0V24.6667Z" fill="#999999"/>
</svg>
