<svg width="30" height="90" viewBox="0 0 30 90" fill="none" xmlns="http://www.w3.org/2000/svg">
  <!-- First SVG -->
  <g class="first-svg" transform="translate(0,0)">
    <path fill-rule="evenodd" clip-rule="evenodd" d="M29 17C29 20.9174 27.3911 24.459 24.798 27H22V24H8V27H5.20203C2.60893 24.459 1 20.9174 1 17C1 9.26801 7.26801 3 15 3C22.732 3 29 9.26801 29 17ZM14.8576 18.995C14.6255 18.9787 14.4044 18.9228 14.2009 18.834C14.0381 18.7631 13.8828 18.6695 13.7398 18.5531C13.607 18.4452 13.4882 18.3206 13.3868 18.1824C13.3454 18.126 13.3073 18.068 13.2725 18.0085C13.0993 17.7124 13 17.3678 13 17C13 16.3592 13.3014 15.7888 13.7701 15.4227C15.317 14.1338 24 8.0003 24 8.0003C24 8.0003 17.8366 16.7257 16.5682 18.2414C16.5268 18.2936 16.4829 18.3437 16.4365 18.3915C16.4287 18.3998 16.4213 18.4074 16.4144 18.4143C16.1744 18.6543 15.8885 18.8206 15.585 18.9131C15.4635 18.9502 15.3372 18.976 15.2072 18.9894C15.091 19.0014 14.974 19.0033 14.8576 18.995Z" fill="#999999"/>
  </g>

  <!-- Second SVG -->
  <g class="second-svg"  transform="translate(0,30)">
    <path fill-rule="evenodd" clip-rule="evenodd" d="M29 17C29 20.9174 27.3911 24.459 24.798 27H22V24H8V27H5.20203C2.60893 24.459 1 20.9174 1 17C1 9.26801 7.26801 3 15 3C22.732 3 29 9.26801 29 17ZM14.8576 18.995C14.6255 18.9787 14.4044 18.9228 14.2009 18.834C14.0381 18.7631 13.8828 18.6695 13.7398 18.5531C13.607 18.4452 13.4882 18.3206 13.3868 18.1824C13.3454 18.126 13.3073 18.068 13.2725 18.0085C13.0993 17.7124 13 17.3678 13 17C13 16.3592 13.3014 15.7888 13.7701 15.4227C15.317 14.1338 24 8.0003 24 8.0003C24 8.0003 17.8366 16.7257 16.5682 18.2414C16.5268 18.2936 16.4829 18.3437 16.4365 18.3915C16.4287 18.3998 16.4213 18.4074 16.4144 18.4143C16.1744 18.6543 15.8885 18.8206 15.585 18.9131C15.4635 18.9502 15.3372 18.976 15.2072 18.9894C15.091 19.0014 14.974 19.0033 14.8576 18.995Z" fill="#8A85FF"/>
  </g>

  <g class="second-svg"  transform="translate(0,60)">
    <path fill-rule="evenodd" clip-rule="evenodd" d="M29 17C29 20.9174 27.3911 24.459 24.798 27H22V24H8V27H5.20203C2.60893 24.459 1 20.9174 1 17C1 9.26801 7.26801 3 15 3C22.732 3 29 9.26801 29 17ZM14.8576 18.995C14.6255 18.9787 14.4044 18.9228 14.2009 18.834C14.0381 18.7631 13.8828 18.6695 13.7398 18.5531C13.607 18.4452 13.4882 18.3206 13.3868 18.1824C13.3454 18.126 13.3073 18.068 13.2725 18.0085C13.0993 17.7124 13 17.3678 13 17C13 16.3592 13.3014 15.7888 13.7701 15.4227C15.317 14.1338 24 8.0003 24 8.0003C24 8.0003 17.8366 16.7257 16.5682 18.2414C16.5268 18.2936 16.4829 18.3437 16.4365 18.3915C16.4287 18.3998 16.4213 18.4074 16.4144 18.4143C16.1744 18.6543 15.8885 18.8206 15.585 18.9131C15.4635 18.9502 15.3372 18.976 15.2072 18.9894C15.091 19.0014 14.974 19.0033 14.8576 18.995Z" fill="#0068b4"/>
  </g>
</svg>
