<svg width="30" height="90" viewBox="0 0 30 90" fill="none" xmlns="http://www.w3.org/2000/svg">
  <!-- First SVG -->
  <g class="first-svg" transform="translate(0,0)">
    <g clip-path="url(#clip0_88_1432)">
      <path d="M14 0V4H16V0H14Z" fill="#999999"/>
      <path d="M6.70717 7.29291L3.70717 4.29291L2.29297 5.70711L5.29297 8.70711L6.70717 7.29291Z" fill="#999999"/>
      <path d="M24.7074 8.70711L27.7074 5.70711L26.293 4.29291L23.293 7.29291L24.7074 8.70711Z" fill="#999999"/>
      <path d="M14.9397 6C10.9993 6 7.6585 8.89744 7.10124 12.7983L7.08114 12.939C6.7627 15.168 7.40058 17.2909 8.65992 18.9179C9.42664 19.9085 9.93974 20.854 9.93974 21.8026V25C9.93974 25.5522 10.3875 26 10.9397 26H18.9397C19.492 26 19.9397 25.5522 19.9397 25V21.8026C19.9397 20.854 20.4527 19.9085 21.2195 18.9179C22.4789 17.2908 23.1167 15.1679 22.7983 12.939L22.7781 12.7983C22.2209 8.89746 18.8801 6 14.9397 6Z" fill="#999999"/>
      <path d="M12 15.25L14.0975 17.5L18.3 13" stroke="#282C34" stroke-width="2" stroke-linecap="round" stroke-linejoin="round"/>
      <path d="M0 16H4V14H0V16Z" fill="#999999"/>
      <path d="M26 16H30V14H26V16Z" fill="#999999"/>
      <path d="M12 30H18V28H12V30Z" fill="#999999"/>
    </g>
    <defs>
      <clipPath id="clip0_88_1432">
        <rect width="30" height="30" fill="white"/>
      </clipPath>
    </defs>
  </g>

  <!-- Second SVG -->
  <g class="second-svg"  transform="translate(0,30)">
    <g clip-path="url(#clip0_150_1411)">
      <path d="M14 0V4H16V0H14Z" fill="#8A85FF"/>
      <path d="M6.70717 7.29297L3.70717 4.29297L2.29297 5.70717L5.29297 8.70717L6.70717 7.29297Z" fill="#8A85FF"/>
      <path d="M24.7074 8.70717L27.7074 5.70717L26.293 4.29297L23.293 7.29297L24.7074 8.70717Z" fill="#8A85FF"/>
      <path d="M14.9397 6C10.9993 6 7.6585 8.89744 7.10124 12.7983L7.08114 12.939C6.7627 15.168 7.40058 17.2909 8.65992 18.9179C9.42664 19.9085 9.93974 20.854 9.93974 21.8026V25C9.93974 25.5522 10.3875 26 10.9397 26H18.9397C19.492 26 19.9397 25.5522 19.9397 25V21.8026C19.9397 20.854 20.4527 19.9085 21.2195 18.9179C22.4789 17.2908 23.1167 15.1679 22.7983 12.939L22.7781 12.7983C22.2209 8.89746 18.8801 6 14.9397 6Z" fill="#8A85FF"/>
      <path d="M12 15.25L14.0975 17.5L18.3 13" stroke="#282C34" stroke-width="2" stroke-linecap="round" stroke-linejoin="round"/>
      <path d="M0 16H4V14H0V16Z" fill="#8A85FF"/>
      <path d="M26 16H30V14H26V16Z" fill="#8A85FF"/>
      <path d="M12 30H18V28H12V30Z" fill="#8A85FF"/>
    </g>
    <defs>
      <clipPath id="clip0_150_1411">
        <rect width="30" height="30" fill="white"/>
      </clipPath>
    </defs>
  </g>

  <g class="second-svg"  transform="translate(0,60)">
    <g clip-path="url(#clip0_150_1411)">
      <path d="M14 0V4H16V0H14Z" fill="#0068b4"/>
      <path d="M6.70717 7.29297L3.70717 4.29297L2.29297 5.70717L5.29297 8.70717L6.70717 7.29297Z" fill="#0068b4"/>
      <path d="M24.7074 8.70717L27.7074 5.70717L26.293 4.29297L23.293 7.29297L24.7074 8.70717Z" fill="#0068b4"/>
      <path d="M14.9397 6C10.9993 6 7.6585 8.89744 7.10124 12.7983L7.08114 12.939C6.7627 15.168 7.40058 17.2909 8.65992 18.9179C9.42664 19.9085 9.93974 20.854 9.93974 21.8026V25C9.93974 25.5522 10.3875 26 10.9397 26H18.9397C19.492 26 19.9397 25.5522 19.9397 25V21.8026C19.9397 20.854 20.4527 19.9085 21.2195 18.9179C22.4789 17.2908 23.1167 15.1679 22.7983 12.939L22.7781 12.7983C22.2209 8.89746 18.8801 6 14.9397 6Z" fill="#0068b4"/>
      <path d="M12 15.25L14.0975 17.5L18.3 13" stroke="#004499" stroke-width="2" stroke-linecap="round" stroke-linejoin="round"/>
      <path d="M0 16H4V14H0V16Z" fill="#0068b4"/>
      <path d="M26 16H30V14H26V16Z" fill="#0068b4"/>
      <path d="M12 30H18V28H12V30Z" fill="#0068b4"/>
    </g>
    <defs>
      <clipPath id="clip0_150_1411">
        <rect width="30" height="30" fill="white"/>
      </clipPath>
    </defs>
  </g>
</svg>
