<svg width="30" height="30" viewBox="0 0 30 30" fill="none" xmlns="http://www.w3.org/2000/svg">
<path fill-rule="evenodd" clip-rule="evenodd" d="M0 15C0 15 4.28571 26 15 26C25.7143 26 30 15 30 15C30 15 25.7143 4 15 4C4.28571 4 0 15 0 15ZM3.31799 15C3.36349 15.0859 3.41199 15.1757 3.46354 15.2691C3.9567 16.1626 4.70869 17.3482 5.73806 18.5224C7.79687 20.871 10.79 23 15 23C19.21 23 22.2031 20.871 24.2619 18.5224C25.2913 17.3482 26.0433 16.1626 26.5365 15.2691C26.588 15.1757 26.6365 15.0859 26.682 15C26.6365 14.9141 26.588 14.8243 26.5365 14.7309C26.0433 13.8374 25.2913 12.6518 24.2619 11.4776C22.2031 9.12901 19.21 7 15 7C10.79 7 7.79687 9.12901 5.73806 11.4776C4.70869 12.6518 3.9567 13.8374 3.46354 14.7309C3.41199 14.8243 3.36349 14.9141 3.31799 15ZM15 21C18.3137 21 21 18.3137 21 15C21 11.6863 18.3137 9 15 9C14.3851 9 13.7917 9.09251 13.2332 9.26437C14.275 9.73472 15 10.7827 15 12C15 13.6569 13.6569 15 12 15C10.7827 15 9.73472 14.275 9.26437 13.2332C9.09251 13.7917 9 14.3851 9 15C9 18.3137 11.6863 21 15 21Z" fill="#999999"/>
</svg>
