<svg width="20" height="100" viewBox="0 0 20 100" fill="none" xmlns="http://www.w3.org/2000/svg">
<g transform="translate(0,0)">
<path fill-rule="evenodd" clip-rule="evenodd" d="M3.99984 0.666504C3.26346 0.666504 2.6665 1.26346 2.6665 1.99984V17.9998C2.6665 18.7362 3.26346 19.3332 3.99984 19.3332H15.9998C16.7362 19.3332 17.3332 18.7362 17.3332 17.9998V4.6665L13.3332 0.666504H3.99984ZM15.3332 9.33317H4.6665V10.6665H15.3332V9.33317ZM4.6665 12.6665H15.3332V13.9998H4.6665V12.6665ZM12.6665 17.3332V15.9998H4.6665V17.3332H12.6665ZM15.9998 5.33317L12.6665 1.99984V5.33317H15.9998ZM6.6665 6.6665C7.77107 6.6665 8.6665 5.77107 8.6665 4.6665C8.6665 3.56193 7.77107 2.6665 6.6665 2.6665C5.56193 2.6665 4.6665 3.56193 4.6665 4.6665C4.6665 5.77107 5.56193 6.6665 6.6665 6.6665Z" fill="#999999"/>
</g>
<g transform="translate(0,25)">
<path fill-rule="evenodd" clip-rule="evenodd" d="M3.99984 0.666504C3.26346 0.666504 2.6665 1.26346 2.6665 1.99984V17.9998C2.6665 18.7362 3.26346 19.3332 3.99984 19.3332H15.9998C16.7362 19.3332 17.3332 18.7362 17.3332 17.9998V4.6665L13.3332 0.666504H3.99984ZM15.3332 9.33317H4.6665V10.6665H15.3332V9.33317ZM4.6665 12.6665H15.3332V13.9998H4.6665V12.6665ZM12.6665 17.3332V15.9998H4.6665V17.3332H12.6665ZM15.9998 5.33317L12.6665 1.99984V5.33317H15.9998ZM6.6665 6.6665C7.77107 6.6665 8.6665 5.77107 8.6665 4.6665C8.6665 3.56193 7.77107 2.6665 6.6665 2.6665C5.56193 2.6665 4.6665 3.56193 4.6665 4.6665C4.6665 5.77107 5.56193 6.6665 6.6665 6.6665Z" fill="#A1D103"/>
</g>
<g transform="translate(0,50)">
<path fill-rule="evenodd" clip-rule="evenodd" d="M3.99984 0.666504C3.26346 0.666504 2.6665 1.26346 2.6665 1.99984V17.9998C2.6665 18.7362 3.26346 19.3332 3.99984 19.3332H15.9998C16.7362 19.3332 17.3332 18.7362 17.3332 17.9998V4.6665L13.3332 0.666504H3.99984ZM15.3332 9.33317H4.6665V10.6665H15.3332V9.33317ZM4.6665 12.6665H15.3332V13.9998H4.6665V12.6665ZM12.6665 17.3332V15.9998H4.6665V17.3332H12.6665ZM15.9998 5.33317L12.6665 1.99984V5.33317H15.9998ZM6.6665 6.6665C7.77107 6.6665 8.6665 5.77107 8.6665 4.6665C8.6665 3.56193 7.77107 2.6665 6.6665 2.6665C5.56193 2.6665 4.6665 3.56193 4.6665 4.6665C4.6665 5.77107 5.56193 6.6665 6.6665 6.6665Z" fill="#8A85FF"/>
</g>
<g transform="translate(0,75)">
<path fill-rule="evenodd" clip-rule="evenodd" d="M3.99984 0.666504C3.26346 0.666504 2.6665 1.26346 2.6665 1.99984V17.9998C2.6665 18.7362 3.26346 19.3332 3.99984 19.3332H15.9998C16.7362 19.3332 17.3332 18.7362 17.3332 17.9998V4.6665L13.3332 0.666504H3.99984ZM15.3332 9.33317H4.6665V10.6665H15.3332V9.33317ZM4.6665 12.6665H15.3332V13.9998H4.6665V12.6665ZM12.6665 17.3332V15.9998H4.6665V17.3332H12.6665ZM15.9998 5.33317L12.6665 1.99984V5.33317H15.9998ZM6.6665 6.6665C7.77107 6.6665 8.6665 5.77107 8.6665 4.6665C8.6665 3.56193 7.77107 2.6665 6.6665 2.6665C5.56193 2.6665 4.6665 3.56193 4.6665 4.6665C4.6665 5.77107 5.56193 6.6665 6.6665 6.6665Z" fill="#a6daef"/>
</g>
</svg>
