<svg width="21" height="100" viewBox="0 0 21 100" fill="none" xmlns="http://www.w3.org/2000/svg">
<g transform="translate(0,0)">
<path d="M15.4402 15.3922C15.9069 15.3922 16.3027 15.2297 16.6277 14.9047C16.9527 14.5797 17.1152 14.1839 17.1152 13.7172C17.1152 13.2505 16.9527 12.8589 16.6277 12.5422C16.3027 12.2255 15.9069 12.0672 15.4402 12.0672C14.9902 12.0672 14.6027 12.2297 14.2777 12.5547C13.9527 12.8797 13.7902 13.2672 13.7902 13.7172C13.7902 14.1839 13.9486 14.5797 14.2652 14.9047C14.5819 15.2297 14.9736 15.3922 15.4402 15.3922ZM15.4402 18.7172C15.9902 18.7172 16.5069 18.588 16.9902 18.3297C17.4736 18.0714 17.8652 17.7172 18.1652 17.2672C17.7319 17.0339 17.2902 16.8464 16.8402 16.7047C16.3902 16.563 15.9236 16.4922 15.4402 16.4922C14.9569 16.4922 14.4902 16.563 14.0402 16.7047C13.5902 16.8464 13.1486 17.0339 12.7152 17.2672C13.0152 17.7172 13.4069 18.0714 13.8902 18.3297C14.3736 18.588 14.8902 18.7172 15.4402 18.7172ZM15.4402 20.0922C14.1402 20.0922 13.0319 19.6297 12.1152 18.7047C11.1986 17.7797 10.7402 16.6839 10.7402 15.4172C10.7402 14.1172 11.1986 13.0047 12.1152 12.0797C13.0319 11.1547 14.1402 10.6922 15.4402 10.6922C16.7236 10.6922 17.8277 11.1547 18.7527 12.0797C19.6777 13.0047 20.1402 14.1172 20.1402 15.4172C20.1402 16.6839 19.6777 17.7797 18.7527 18.7047C17.8277 19.6297 16.7236 20.0922 15.4402 20.0922ZM4.11523 5.61719H14.1152V4.11719H4.11523V5.61719ZM9.86523 18.1172H1.61523C1.19857 18.1172 0.844401 17.9714 0.552734 17.6797C0.261068 17.388 0.115234 17.0339 0.115234 16.6172V1.61719C0.115234 1.20052 0.261068 0.846354 0.552734 0.554688C0.844401 0.263021 1.19857 0.117188 1.61523 0.117188H16.6152C17.0319 0.117188 17.3861 0.263021 17.6777 0.554688C17.9694 0.846354 18.1152 1.20052 18.1152 1.61719V9.84219C17.6986 9.62552 17.2652 9.46719 16.8152 9.36719C16.3652 9.26719 15.9069 9.21719 15.4402 9.21719C15.2069 9.21719 14.9819 9.22969 14.7652 9.25469C14.5486 9.27969 14.3319 9.31719 14.1152 9.36719V8.36719H4.11523V9.86719H12.7152C12.1152 10.1672 11.5777 10.5547 11.1027 11.0297C10.6277 11.5047 10.2402 12.0339 9.94023 12.6172H4.11523V14.1172H9.39023C9.34023 14.3339 9.30273 14.5505 9.27773 14.7672C9.25273 14.9839 9.24023 15.2089 9.24023 15.4422C9.24023 15.9255 9.29023 16.3839 9.39023 16.8172C9.49023 17.2505 9.64857 17.6839 9.86523 18.1172Z" fill="white"/>
</g>
<g transform="translate(0,25)">
<path d="M15.4402 15.3922C15.9069 15.3922 16.3027 15.2297 16.6277 14.9047C16.9527 14.5797 17.1152 14.1839 17.1152 13.7172C17.1152 13.2505 16.9527 12.8589 16.6277 12.5422C16.3027 12.2255 15.9069 12.0672 15.4402 12.0672C14.9902 12.0672 14.6027 12.2297 14.2777 12.5547C13.9527 12.8797 13.7902 13.2672 13.7902 13.7172C13.7902 14.1839 13.9486 14.5797 14.2652 14.9047C14.5819 15.2297 14.9736 15.3922 15.4402 15.3922ZM15.4402 18.7172C15.9902 18.7172 16.5069 18.588 16.9902 18.3297C17.4736 18.0714 17.8652 17.7172 18.1652 17.2672C17.7319 17.0339 17.2902 16.8464 16.8402 16.7047C16.3902 16.563 15.9236 16.4922 15.4402 16.4922C14.9569 16.4922 14.4902 16.563 14.0402 16.7047C13.5902 16.8464 13.1486 17.0339 12.7152 17.2672C13.0152 17.7172 13.4069 18.0714 13.8902 18.3297C14.3736 18.588 14.8902 18.7172 15.4402 18.7172ZM15.4402 20.0922C14.1402 20.0922 13.0319 19.6297 12.1152 18.7047C11.1986 17.7797 10.7402 16.6839 10.7402 15.4172C10.7402 14.1172 11.1986 13.0047 12.1152 12.0797C13.0319 11.1547 14.1402 10.6922 15.4402 10.6922C16.7236 10.6922 17.8277 11.1547 18.7527 12.0797C19.6777 13.0047 20.1402 14.1172 20.1402 15.4172C20.1402 16.6839 19.6777 17.7797 18.7527 18.7047C17.8277 19.6297 16.7236 20.0922 15.4402 20.0922ZM4.11523 5.61719H14.1152V4.11719H4.11523V5.61719ZM9.86523 18.1172H1.61523C1.19857 18.1172 0.844401 17.9714 0.552734 17.6797C0.261068 17.388 0.115234 17.0339 0.115234 16.6172V1.61719C0.115234 1.20052 0.261068 0.846354 0.552734 0.554688C0.844401 0.263021 1.19857 0.117188 1.61523 0.117188H16.6152C17.0319 0.117188 17.3861 0.263021 17.6777 0.554688C17.9694 0.846354 18.1152 1.20052 18.1152 1.61719V9.84219C17.6986 9.62552 17.2652 9.46719 16.8152 9.36719C16.3652 9.26719 15.9069 9.21719 15.4402 9.21719C15.2069 9.21719 14.9819 9.22969 14.7652 9.25469C14.5486 9.27969 14.3319 9.31719 14.1152 9.36719V8.36719H4.11523V9.86719H12.7152C12.1152 10.1672 11.5777 10.5547 11.1027 11.0297C10.6277 11.5047 10.2402 12.0339 9.94023 12.6172H4.11523V14.1172H9.39023C9.34023 14.3339 9.30273 14.5505 9.27773 14.7672C9.25273 14.9839 9.24023 15.2089 9.24023 15.4422C9.24023 15.9255 9.29023 16.3839 9.39023 16.8172C9.49023 17.2505 9.64857 17.6839 9.86523 18.1172Z" fill="#999999"/>
</g>
<g transform="translate(0,50)">
<path d="M15.4402 15.3922C15.9069 15.3922 16.3027 15.2297 16.6277 14.9047C16.9527 14.5797 17.1152 14.1839 17.1152 13.7172C17.1152 13.2505 16.9527 12.8589 16.6277 12.5422C16.3027 12.2255 15.9069 12.0672 15.4402 12.0672C14.9902 12.0672 14.6027 12.2297 14.2777 12.5547C13.9527 12.8797 13.7902 13.2672 13.7902 13.7172C13.7902 14.1839 13.9486 14.5797 14.2652 14.9047C14.5819 15.2297 14.9736 15.3922 15.4402 15.3922ZM15.4402 18.7172C15.9902 18.7172 16.5069 18.588 16.9902 18.3297C17.4736 18.0714 17.8652 17.7172 18.1652 17.2672C17.7319 17.0339 17.2902 16.8464 16.8402 16.7047C16.3902 16.563 15.9236 16.4922 15.4402 16.4922C14.9569 16.4922 14.4902 16.563 14.0402 16.7047C13.5902 16.8464 13.1486 17.0339 12.7152 17.2672C13.0152 17.7172 13.4069 18.0714 13.8902 18.3297C14.3736 18.588 14.8902 18.7172 15.4402 18.7172ZM15.4402 20.0922C14.1402 20.0922 13.0319 19.6297 12.1152 18.7047C11.1986 17.7797 10.7402 16.6839 10.7402 15.4172C10.7402 14.1172 11.1986 13.0047 12.1152 12.0797C13.0319 11.1547 14.1402 10.6922 15.4402 10.6922C16.7236 10.6922 17.8277 11.1547 18.7527 12.0797C19.6777 13.0047 20.1402 14.1172 20.1402 15.4172C20.1402 16.6839 19.6777 17.7797 18.7527 18.7047C17.8277 19.6297 16.7236 20.0922 15.4402 20.0922ZM4.11523 5.61719H14.1152V4.11719H4.11523V5.61719ZM9.86523 18.1172H1.61523C1.19857 18.1172 0.844401 17.9714 0.552734 17.6797C0.261068 17.388 0.115234 17.0339 0.115234 16.6172V1.61719C0.115234 1.20052 0.261068 0.846354 0.552734 0.554688C0.844401 0.263021 1.19857 0.117188 1.61523 0.117188H16.6152C17.0319 0.117188 17.3861 0.263021 17.6777 0.554688C17.9694 0.846354 18.1152 1.20052 18.1152 1.61719V9.84219C17.6986 9.62552 17.2652 9.46719 16.8152 9.36719C16.3652 9.26719 15.9069 9.21719 15.4402 9.21719C15.2069 9.21719 14.9819 9.22969 14.7652 9.25469C14.5486 9.27969 14.3319 9.31719 14.1152 9.36719V8.36719H4.11523V9.86719H12.7152C12.1152 10.1672 11.5777 10.5547 11.1027 11.0297C10.6277 11.5047 10.2402 12.0339 9.94023 12.6172H4.11523V14.1172H9.39023C9.34023 14.3339 9.30273 14.5505 9.27773 14.7672C9.25273 14.9839 9.24023 15.2089 9.24023 15.4422C9.24023 15.9255 9.29023 16.3839 9.39023 16.8172C9.49023 17.2505 9.64857 17.6839 9.86523 18.1172Z" fill="#8A85FF"/>
</g>
<g transform="translate(0,75)">
<path d="M15.4402 15.3922C15.9069 15.3922 16.3027 15.2297 16.6277 14.9047C16.9527 14.5797 17.1152 14.1839 17.1152 13.7172C17.1152 13.2505 16.9527 12.8589 16.6277 12.5422C16.3027 12.2255 15.9069 12.0672 15.4402 12.0672C14.9902 12.0672 14.6027 12.2297 14.2777 12.5547C13.9527 12.8797 13.7902 13.2672 13.7902 13.7172C13.7902 14.1839 13.9486 14.5797 14.2652 14.9047C14.5819 15.2297 14.9736 15.3922 15.4402 15.3922ZM15.4402 18.7172C15.9902 18.7172 16.5069 18.588 16.9902 18.3297C17.4736 18.0714 17.8652 17.7172 18.1652 17.2672C17.7319 17.0339 17.2902 16.8464 16.8402 16.7047C16.3902 16.563 15.9236 16.4922 15.4402 16.4922C14.9569 16.4922 14.4902 16.563 14.0402 16.7047C13.5902 16.8464 13.1486 17.0339 12.7152 17.2672C13.0152 17.7172 13.4069 18.0714 13.8902 18.3297C14.3736 18.588 14.8902 18.7172 15.4402 18.7172ZM15.4402 20.0922C14.1402 20.0922 13.0319 19.6297 12.1152 18.7047C11.1986 17.7797 10.7402 16.6839 10.7402 15.4172C10.7402 14.1172 11.1986 13.0047 12.1152 12.0797C13.0319 11.1547 14.1402 10.6922 15.4402 10.6922C16.7236 10.6922 17.8277 11.1547 18.7527 12.0797C19.6777 13.0047 20.1402 14.1172 20.1402 15.4172C20.1402 16.6839 19.6777 17.7797 18.7527 18.7047C17.8277 19.6297 16.7236 20.0922 15.4402 20.0922ZM4.11523 5.61719H14.1152V4.11719H4.11523V5.61719ZM9.86523 18.1172H1.61523C1.19857 18.1172 0.844401 17.9714 0.552734 17.6797C0.261068 17.388 0.115234 17.0339 0.115234 16.6172V1.61719C0.115234 1.20052 0.261068 0.846354 0.552734 0.554688C0.844401 0.263021 1.19857 0.117188 1.61523 0.117188H16.6152C17.0319 0.117188 17.3861 0.263021 17.6777 0.554688C17.9694 0.846354 18.1152 1.20052 18.1152 1.61719V9.84219C17.6986 9.62552 17.2652 9.46719 16.8152 9.36719C16.3652 9.26719 15.9069 9.21719 15.4402 9.21719C15.2069 9.21719 14.9819 9.22969 14.7652 9.25469C14.5486 9.27969 14.3319 9.31719 14.1152 9.36719V8.36719H4.11523V9.86719H12.7152C12.1152 10.1672 11.5777 10.5547 11.1027 11.0297C10.6277 11.5047 10.2402 12.0339 9.94023 12.6172H4.11523V14.1172H9.39023C9.34023 14.3339 9.30273 14.5505 9.27773 14.7672C9.25273 14.9839 9.24023 15.2089 9.24023 15.4422C9.24023 15.9255 9.29023 16.3839 9.39023 16.8172C9.49023 17.2505 9.64857 17.6839 9.86523 18.1172Z" fill="#0068b4"/>
</g>
</svg>
