<svg width="20" height="20" viewBox="0 0 20 20" fill="none" xmlns="http://www.w3.org/2000/svg">
<path fill-rule="evenodd" clip-rule="evenodd" d="M10.0002 8.00016C11.8411 8.00016 13.3335 6.50778 13.3335 4.66683C13.3335 2.82588 11.8411 1.3335 10.0002 1.3335C8.15921 1.3335 6.66683 2.82588 6.66683 4.66683C6.66683 6.50778 8.15921 8.00016 10.0002 8.00016ZM12.0002 10.0002C12.0002 11.8411 13.4925 13.3335 15.3335 13.3335C17.1744 13.3335 18.6668 11.8411 18.6668 10.0002C18.6668 8.15921 17.1744 6.66683 15.3335 6.66683C13.4925 6.66683 12.0002 8.15921 12.0002 10.0002ZM13.3335 15.3335C13.3335 17.1744 11.8411 18.6668 10.0002 18.6668C8.15921 18.6668 6.66683 17.1744 6.66683 15.3335C6.66683 13.4925 8.15921 12.0002 10.0002 12.0002C11.8411 12.0002 13.3335 13.4925 13.3335 15.3335ZM1.3335 10.0002C1.3335 11.8411 2.82588 13.3335 4.66683 13.3335C6.50778 13.3335 8.00016 11.8411 8.00016 10.0002C8.00016 8.15921 6.50778 6.66683 4.66683 6.66683C2.82588 6.66683 1.3335 8.15921 1.3335 10.0002Z" fill="#999999"/>
</svg>
