<svg width="20" height="15" viewBox="0 0 20 15" fill="none" xmlns="http://www.w3.org/2000/svg">
<path fill-rule="evenodd" clip-rule="evenodd" d="M2.66663 0C1.56206 0 0.666626 0.895432 0.666626 2V8.66667C0.666626 9.77124 1.56206 10.6667 2.66663 10.6667H6.66663C7.7712 10.6667 8.66663 9.77123 8.66663 8.66667V2C8.66663 0.895431 7.7712 0 6.66663 0H2.66663ZM1.99996 13.3333V12.6667L3.99996 12.6667L10.6666 12.6667L17.3333 12.6667V3.33333H10.6666V1.33333H18C18.7363 1.33333 19.3333 1.93029 19.3333 2.66667V13.3333C19.3333 14.0697 18.7363 14.6667 18 14.6667H3.33329C2.59691 14.6667 1.99996 14.0697 1.99996 13.3333Z" fill="#999999"/>
</svg>
