<svg width="20" height="20" viewBox="0 0 20 20" fill="none" xmlns="http://www.w3.org/2000/svg">
<path fill-rule="evenodd" clip-rule="evenodd" d="M3.59598 6.42427C3.32021 6.91715 3.09968 7.44514 2.94279 7.99984H0.666748V11.9998H2.94279C3.0997 12.5546 3.32025 13.0826 3.59606 13.5755L1.98621 15.1854L4.81463 18.0138L6.42452 16.4039C6.9174 16.6797 7.44538 16.9002 8.00008 17.0571V19.3332H12.0001V17.0571C12.5548 16.9002 13.0828 16.6797 13.5756 16.4039L15.1855 18.0138L18.014 15.1854L16.4041 13.5755C16.6799 13.0826 16.9005 12.5546 17.0574 11.9998H19.3334V7.99984H17.0574C16.9005 7.44514 16.68 6.91715 16.4042 6.42427L18.014 4.8145L15.1855 1.98607L13.5758 3.59582C13.0829 3.32 12.5548 3.09945 12.0001 2.94255V0.666504H8.00008V2.94255C7.44533 3.09945 6.9173 3.32 6.42438 3.59582L4.81463 1.98607L1.98621 4.8145L3.59598 6.42427ZM10.0001 12.6665C11.4728 12.6665 12.6668 11.4726 12.6668 9.99984C12.6668 8.52708 11.4728 7.33317 10.0001 7.33317C8.52733 7.33317 7.33342 8.52708 7.33342 9.99984C7.33342 11.4726 8.52733 12.6665 10.0001 12.6665Z" fill="#999999"/>
</svg>
