<svg width="30" height="90" viewBox="0 0 30 90" fill="none" xmlns="http://www.w3.org/2000/svg">
<g class="first-svg" transform="translate(0,0)">
<path fill-rule="evenodd" clip-rule="evenodd" d="M1 5C1 4.44772 1.44772 4 2 4H8C8.55228 4 9 4.44772 9 5V9C9 9.55228 8.55228 10 8 10H2C1.44772 10 1 9.55228 1 9V5ZM11 5C11 4.44772 11.4477 4 12 4H18C18.5523 4 19 4.44772 19 5V9C19 9.55228 18.5523 10 18 10H12C11.4477 10 11 9.55228 11 9V5ZM22 4C21.4477 4 21 4.44772 21 5V9C21 9.55228 21.4477 10 22 10H28C28.5523 10 29 9.55228 29 9V5C29 4.44772 28.5523 4 28 4H22ZM1 13C1 12.4477 1.44772 12 2 12H8C8.55228 12 9 12.4477 9 13V17C9 17.5523 8.55228 18 8 18H2C1.44772 18 1 17.5523 1 17V13ZM2 20C1.44772 20 1 20.4477 1 21V25C1 25.5523 1.44772 26 2 26H8C8.55228 26 9 25.5523 9 25V21C9 20.4477 8.55228 20 8 20H2ZM11 13C11 12.4477 11.4477 12 12 12H18C18.5523 12 19 12.4477 19 13V17C19 17.5523 18.5523 18 18 18H12C11.4477 18 11 17.5523 11 17V13ZM12 20C11.4477 20 11 20.4477 11 21V25C11 25.5523 11.4477 26 12 26H18C18.5523 26 19 25.5523 19 25V21C19 20.4477 18.5523 20 18 20H12ZM21 13C21 12.4477 21.4477 12 22 12H28C28.5523 12 29 12.4477 29 13V17C29 17.5523 28.5523 18 28 18H22C21.4477 18 21 17.5523 21 17V13ZM22 20C21.4477 20 21 20.4477 21 21V25C21 25.5523 21.4477 26 22 26H28C28.5523 26 29 25.5523 29 25V21C29 20.4477 28.5523 20 28 20H22Z" fill="#999999"/>
</g>
<g class="second-svg"  transform="translate(0,30)">
<path fill-rule="evenodd" clip-rule="evenodd" d="M1 5C1 4.44772 1.44772 4 2 4H8C8.55228 4 9 4.44772 9 5V9C9 9.55228 8.55228 10 8 10H2C1.44772 10 1 9.55228 1 9V5ZM11 5C11 4.44772 11.4477 4 12 4H18C18.5523 4 19 4.44772 19 5V9C19 9.55228 18.5523 10 18 10H12C11.4477 10 11 9.55228 11 9V5ZM22 4C21.4477 4 21 4.44772 21 5V9C21 9.55228 21.4477 10 22 10H28C28.5523 10 29 9.55228 29 9V5C29 4.44772 28.5523 4 28 4H22ZM1 13C1 12.4477 1.44772 12 2 12H8C8.55228 12 9 12.4477 9 13V17C9 17.5523 8.55228 18 8 18H2C1.44772 18 1 17.5523 1 17V13ZM2 20C1.44772 20 1 20.4477 1 21V25C1 25.5523 1.44772 26 2 26H8C8.55228 26 9 25.5523 9 25V21C9 20.4477 8.55228 20 8 20H2ZM11 13C11 12.4477 11.4477 12 12 12H18C18.5523 12 19 12.4477 19 13V17C19 17.5523 18.5523 18 18 18H12C11.4477 18 11 17.5523 11 17V13ZM12 20C11.4477 20 11 20.4477 11 21V25C11 25.5523 11.4477 26 12 26H18C18.5523 26 19 25.5523 19 25V21C19 20.4477 18.5523 20 18 20H12ZM21 13C21 12.4477 21.4477 12 22 12H28C28.5523 12 29 12.4477 29 13V17C29 17.5523 28.5523 18 28 18H22C21.4477 18 21 17.5523 21 17V13ZM22 20C21.4477 20 21 20.4477 21 21V25C21 25.5523 21.4477 26 22 26H28C28.5523 26 29 25.5523 29 25V21C29 20.4477 28.5523 20 28 20H22Z" fill="#8A85FF"/>
</g>
<g class="second-svg"  transform="translate(0,60)">
<path fill-rule="evenodd" clip-rule="evenodd" d="M1 5C1 4.44772 1.44772 4 2 4H8C8.55228 4 9 4.44772 9 5V9C9 9.55228 8.55228 10 8 10H2C1.44772 10 1 9.55228 1 9V5ZM11 5C11 4.44772 11.4477 4 12 4H18C18.5523 4 19 4.44772 19 5V9C19 9.55228 18.5523 10 18 10H12C11.4477 10 11 9.55228 11 9V5ZM22 4C21.4477 4 21 4.44772 21 5V9C21 9.55228 21.4477 10 22 10H28C28.5523 10 29 9.55228 29 9V5C29 4.44772 28.5523 4 28 4H22ZM1 13C1 12.4477 1.44772 12 2 12H8C8.55228 12 9 12.4477 9 13V17C9 17.5523 8.55228 18 8 18H2C1.44772 18 1 17.5523 1 17V13ZM2 20C1.44772 20 1 20.4477 1 21V25C1 25.5523 1.44772 26 2 26H8C8.55228 26 9 25.5523 9 25V21C9 20.4477 8.55228 20 8 20H2ZM11 13C11 12.4477 11.4477 12 12 12H18C18.5523 12 19 12.4477 19 13V17C19 17.5523 18.5523 18 18 18H12C11.4477 18 11 17.5523 11 17V13ZM12 20C11.4477 20 11 20.4477 11 21V25C11 25.5523 11.4477 26 12 26H18C18.5523 26 19 25.5523 19 25V21C19 20.4477 18.5523 20 18 20H12ZM21 13C21 12.4477 21.4477 12 22 12H28C28.5523 12 29 12.4477 29 13V17C29 17.5523 28.5523 18 28 18H22C21.4477 18 21 17.5523 21 17V13ZM22 20C21.4477 20 21 20.4477 21 21V25C21 25.5523 21.4477 26 22 26H28C28.5523 26 29 25.5523 29 25V21C29 20.4477 28.5523 20 28 20H22Z" fill="#0068b4"/>
</g>
</svg>
