<svg width="34" height="105" viewBox="0 0 34 105" fill="none" xmlns="http://www.w3.org/2000/svg">
<g transform="translate(0,0)">
  <path d="M16.7263 29.8577L6.71019 24.3666V16.0781L1.56396 13.2808L16.7263 4.99231L31.9578 13.2808V24.2285H29.8855V14.4895L26.7425 16.0781V24.3666L16.7263 29.8577ZM16.7263 19.2209L27.6059 13.2808L16.7263 7.44432L5.91581 13.2808L16.7263 19.2209ZM16.7263 27.5093L24.6702 23.1233V17.3214L16.7263 21.5693L8.7825 17.2523V23.1233L16.7263 27.5093Z" fill="#999999"/>
</g>
<g transform="translate(0,32)">
  <path d="M16.7263 29.8577L6.71019 24.3666V16.0781L1.56396 13.2808L16.7263 4.99231L31.9578 13.2808V24.2285H29.8855V14.4895L26.7425 16.0781V24.3666L16.7263 29.8577ZM16.7263 19.2209L27.6059 13.2808L16.7263 7.44432L5.91581 13.2808L16.7263 19.2209ZM16.7263 27.5093L24.6702 23.1233V17.3214L16.7263 21.5693L8.7825 17.2523V23.1233L16.7263 27.5093Z" fill="#A1D103"/>
</g>
<g transform="translate(0,70)">
  <path d="M16.7263 29.8577L6.71019 24.3666V16.0781L1.56396 13.2808L16.7263 4.99231L31.9578 13.2808V24.2285H29.8855V14.4895L26.7425 16.0781V24.3666L16.7263 29.8577ZM16.7263 19.2209L27.6059 13.2808L16.7263 7.44432L5.91581 13.2808L16.7263 19.2209ZM16.7263 27.5093L24.6702 23.1233V17.3214L16.7263 21.5693L8.7825 17.2523V23.1233L16.7263 27.5093Z" fill="#a6daef"/>
</g>
</svg>
