<svg width="30" height="90" viewBox="0 0 30 90" fill="none" xmlns="http://www.w3.org/2000/svg">
  <!-- First SVG -->
  <g class="first-svg" transform="translate(0,0)">
    <path d="M15.125 22.2812C15.4583 22.2812 15.7396 22.1667 15.9688 21.9375C16.1979 21.7083 16.3125 21.4271 16.3125 21.0938C16.3125 20.7604 16.1979 20.4792 15.9688 20.25C15.7396 20.0208 15.4583 19.9062 15.125 19.9062C14.7917 19.9062 14.5104 20.0208 14.2812 20.25C14.0521 20.4792 13.9375 20.7604 13.9375 21.0938C13.9375 21.4271 14.0521 21.7083 14.2812 21.9375C14.5104 22.1667 14.7917 22.2812 15.125 22.2812ZM14.0312 17.7188H15.875C15.875 17.1771 15.9427 16.6823 16.0781 16.2344C16.2135 15.7865 16.6354 15.2708 17.3438 14.6875C17.9896 14.1458 18.4479 13.6146 18.7188 13.0938C18.9896 12.5729 19.125 12 19.125 11.375C19.125 10.2708 18.7656 9.38542 18.0469 8.71875C17.3281 8.05208 16.375 7.71875 15.1875 7.71875C14.1667 7.71875 13.2656 7.97396 12.4844 8.48438C11.7031 8.99479 11.1354 9.69792 10.7812 10.5938L12.4375 11.2188C12.6667 10.6354 13.0104 10.1823 13.4688 9.85938C13.9271 9.53646 14.4688 9.375 15.0938 9.375C15.8021 9.375 16.375 9.56771 16.8125 9.95312C17.25 10.3385 17.4688 10.8333 17.4688 11.4375C17.4688 11.8958 17.3333 12.3281 17.0625 12.7344C16.7917 13.1406 16.3958 13.5625 15.875 14C15.25 14.5417 14.7865 15.0781 14.4844 15.6094C14.1823 16.1406 14.0312 16.8438 14.0312 17.7188ZM15 27.5C13.2917 27.5 11.6771 27.1719 10.1562 26.5156C8.63542 25.8594 7.30729 24.9635 6.17188 23.8281C5.03646 22.6927 4.14062 21.3646 3.48438 19.8438C2.82812 18.3229 2.5 16.7083 2.5 15C2.5 13.2708 2.82812 11.6458 3.48438 10.125C4.14062 8.60417 5.03646 7.28125 6.17188 6.15625C7.30729 5.03125 8.63542 4.14062 10.1562 3.48438C11.6771 2.82812 13.2917 2.5 15 2.5C16.7292 2.5 18.3542 2.82812 19.875 3.48438C21.3958 4.14062 22.7188 5.03125 23.8438 6.15625C24.9688 7.28125 25.8594 8.60417 26.5156 10.125C27.1719 11.6458 27.5 13.2708 27.5 15C27.5 16.7083 27.1719 18.3229 26.5156 19.8438C25.8594 21.3646 24.9688 22.6927 23.8438 23.8281C22.7188 24.9635 21.3958 25.8594 19.875 26.5156C18.3542 27.1719 16.7292 27.5 15 27.5Z" fill="#999999"/>

  </g>

  <!-- Second SVG -->
  <g class="second-svg"  transform="translate(0,30)">
    <path d="M15.125 22.2812C15.4583 22.2812 15.7396 22.1667 15.9688 21.9375C16.1979 21.7083 16.3125 21.4271 16.3125 21.0938C16.3125 20.7604 16.1979 20.4792 15.9688 20.25C15.7396 20.0208 15.4583 19.9062 15.125 19.9062C14.7917 19.9062 14.5104 20.0208 14.2812 20.25C14.0521 20.4792 13.9375 20.7604 13.9375 21.0938C13.9375 21.4271 14.0521 21.7083 14.2812 21.9375C14.5104 22.1667 14.7917 22.2812 15.125 22.2812ZM14.0312 17.7188H15.875C15.875 17.1771 15.9427 16.6823 16.0781 16.2344C16.2135 15.7865 16.6354 15.2708 17.3438 14.6875C17.9896 14.1458 18.4479 13.6146 18.7188 13.0938C18.9896 12.5729 19.125 12 19.125 11.375C19.125 10.2708 18.7656 9.38542 18.0469 8.71875C17.3281 8.05208 16.375 7.71875 15.1875 7.71875C14.1667 7.71875 13.2656 7.97396 12.4844 8.48438C11.7031 8.99479 11.1354 9.69792 10.7812 10.5938L12.4375 11.2188C12.6667 10.6354 13.0104 10.1823 13.4688 9.85938C13.9271 9.53646 14.4688 9.375 15.0938 9.375C15.8021 9.375 16.375 9.56771 16.8125 9.95312C17.25 10.3385 17.4688 10.8333 17.4688 11.4375C17.4688 11.8958 17.3333 12.3281 17.0625 12.7344C16.7917 13.1406 16.3958 13.5625 15.875 14C15.25 14.5417 14.7865 15.0781 14.4844 15.6094C14.1823 16.1406 14.0312 16.8438 14.0312 17.7188ZM15 27.5C13.2917 27.5 11.6771 27.1719 10.1562 26.5156C8.63542 25.8594 7.30729 24.9635 6.17188 23.8281C5.03646 22.6927 4.14062 21.3646 3.48438 19.8438C2.82812 18.3229 2.5 16.7083 2.5 15C2.5 13.2708 2.82812 11.6458 3.48438 10.125C4.14062 8.60417 5.03646 7.28125 6.17188 6.15625C7.30729 5.03125 8.63542 4.14062 10.1562 3.48438C11.6771 2.82812 13.2917 2.5 15 2.5C16.7292 2.5 18.3542 2.82812 19.875 3.48438C21.3958 4.14062 22.7188 5.03125 23.8438 6.15625C24.9688 7.28125 25.8594 8.60417 26.5156 10.125C27.1719 11.6458 27.5 13.2708 27.5 15C27.5 16.7083 27.1719 18.3229 26.5156 19.8438C25.8594 21.3646 24.9688 22.6927 23.8438 23.8281C22.7188 24.9635 21.3958 25.8594 19.875 26.5156C18.3542 27.1719 16.7292 27.5 15 27.5Z" fill="#8A85FF"/>
  </g>

  <g class="second-svg"  transform="translate(0,60)">
    <path d="M15.125 22.2812C15.4583 22.2812 15.7396 22.1667 15.9688 21.9375C16.1979 21.7083 16.3125 21.4271 16.3125 21.0938C16.3125 20.7604 16.1979 20.4792 15.9688 20.25C15.7396 20.0208 15.4583 19.9062 15.125 19.9062C14.7917 19.9062 14.5104 20.0208 14.2812 20.25C14.0521 20.4792 13.9375 20.7604 13.9375 21.0938C13.9375 21.4271 14.0521 21.7083 14.2812 21.9375C14.5104 22.1667 14.7917 22.2812 15.125 22.2812ZM14.0312 17.7188H15.875C15.875 17.1771 15.9427 16.6823 16.0781 16.2344C16.2135 15.7865 16.6354 15.2708 17.3438 14.6875C17.9896 14.1458 18.4479 13.6146 18.7188 13.0938C18.9896 12.5729 19.125 12 19.125 11.375C19.125 10.2708 18.7656 9.38542 18.0469 8.71875C17.3281 8.05208 16.375 7.71875 15.1875 7.71875C14.1667 7.71875 13.2656 7.97396 12.4844 8.48438C11.7031 8.99479 11.1354 9.69792 10.7812 10.5938L12.4375 11.2188C12.6667 10.6354 13.0104 10.1823 13.4688 9.85938C13.9271 9.53646 14.4688 9.375 15.0938 9.375C15.8021 9.375 16.375 9.56771 16.8125 9.95312C17.25 10.3385 17.4688 10.8333 17.4688 11.4375C17.4688 11.8958 17.3333 12.3281 17.0625 12.7344C16.7917 13.1406 16.3958 13.5625 15.875 14C15.25 14.5417 14.7865 15.0781 14.4844 15.6094C14.1823 16.1406 14.0312 16.8438 14.0312 17.7188ZM15 27.5C13.2917 27.5 11.6771 27.1719 10.1562 26.5156C8.63542 25.8594 7.30729 24.9635 6.17188 23.8281C5.03646 22.6927 4.14062 21.3646 3.48438 19.8438C2.82812 18.3229 2.5 16.7083 2.5 15C2.5 13.2708 2.82812 11.6458 3.48438 10.125C4.14062 8.60417 5.03646 7.28125 6.17188 6.15625C7.30729 5.03125 8.63542 4.14062 10.1562 3.48438C11.6771 2.82812 13.2917 2.5 15 2.5C16.7292 2.5 18.3542 2.82812 19.875 3.48438C21.3958 4.14062 22.7188 5.03125 23.8438 6.15625C24.9688 7.28125 25.8594 8.60417 26.5156 10.125C27.1719 11.6458 27.5 13.2708 27.5 15C27.5 16.7083 27.1719 18.3229 26.5156 19.8438C25.8594 21.3646 24.9688 22.6927 23.8438 23.8281C22.7188 24.9635 21.3958 25.8594 19.875 26.5156C18.3542 27.1719 16.7292 27.5 15 27.5Z" fill="#0068b4"/>
  </g>
</svg>