<svg width="25" height="50" viewBox="0 0 25 50" fill="none" xmlns="http://www.w3.org/2000/svg">
<g transform="translate(0,0)">
<path d="M5.61523 22.1172C5.21523 22.1172 4.86523 21.9672 4.56523 21.6672C4.26523 21.3672 4.11523 21.0172 4.11523 20.6172V3.61719C4.11523 3.21719 4.26523 2.86719 4.56523 2.56719C4.86523 2.26719 5.21523 2.11719 5.61523 2.11719H18.6152C19.0152 2.11719 19.3652 2.26719 19.6652 2.56719C19.9652 2.86719 20.1152 3.21719 20.1152 3.61719V20.6172C20.1152 21.0172 19.9652 21.3672 19.6652 21.6672C19.3652 21.9672 19.0152 22.1172 18.6152 22.1172H5.61523ZM7.21523 18.1922H17.1402L13.9402 13.9172L11.3152 17.3172L9.56523 15.1172L7.21523 18.1922Z" fill="white"/>
<path d="M11.3858 10.3845V10.0438C11.3858 9.74917 11.4487 9.4929 11.5746 9.275C11.7004 9.0571 11.9306 8.82539 12.2651 8.57987C12.5873 8.34969 12.7991 8.16248 12.9004 8.01823C13.0047 7.87399 13.0569 7.71286 13.0569 7.53486C13.0569 7.33537 12.9833 7.18345 12.8359 7.0791C12.6886 6.97476 12.483 6.92258 12.2191 6.92258C11.7587 6.92258 11.2339 7.07297 10.6446 7.37373L10.1429 6.36555C10.8273 5.98192 11.5531 5.79011 12.3203 5.79011C12.9526 5.79011 13.4543 5.94203 13.8257 6.24586C14.2001 6.5497 14.3873 6.95481 14.3873 7.4612C14.3873 7.79879 14.3106 8.09035 14.1572 8.33588C14.0037 8.5814 13.7121 8.85761 13.2825 9.16452C12.9879 9.38242 12.8006 9.54815 12.7208 9.6617C12.6441 9.77526 12.6058 9.9241 12.6058 10.1082V10.3845H11.3858ZM11.2385 11.9589C11.2385 11.7011 11.3076 11.5062 11.4457 11.3742C11.5838 11.2423 11.7848 11.1763 12.0487 11.1763C12.3035 11.1763 12.4999 11.2438 12.638 11.3788C12.7792 11.5139 12.8497 11.7072 12.8497 11.9589C12.8497 12.2013 12.7792 12.3931 12.638 12.5343C12.4968 12.6724 12.3004 12.7415 12.0487 12.7415C11.7909 12.7415 11.5914 12.674 11.4503 12.5389C11.3091 12.4008 11.2385 12.2075 11.2385 11.9589Z" fill="#0C0C0C"/>
</g>
<g transform="translate(0,25)">
<path d="M5.61523 22.1172C5.21523 22.1172 4.86523 21.9672 4.56523 21.6672C4.26523 21.3672 4.11523 21.0172 4.11523 20.6172V3.61719C4.11523 3.21719 4.26523 2.86719 4.56523 2.56719C4.86523 2.26719 5.21523 2.11719 5.61523 2.11719H18.6152C19.0152 2.11719 19.3652 2.26719 19.6652 2.56719C19.9652 2.86719 20.1152 3.21719 20.1152 3.61719V20.6172C20.1152 21.0172 19.9652 21.3672 19.6652 21.6672C19.3652 21.9672 19.0152 22.1172 18.6152 22.1172H5.61523ZM7.21523 18.1922H17.1402L13.9402 13.9172L11.3152 17.3172L9.56523 15.1172L7.21523 18.1922Z" fill="#999999"/>
<path d="M11.3858 10.3845V10.0438C11.3858 9.74917 11.4487 9.4929 11.5746 9.275C11.7004 9.0571 11.9306 8.82539 12.2651 8.57987C12.5873 8.34969 12.7991 8.16248 12.9004 8.01823C13.0047 7.87399 13.0569 7.71286 13.0569 7.53486C13.0569 7.33537 12.9833 7.18345 12.8359 7.0791C12.6886 6.97476 12.483 6.92258 12.2191 6.92258C11.7587 6.92258 11.2339 7.07297 10.6446 7.37373L10.1429 6.36555C10.8273 5.98192 11.5531 5.79011 12.3203 5.79011C12.9526 5.79011 13.4543 5.94203 13.8257 6.24586C14.2001 6.5497 14.3873 6.95481 14.3873 7.4612C14.3873 7.79879 14.3106 8.09035 14.1572 8.33588C14.0037 8.5814 13.7121 8.85761 13.2825 9.16452C12.9879 9.38242 12.8006 9.54815 12.7208 9.6617C12.6441 9.77526 12.6058 9.9241 12.6058 10.1082V10.3845H11.3858ZM11.2385 11.9589C11.2385 11.7011 11.3076 11.5062 11.4457 11.3742C11.5838 11.2423 11.7848 11.1763 12.0487 11.1763C12.3035 11.1763 12.4999 11.2438 12.638 11.3788C12.7792 11.5139 12.8497 11.7072 12.8497 11.9589C12.8497 12.2013 12.7792 12.3931 12.638 12.5343C12.4968 12.6724 12.3004 12.7415 12.0487 12.7415C11.7909 12.7415 11.5914 12.674 11.4503 12.5389C11.3091 12.4008 11.2385 12.2075 11.2385 11.9589Z" fill="#0C0C0C"/>
</g>
</svg>
