<svg width="17" height="50" viewBox="0 0 17 50" fill="none" xmlns="http://www.w3.org/2000/svg">
<g transform="translate(0,0)">
<path d="M8.11523 13.3133C7.4819 13.3133 6.96107 13.0674 6.55273 12.5758C6.1444 12.0841 5.94023 11.5133 5.94023 10.8633C5.94023 10.3133 6.1569 9.85911 6.59023 9.50078C7.02357 9.14245 7.5319 8.96328 8.11523 8.96328C8.69857 8.96328 9.2069 9.14245 9.64023 9.50078C10.0736 9.85911 10.2902 10.3133 10.2902 10.8633C10.2902 11.5133 10.0861 12.0841 9.67773 12.5758C9.2694 13.0674 8.74857 13.3133 8.11523 13.3133ZM1.61523 0.113281H10.1402L16.1152 6.08828V18.6133C16.1152 19.0133 15.9652 19.3633 15.6652 19.6633C15.3652 19.9633 15.0152 20.1133 14.6152 20.1133H1.61523C1.21523 20.1133 0.865234 19.9633 0.565234 19.6633C0.265234 19.3633 0.115234 19.0133 0.115234 18.6133V1.61328C0.115234 1.21328 0.265234 0.863281 0.565234 0.563281C0.865234 0.263281 1.21523 0.113281 1.61523 0.113281ZM8.11523 14.8133C8.49857 14.8133 8.85273 14.7716 9.17773 14.6883C9.50273 14.6049 9.8319 14.4633 10.1652 14.2633L14.5152 18.6133H14.6152V16.6383L11.1402 13.1633C11.3569 12.8966 11.5194 12.5883 11.6277 12.2383C11.7361 11.8883 11.7902 11.5216 11.7902 11.1383C11.7902 10.1049 11.4361 9.23411 10.7277 8.52578C10.0194 7.81745 9.14857 7.46328 8.11523 7.46328C7.0819 7.46328 6.21107 7.81745 5.50273 8.52578C4.7944 9.23411 4.44023 10.1049 4.44023 11.1383C4.44023 12.1716 4.7944 13.0424 5.50273 13.7508C6.21107 14.4591 7.0819 14.8133 8.11523 14.8133Z" fill="white"/>
</g>
<g transform="translate(0,25)">
<path d="M8.11523 13.3133C7.4819 13.3133 6.96107 13.0674 6.55273 12.5758C6.1444 12.0841 5.94023 11.5133 5.94023 10.8633C5.94023 10.3133 6.1569 9.85911 6.59023 9.50078C7.02357 9.14245 7.5319 8.96328 8.11523 8.96328C8.69857 8.96328 9.2069 9.14245 9.64023 9.50078C10.0736 9.85911 10.2902 10.3133 10.2902 10.8633C10.2902 11.5133 10.0861 12.0841 9.67773 12.5758C9.2694 13.0674 8.74857 13.3133 8.11523 13.3133ZM1.61523 0.113281H10.1402L16.1152 6.08828V18.6133C16.1152 19.0133 15.9652 19.3633 15.6652 19.6633C15.3652 19.9633 15.0152 20.1133 14.6152 20.1133H1.61523C1.21523 20.1133 0.865234 19.9633 0.565234 19.6633C0.265234 19.3633 0.115234 19.0133 0.115234 18.6133V1.61328C0.115234 1.21328 0.265234 0.863281 0.565234 0.563281C0.865234 0.263281 1.21523 0.113281 1.61523 0.113281ZM8.11523 14.8133C8.49857 14.8133 8.85273 14.7716 9.17773 14.6883C9.50273 14.6049 9.8319 14.4633 10.1652 14.2633L14.5152 18.6133H14.6152V16.6383L11.1402 13.1633C11.3569 12.8966 11.5194 12.5883 11.6277 12.2383C11.7361 11.8883 11.7902 11.5216 11.7902 11.1383C11.7902 10.1049 11.4361 9.23411 10.7277 8.52578C10.0194 7.81745 9.14857 7.46328 8.11523 7.46328C7.0819 7.46328 6.21107 7.81745 5.50273 8.52578C4.7944 9.23411 4.44023 10.1049 4.44023 11.1383C4.44023 12.1716 4.7944 13.0424 5.50273 13.7508C6.21107 14.4591 7.0819 14.8133 8.11523 14.8133Z" fill="#999999"/>
</g>
</svg>
