<svg width="30" height="90" viewBox="0 0 30 90" fill="none" xmlns="http://www.w3.org/2000/svg">
<g class="first-svg" transform="translate(0,0)">
<path fill-rule="evenodd" clip-rule="evenodd" d="M10 4C10 2.89543 10.8954 2 12 2H18C19.1046 2 20 2.89543 20 4V6H27C28.1046 6 29 6.89543 29 8V14C29 15 28 16 27 16H19V18H27H29V24C29 25.1046 28.1046 26 27 26H3C1.89543 26 1 25.1046 1 24V18H3H11V16H3C2 16 1 15 1 14V8C1 6.89543 1.89543 6 3 6H10V4ZM18 4V6H12V4H18ZM13 14H17V20H13V14Z" fill="#999999"/>
</g>
<g class="second-svg"  transform="translate(0,30)">
<path fill-rule="evenodd" clip-rule="evenodd" d="M10 4C10 2.89543 10.8954 2 12 2H18C19.1046 2 20 2.89543 20 4V6H27C28.1046 6 29 6.89543 29 8V14C29 15 28 16 27 16H19V18H27H29V24C29 25.1046 28.1046 26 27 26H3C1.89543 26 1 25.1046 1 24V18H3H11V16H3C2 16 1 15 1 14V8C1 6.89543 1.89543 6 3 6H10V4ZM18 4V6H12V4H18ZM13 14H17V20H13V14Z" fill="#8A85FF"/>
</g>
<g class="second-svg"  transform="translate(0,60)">
<path fill-rule="evenodd" clip-rule="evenodd" d="M10 4C10 2.89543 10.8954 2 12 2H18C19.1046 2 20 2.89543 20 4V6H27C28.1046 6 29 6.89543 29 8V14C29 15 28 16 27 16H19V18H27H29V24C29 25.1046 28.1046 26 27 26H3C1.89543 26 1 25.1046 1 24V18H3H11V16H3C2 16 1 15 1 14V8C1 6.89543 1.89543 6 3 6H10V4ZM18 4V6H12V4H18ZM13 14H17V20H13V14Z" fill="#0068b4"/>
</g>
</svg>
