<svg width="20" height="80" viewBox="0 0 20 80" fill="none" xmlns="http://www.w3.org/2000/svg">
<g transform="translate(0,0)">
<path fill-rule="evenodd" clip-rule="evenodd" d="M10.6668 7.33333V3.91823L10.2405 5.05508C9.82691 6.158 9.01153 7.06372 7.95797 7.5905L7.70202 7.71847C7.47616 7.8314 7.3335 8.06224 7.3335 8.31476V14.6667C7.3335 15.0349 7.63197 15.3333 8.00016 15.3333H14.6814L15.9463 12.3819C15.9818 12.2989 16.0002 12.2096 16.0002 12.1193V10.5136C16.0002 9.91986 16.1134 9.33162 16.3339 8.7804L16.6191 8.06737C16.6506 7.98863 16.6668 7.90459 16.6668 7.81978V7.33333H10.6668ZM1.3335 7.33333V17.3333H4.00016V7.33333H1.3335ZM6.00016 6.55085C6.22304 6.29806 6.49546 6.08569 6.80759 5.92962L7.06354 5.80164C7.66558 5.50063 8.13151 4.98307 8.36785 4.35283L9.67572 0.865169C9.87088 0.344764 10.3684 0 10.9242 0H11.3335C12.0699 0 12.6668 0.596954 12.6668 1.33333V5.33333H17.3335C18.0699 5.33333 18.6668 5.93029 18.6668 6.66667V7.81978C18.6668 8.15903 18.6021 8.49517 18.4761 8.81016L18.1909 9.52318C18.0649 9.83817 18.0002 10.1743 18.0002 10.5136V12.1193C18.0002 12.4805 17.9268 12.8378 17.7845 13.1698L16.3465 16.5252C16.1364 17.0155 15.6543 17.3333 15.121 17.3333H8.00016C7.2037 17.3333 6.48879 16.9842 6.00016 16.4305C5.58525 15.9605 5.3335 15.343 5.3335 14.6667V8.31476C5.3335 7.97269 5.39895 7.64056 5.52061 7.33333C5.63407 7.04681 5.79642 6.78194 6.00016 6.55085Z" fill="#999999"/>
</g>
<g transform="translate(0,30)">
<path fill-rule="evenodd" clip-rule="evenodd" d="M10.6668 7.33333V3.91823L10.2405 5.05508C9.82691 6.158 9.01153 7.06372 7.95797 7.5905L7.70202 7.71847C7.47616 7.8314 7.3335 8.06224 7.3335 8.31476V14.6667C7.3335 15.0349 7.63197 15.3333 8.00016 15.3333H14.6814L15.9463 12.3819C15.9818 12.2989 16.0002 12.2096 16.0002 12.1193V10.5136C16.0002 9.91986 16.1134 9.33162 16.3339 8.7804L16.6191 8.06737C16.6506 7.98863 16.6668 7.90459 16.6668 7.81978V7.33333H10.6668ZM1.3335 7.33333V17.3333H4.00016V7.33333H1.3335ZM6.00016 6.55085C6.22304 6.29806 6.49546 6.08569 6.80759 5.92962L7.06354 5.80164C7.66558 5.50063 8.13151 4.98307 8.36785 4.35283L9.67572 0.865169C9.87088 0.344764 10.3684 0 10.9242 0H11.3335C12.0699 0 12.6668 0.596954 12.6668 1.33333V5.33333H17.3335C18.0699 5.33333 18.6668 5.93029 18.6668 6.66667V7.81978C18.6668 8.15903 18.6021 8.49517 18.4761 8.81016L18.1909 9.52318C18.0649 9.83817 18.0002 10.1743 18.0002 10.5136V12.1193C18.0002 12.4805 17.9268 12.8378 17.7845 13.1698L16.3465 16.5252C16.1364 17.0155 15.6543 17.3333 15.121 17.3333H8.00016C7.2037 17.3333 6.48879 16.9842 6.00016 16.4305C5.58525 15.9605 5.3335 15.343 5.3335 14.6667V8.31476C5.3335 7.97269 5.39895 7.64056 5.52061 7.33333C5.63407 7.04681 5.79642 6.78194 6.00016 6.55085Z" fill="#8A85FF"/>
</g>
<g transform="translate(0,60)">
<path fill-rule="evenodd" clip-rule="evenodd" d="M10.6668 7.33333V3.91823L10.2405 5.05508C9.82691 6.158 9.01153 7.06372 7.95797 7.5905L7.70202 7.71847C7.47616 7.8314 7.3335 8.06224 7.3335 8.31476V14.6667C7.3335 15.0349 7.63197 15.3333 8.00016 15.3333H14.6814L15.9463 12.3819C15.9818 12.2989 16.0002 12.2096 16.0002 12.1193V10.5136C16.0002 9.91986 16.1134 9.33162 16.3339 8.7804L16.6191 8.06737C16.6506 7.98863 16.6668 7.90459 16.6668 7.81978V7.33333H10.6668ZM1.3335 7.33333V17.3333H4.00016V7.33333H1.3335ZM6.00016 6.55085C6.22304 6.29806 6.49546 6.08569 6.80759 5.92962L7.06354 5.80164C7.66558 5.50063 8.13151 4.98307 8.36785 4.35283L9.67572 0.865169C9.87088 0.344764 10.3684 0 10.9242 0H11.3335C12.0699 0 12.6668 0.596954 12.6668 1.33333V5.33333H17.3335C18.0699 5.33333 18.6668 5.93029 18.6668 6.66667V7.81978C18.6668 8.15903 18.6021 8.49517 18.4761 8.81016L18.1909 9.52318C18.0649 9.83817 18.0002 10.1743 18.0002 10.5136V12.1193C18.0002 12.4805 17.9268 12.8378 17.7845 13.1698L16.3465 16.5252C16.1364 17.0155 15.6543 17.3333 15.121 17.3333H8.00016C7.2037 17.3333 6.48879 16.9842 6.00016 16.4305C5.58525 15.9605 5.3335 15.343 5.3335 14.6667V8.31476C5.3335 7.97269 5.39895 7.64056 5.52061 7.33333C5.63407 7.04681 5.79642 6.78194 6.00016 6.55085Z" fill="#0068b4"/>
</g>
</svg>
