<svg width="20" height="75" viewBox="0 0 20 75" fill="none" xmlns="http://www.w3.org/2000/svg">
<g transform="translate(0,0)">
<path fill-rule="evenodd" clip-rule="evenodd" d="M9.99984 19.3332C15.1545 19.3332 19.3332 15.1545 19.3332 9.99984C19.3332 4.84518 15.1545 0.666504 9.99984 0.666504C4.84518 0.666504 0.666504 4.84518 0.666504 9.99984C0.666504 15.1545 4.84518 19.3332 9.99984 19.3332ZM6.6665 5.99984C6.29831 5.99984 5.99984 6.29831 5.99984 6.6665V13.3332C5.99984 13.7014 6.29831 13.9998 6.6665 13.9998H13.3332C13.7014 13.9998 13.9998 13.7014 13.9998 13.3332V10.6665H15.3332V13.3332C15.3332 14.4377 14.4377 15.3332 13.3332 15.3332H6.6665C5.56193 15.3332 4.6665 14.4377 4.6665 13.3332V6.6665C4.6665 5.56193 5.56193 4.6665 6.6665 4.6665H9.33317V5.99984H6.6665ZM10.6666 4.6665H14.6666C15.0347 4.6665 15.3332 4.96498 15.3332 5.33317V9.33317H13.9999V6.94265L11.138 9.80457L10.1951 8.86177L13.0571 5.99984H10.6666V4.6665Z" fill="#999999"/>
</g>
<g transform="translate(0,25)">
<path fill-rule="evenodd" clip-rule="evenodd" d="M9.99984 19.3332C15.1545 19.3332 19.3332 15.1545 19.3332 9.99984C19.3332 4.84518 15.1545 0.666504 9.99984 0.666504C4.84518 0.666504 0.666504 4.84518 0.666504 9.99984C0.666504 15.1545 4.84518 19.3332 9.99984 19.3332ZM6.6665 5.99984C6.29831 5.99984 5.99984 6.29831 5.99984 6.6665V13.3332C5.99984 13.7014 6.29831 13.9998 6.6665 13.9998H13.3332C13.7014 13.9998 13.9998 13.7014 13.9998 13.3332V10.6665H15.3332V13.3332C15.3332 14.4377 14.4377 15.3332 13.3332 15.3332H6.6665C5.56193 15.3332 4.6665 14.4377 4.6665 13.3332V6.6665C4.6665 5.56193 5.56193 4.6665 6.6665 4.6665H9.33317V5.99984H6.6665ZM10.6666 4.6665H14.6666C15.0347 4.6665 15.3332 4.96498 15.3332 5.33317V9.33317H13.9999V6.94265L11.138 9.80457L10.1951 8.86177L13.0571 5.99984H10.6666V4.6665Z" fill="#A1D103"/>
</g>
<g transform="translate(0,50)">
<path fill-rule="evenodd" clip-rule="evenodd" d="M9.99984 19.3332C15.1545 19.3332 19.3332 15.1545 19.3332 9.99984C19.3332 4.84518 15.1545 0.666504 9.99984 0.666504C4.84518 0.666504 0.666504 4.84518 0.666504 9.99984C0.666504 15.1545 4.84518 19.3332 9.99984 19.3332ZM6.6665 5.99984C6.29831 5.99984 5.99984 6.29831 5.99984 6.6665V13.3332C5.99984 13.7014 6.29831 13.9998 6.6665 13.9998H13.3332C13.7014 13.9998 13.9998 13.7014 13.9998 13.3332V10.6665H15.3332V13.3332C15.3332 14.4377 14.4377 15.3332 13.3332 15.3332H6.6665C5.56193 15.3332 4.6665 14.4377 4.6665 13.3332V6.6665C4.6665 5.56193 5.56193 4.6665 6.6665 4.6665H9.33317V5.99984H6.6665ZM10.6666 4.6665H14.6666C15.0347 4.6665 15.3332 4.96498 15.3332 5.33317V9.33317H13.9999V6.94265L11.138 9.80457L10.1951 8.86177L13.0571 5.99984H10.6666V4.6665Z" fill="#a6daef"/>
</g>
</svg>
