<svg xmlns="http://www.w3.org/2000/svg" width="20" height="50" viewBox="0 0 20 50" fill="none">
    <!-- First SVG -->
  <g class="first-svg" transform="translate(0,0)">
    <path fill-rule="evenodd" clip-rule="evenodd" d="M5.33329 6.66634C3.49234 6.66634 1.99996 8.15873 1.99996 9.99968C1.99996 11.8406 3.49234 13.333 5.33329 13.333L8.66663 13.333L8.66663 14.6663L5.33329 14.6663C2.75596 14.6663 0.666626 12.577 0.666626 9.99968C0.666626 7.42235 2.75596 5.33301 5.33329 5.33301L8.66663 5.33301L8.66663 6.66634L5.33329 6.66634ZM14.6666 6.66634L11.3333 6.66634L11.3333 5.33301L14.6666 5.33301C17.244 5.33301 19.3333 7.42235 19.3333 9.99968C19.3333 12.577 17.244 14.6663 14.6666 14.6663L11.3333 14.6663L11.3333 13.333L14.6666 13.333C16.5076 13.333 18 11.8406 18 9.99968C18 8.15873 16.5076 6.66634 14.6666 6.66634Z" fill="#999999"/>
  </g>

  <!-- Second SVG -->
  <g class="second-svg"  transform="translate(0,30)">
    <path fill-rule="evenodd" clip-rule="evenodd" d="M5.33329 6.66634C3.49234 6.66634 1.99996 8.15873 1.99996 9.99968C1.99996 11.8406 3.49234 13.333 5.33329 13.333L8.66663 13.333L8.66663 14.6663L5.33329 14.6663C2.75596 14.6663 0.666626 12.577 0.666626 9.99968C0.666626 7.42235 2.75596 5.33301 5.33329 5.33301L8.66663 5.33301L8.66663 6.66634L5.33329 6.66634ZM14.6666 6.66634L11.3333 6.66634L11.3333 5.33301L14.6666 5.33301C17.244 5.33301 19.3333 7.42235 19.3333 9.99968C19.3333 12.577 17.244 14.6663 14.6666 14.6663L11.3333 14.6663L11.3333 13.333L14.6666 13.333C16.5076 13.333 18 11.8406 18 9.99968C18 8.15873 16.5076 6.66634 14.6666 6.66634ZM13.3333 10.6663L6.66663 10.6663L6.66663 9.33301L13.3333 9.33301L13.3333 10.6663Z" fill="#A1D103"/>
  </g>
</svg>