<svg xmlns="http://www.w3.org/2000/svg" width="24" height="90" viewBox="0 0 24 90" fill="none">
   <!-- First SVG -->
  <g class="first-svg" transform="translate(0,0)">
    <path d="M17.5 23V20H14.5V18.5H17.5V15.5H19V18.5H22V20H19V23H17.5ZM7.5 16.85C7.7 16.85 7.875 16.775 8.025 16.625C8.175 16.475 8.25 16.3 8.25 16.1C8.25 15.9 8.175 15.725 8.025 15.575C7.875 15.425 7.7 15.35 7.5 15.35C7.3 15.35 7.125 15.425 6.975 15.575C6.825 15.725 6.75 15.9 6.75 16.1C6.75 16.3 6.825 16.475 6.975 16.625C7.125 16.775 7.3 16.85 7.5 16.85ZM7.5 12.75C7.7 12.75 7.875 12.675 8.025 12.525C8.175 12.375 8.25 12.2 8.25 12C8.25 11.8 8.175 11.625 8.025 11.475C7.875 11.325 7.7 11.25 7.5 11.25C7.3 11.25 7.125 11.325 6.975 11.475C6.825 11.625 6.75 11.8 6.75 12C6.75 12.2 6.825 12.375 6.975 12.525C7.125 12.675 7.3 12.75 7.5 12.75ZM7.5 8.65C7.7 8.65 7.875 8.575 8.025 8.425C8.175 8.275 8.25 8.1 8.25 7.9C8.25 7.7 8.175 7.525 8.025 7.375C7.875 7.225 7.7 7.15 7.5 7.15C7.3 7.15 7.125 7.225 6.975 7.375C6.825 7.525 6.75 7.7 6.75 7.9C6.75 8.1 6.825 8.275 6.975 8.425C7.125 8.575 7.3 8.65 7.5 8.65ZM10.8 12.75H16.9V11.25H10.8V12.75ZM10.8 8.65H16.9V7.15H10.8V8.65ZM4.5 21C4.0875 21 3.73438 20.8531 3.44063 20.5594C3.14688 20.2656 3 19.9125 3 19.5V4.5C3 4.0875 3.14688 3.73438 3.44063 3.44063C3.73438 3.14688 4.0875 3 4.5 3H19.5C19.9125 3 20.2656 3.14688 20.5594 3.44063C20.8531 3.73438 21 4.0875 21 4.5V14.2C20.5667 13.9667 20.1204 13.7958 19.6613 13.6875C19.2022 13.5792 18.7317 13.525 18.25 13.525C17.4167 13.525 16.65 13.6875 15.95 14.0125C15.25 14.3375 14.6333 14.7833 14.1 15.35H10.8V16.85H13.1C12.9167 17.25 12.7708 17.6708 12.6625 18.1125C12.5542 18.5542 12.5 19.0167 12.5 19.5C12.5167 19.7556 12.5417 20.0111 12.575 20.2667C12.6083 20.5222 12.6667 20.7667 12.75 21H4.5Z" fill="#999999"/>
  </g>

  <!-- Second SVG -->
  <g class="second-svg"  transform="translate(0,32)">
    <path d="M17.5 23V20H14.5V18.5H17.5V15.5H19V18.5H22V20H19V23H17.5ZM7.5 16.85C7.7 16.85 7.875 16.775 8.025 16.625C8.175 16.475 8.25 16.3 8.25 16.1C8.25 15.9 8.175 15.725 8.025 15.575C7.875 15.425 7.7 15.35 7.5 15.35C7.3 15.35 7.125 15.425 6.975 15.575C6.825 15.725 6.75 15.9 6.75 16.1C6.75 16.3 6.825 16.475 6.975 16.625C7.125 16.775 7.3 16.85 7.5 16.85ZM7.5 12.75C7.7 12.75 7.875 12.675 8.025 12.525C8.175 12.375 8.25 12.2 8.25 12C8.25 11.8 8.175 11.625 8.025 11.475C7.875 11.325 7.7 11.25 7.5 11.25C7.3 11.25 7.125 11.325 6.975 11.475C6.825 11.625 6.75 11.8 6.75 12C6.75 12.2 6.825 12.375 6.975 12.525C7.125 12.675 7.3 12.75 7.5 12.75ZM7.5 8.65C7.7 8.65 7.875 8.575 8.025 8.425C8.175 8.275 8.25 8.1 8.25 7.9C8.25 7.7 8.175 7.525 8.025 7.375C7.875 7.225 7.7 7.15 7.5 7.15C7.3 7.15 7.125 7.225 6.975 7.375C6.825 7.525 6.75 7.7 6.75 7.9C6.75 8.1 6.825 8.275 6.975 8.425C7.125 8.575 7.3 8.65 7.5 8.65ZM10.8 12.75H16.9V11.25H10.8V12.75ZM10.8 8.65H16.9V7.15H10.8V8.65ZM4.5 21C4.0875 21 3.73438 20.8531 3.44063 20.5594C3.14688 20.2656 3 19.9125 3 19.5V4.5C3 4.0875 3.14688 3.73438 3.44063 3.44063C3.73438 3.14688 4.0875 3 4.5 3H19.5C19.9125 3 20.2656 3.14688 20.5594 3.44063C20.8531 3.73438 21 4.0875 21 4.5V14.2C20.5667 13.9667 20.1204 13.7958 19.6613 13.6875C19.2022 13.5792 18.7317 13.525 18.25 13.525C17.4167 13.525 16.65 13.6875 15.95 14.0125C15.25 14.3375 14.6333 14.7833 14.1 15.35H10.8V16.85H13.1C12.9167 17.25 12.7708 17.6708 12.6625 18.1125C12.5542 18.5542 12.5 19.0167 12.5 19.5C12.5167 19.7556 12.5417 20.0111 12.575 20.2667C12.6083 20.5222 12.6667 20.7667 12.75 21H4.5Z" fill="#8A85FF"/>
  </g>

  <g class="second-svg"  transform="translate(0,64)">
    <path d="M17.5 23V20H14.5V18.5H17.5V15.5H19V18.5H22V20H19V23H17.5ZM7.5 16.85C7.7 16.85 7.875 16.775 8.025 16.625C8.175 16.475 8.25 16.3 8.25 16.1C8.25 15.9 8.175 15.725 8.025 15.575C7.875 15.425 7.7 15.35 7.5 15.35C7.3 15.35 7.125 15.425 6.975 15.575C6.825 15.725 6.75 15.9 6.75 16.1C6.75 16.3 6.825 16.475 6.975 16.625C7.125 16.775 7.3 16.85 7.5 16.85ZM7.5 12.75C7.7 12.75 7.875 12.675 8.025 12.525C8.175 12.375 8.25 12.2 8.25 12C8.25 11.8 8.175 11.625 8.025 11.475C7.875 11.325 7.7 11.25 7.5 11.25C7.3 11.25 7.125 11.325 6.975 11.475C6.825 11.625 6.75 11.8 6.75 12C6.75 12.2 6.825 12.375 6.975 12.525C7.125 12.675 7.3 12.75 7.5 12.75ZM7.5 8.65C7.7 8.65 7.875 8.575 8.025 8.425C8.175 8.275 8.25 8.1 8.25 7.9C8.25 7.7 8.175 7.525 8.025 7.375C7.875 7.225 7.7 7.15 7.5 7.15C7.3 7.15 7.125 7.225 6.975 7.375C6.825 7.525 6.75 7.7 6.75 7.9C6.75 8.1 6.825 8.275 6.975 8.425C7.125 8.575 7.3 8.65 7.5 8.65ZM10.8 12.75H16.9V11.25H10.8V12.75ZM10.8 8.65H16.9V7.15H10.8V8.65ZM4.5 21C4.0875 21 3.73438 20.8531 3.44063 20.5594C3.14688 20.2656 3 19.9125 3 19.5V4.5C3 4.0875 3.14688 3.73438 3.44063 3.44063C3.73438 3.14688 4.0875 3 4.5 3H19.5C19.9125 3 20.2656 3.14688 20.5594 3.44063C20.8531 3.73438 21 4.0875 21 4.5V14.2C20.5667 13.9667 20.1204 13.7958 19.6613 13.6875C19.2022 13.5792 18.7317 13.525 18.25 13.525C17.4167 13.525 16.65 13.6875 15.95 14.0125C15.25 14.3375 14.6333 14.7833 14.1 15.35H10.8V16.85H13.1C12.9167 17.25 12.7708 17.6708 12.6625 18.1125C12.5542 18.5542 12.5 19.0167 12.5 19.5C12.5167 19.7556 12.5417 20.0111 12.575 20.2667C12.6083 20.5222 12.6667 20.7667 12.75 21H4.5Z" fill="#0068b4"/>
  </g>
</svg>