<svg width="104" height="116" viewBox="0 0 104 116" fill="none" xmlns="http://www.w3.org/2000/svg">
<path d="M95.5 28.5C95.5 20.768 89.232 14.5 81.5 14.5H22.5C14.768 14.5 8.5 20.768 8.5 28.5V87.5C8.5 95.232 14.768 101.5 22.5 101.5H81.5C89.232 101.5 95.5 95.232 95.5 87.5V28.5ZM99.5 87.5C99.5 97.4411 91.4411 105.5 81.5 105.5H22.5C12.5589 105.5 4.5 97.4411 4.5 87.5V28.5C4.5 18.5589 12.5589 10.5 22.5 10.5H81.5C91.4411 10.5 99.5 18.5589 99.5 28.5V87.5Z" fill="#A6DAEF"/>
<path d="M73.4976 29.872C74.4054 27.5586 77.0172 26.4185 79.3306 27.3261C81.644 28.2339 82.7841 30.8457 81.8765 33.1591L61.3453 85.4794C60.6712 87.1971 59.875 88.9375 57.1714 88.9375C54.7344 88.9375 53.8721 87.3569 53.1177 85.8222L52.9781 85.5078L37.564 46.9921L37.483 46.7753C36.7113 44.5231 37.8346 42.0371 40.0699 41.1425C42.3051 40.248 44.8323 41.2729 45.8277 43.4355L45.9195 43.6484L57.1138 71.621L73.4976 29.872Z" fill="#A6DAEF"/>
<path opacity="0.5" d="M40.5265 59.9473L30.5089 85.457L30.4191 85.6709C29.4378 87.8399 26.9168 88.8808 24.6759 88.001C22.4348 87.1208 21.2956 84.642 22.0529 82.3848L22.132 82.168L35.6378 47.7773L40.5265 59.9473Z" fill="#A6DAEF"/>
</svg>
