<svg width="30" height="90" viewBox="0 0 30 90" fill="none" xmlns="http://www.w3.org/2000/svg">
  <!-- First SVG -->
  <g class="first-svg" transform="translate(0,0)">
    <path d="M5.625 26.25C5.125 26.25 4.6875 26.0625 4.3125 25.6875C3.9375 25.3125 3.75 24.875 3.75 24.375V5.625C3.75 5.125 3.9375 4.6875 4.3125 4.3125C4.6875 3.9375 5.125 3.75 5.625 3.75H14.7188V5.625H5.625V24.375H14.7188V26.25H5.625ZM20.8125 20.4688L19.4688 19.125L22.6562 15.9375H11.7188V14.0625H22.5938L19.4062 10.875L20.75 9.53125L26.25 15.0312L20.8125 20.4688Z" fill="#999999"/>
  </g>

  <!-- Second SVG -->
  <g class="second-svg"  transform="translate(0,30)">
    <path d="M5.625 26.25C5.125 26.25 4.6875 26.0625 4.3125 25.6875C3.9375 25.3125 3.75 24.875 3.75 24.375V5.625C3.75 5.125 3.9375 4.6875 4.3125 4.3125C4.6875 3.9375 5.125 3.75 5.625 3.75H14.7188V5.625H5.625V24.375H14.7188V26.25H5.625ZM20.8125 20.4688L19.4688 19.125L22.6562 15.9375H11.7188V14.0625H22.5938L19.4062 10.875L20.75 9.53125L26.25 15.0312L20.8125 20.4688Z" fill="#8A85FF"/>
  </g>

  <g class="second-svg"  transform="translate(0,60)">
    <path d="M5.625 26.25C5.125 26.25 4.6875 26.0625 4.3125 25.6875C3.9375 25.3125 3.75 24.875 3.75 24.375V5.625C3.75 5.125 3.9375 4.6875 4.3125 4.3125C4.6875 3.9375 5.125 3.75 5.625 3.75H14.7188V5.625H5.625V24.375H14.7188V26.25H5.625ZM20.8125 20.4688L19.4688 19.125L22.6562 15.9375H11.7188V14.0625H22.5938L19.4062 10.875L20.75 9.53125L26.25 15.0312L20.8125 20.4688Z" fill="#0068b4"/>
  </g>
</svg>