<svg width="24" height="90" viewBox="0 0 24 90" fill="none" xmlns="http://www.w3.org/2000/svg">
<g transform="translate(0,0)">
<path fill-rule="evenodd" clip-rule="evenodd" d="M7 10C7 13.866 10.134 17 14 17C17.866 17 21 13.866 21 10C21 6.13401 17.866 3 14 3C10.134 3 7 6.13401 7 10ZM8.06906 18.0521C9.72839 19.2764 11.7797 20 14 20C19.5228 20 24 15.5228 24 10C24 4.47715 19.5228 0 14 0C8.47715 0 4 4.47715 4 10C4 12.2202 4.72357 14.2715 5.94776 15.9308L0.439226 21.4393L2.56055 23.5607L8.06906 18.0521Z" fill="#999999"/>
</g>
<g transform="translate(0,30)">
<path fill-rule="evenodd" clip-rule="evenodd" d="M7 10C7 13.866 10.134 17 14 17C17.866 17 21 13.866 21 10C21 6.13401 17.866 3 14 3C10.134 3 7 6.13401 7 10ZM8.06906 18.0521C9.72839 19.2764 11.7797 20 14 20C19.5228 20 24 15.5228 24 10C24 4.47715 19.5228 0 14 0C8.47715 0 4 4.47715 4 10C4 12.2202 4.72357 14.2715 5.94776 15.9308L0.439226 21.4393L2.56055 23.5607L8.06906 18.0521Z" fill="#8A85FF"/>
</g>
<g transform="translate(0,60)">
<path fill-rule="evenodd" clip-rule="evenodd" d="M7 10C7 13.866 10.134 17 14 17C17.866 17 21 13.866 21 10C21 6.13401 17.866 3 14 3C10.134 3 7 6.13401 7 10ZM8.06906 18.0521C9.72839 19.2764 11.7797 20 14 20C19.5228 20 24 15.5228 24 10C24 4.47715 19.5228 0 14 0C8.47715 0 4 4.47715 4 10C4 12.2202 4.72357 14.2715 5.94776 15.9308L0.439226 21.4393L2.56055 23.5607L8.06906 18.0521Z" fill="#0068b4"/>
</g>
</svg>
