<svg width="32" height="32" viewBox="0 0 32 32" fill="none" xmlns="http://www.w3.org/2000/svg">
<path d="M24.9136 12.511C24.4103 12.511 24.0103 12.911 24.0103 13.4142V15.4531C24.0103 20.0212 20.2939 23.7376 15.7258 23.7376C11.1577 23.7376 7.44135 20.0212 7.44135 15.4531V13.4013C7.44135 12.8981 7.04132 12.498 6.53806 12.498C6.0348 12.498 5.63477 12.8981 5.63477 13.4013V15.4402C5.63477 20.6922 9.67377 25.0151 14.8225 25.4796V28.2282C14.8225 28.7315 15.2226 29.1315 15.7258 29.1315C16.2291 29.1315 16.6291 28.7315 16.6291 28.2282V25.4796C21.765 25.028 25.8169 20.6922 25.8169 15.4402V13.4013C25.804 12.911 25.4039 12.511 24.9136 12.511Z" fill="#0C0C0C"/>
<path d="M15.7261 3.323C12.5775 3.323 10.0225 5.87802 10.0225 9.02664L10.0225 15.6336C10.0225 18.7822 12.5775 21.3372 15.7261 21.3372C18.8747 21.3372 21.4297 18.7822 21.4297 15.6336V9.02664C21.4297 5.87802 18.8747 3.323 15.7261 3.323ZM17.4165 12.2914C17.3262 12.6269 17.0294 12.8463 16.6939 12.8463C16.6294 12.8463 16.5649 12.8334 16.5004 12.8205C15.9971 12.6785 15.468 12.6785 14.9648 12.8205C14.5518 12.9366 14.1518 12.6914 14.0486 12.2914C13.9324 11.8914 14.1776 11.4784 14.5776 11.3752C15.339 11.1687 16.139 11.1687 16.9004 11.3752C17.2875 11.4784 17.5198 11.8914 17.4165 12.2914ZM18.1005 9.78799C17.9843 10.0977 17.7004 10.2783 17.3907 10.2783C17.3004 10.2783 17.223 10.2654 17.1327 10.2396C16.2294 9.90412 15.2228 9.90412 14.3195 10.2396C13.9324 10.3816 13.4937 10.1751 13.3517 9.78799C13.2098 9.40086 13.4163 8.96212 13.8034 8.83308C15.0422 8.38143 16.41 8.38143 17.6488 8.83308C18.0359 8.97502 18.2424 9.40086 18.1005 9.78799Z" fill="#0C0C0C"/>
</svg>
