<svg width="34" height="105" viewBox="0 0 34 105" fill="none" xmlns="http://www.w3.org/2000/svg">
<g transform="translate(0,0)">
  <path d="M1.74805 29.0126V26.94H32.1499V29.0126H1.74805ZM5.20281 24.8673C4.65004 24.8673 4.16638 24.66 3.75181 24.2455C3.33724 23.831 3.12995 23.3474 3.12995 22.7946V6.21329C3.12995 5.66058 3.33724 5.17696 3.75181 4.76243C4.16638 4.34789 4.65004 4.14062 5.20281 4.14062H28.6952C29.2479 4.14062 29.7316 4.34789 30.1462 4.76243C30.5607 5.17696 30.768 5.66058 30.768 6.21329V22.7946C30.768 23.3474 30.5607 23.831 30.1462 24.2455C29.7316 24.66 29.2479 24.8673 28.6952 24.8673H5.20281ZM5.20281 22.7946H28.6952V6.21329H5.20281V22.7946Z" fill="#999999"/>
  <path d="M13.7604 20.4523V20.4525L13.7698 20.452C13.9805 20.4416 14.171 20.405 14.3373 20.3374C14.5031 20.2701 14.6472 20.1644 14.7094 19.999L18.0159 11.7695L20.2528 17.1217C20.3153 17.2862 20.4591 17.3916 20.6244 17.4587C20.7887 17.5254 20.9694 17.5627 21.1645 17.5733C21.3653 17.5841 21.5535 17.5573 21.7252 17.4875C21.8916 17.4199 22.0315 17.3195 22.1129 17.1727L22.1137 17.1711L23.929 13.8229L24.5484 14.751C24.6306 14.8825 24.7631 14.9725 24.9177 15.034C25.0777 15.0975 25.2576 15.1266 25.4534 15.1266H27.5794H27.7707V14.9353V14.0717V13.8804H27.5794H26.141L24.7641 11.7951C24.6807 11.6614 24.5456 11.5734 24.3889 11.5168C24.2307 11.4597 24.0528 11.4335 23.8589 11.4335C23.6628 11.4335 23.4802 11.4627 23.3138 11.5247C23.1455 11.5873 23.0033 11.6855 22.9209 11.8342C22.9209 11.8343 22.9209 11.8343 22.9208 11.8344L21.3074 14.7257L18.9622 9.00964C18.9017 8.83725 18.7603 8.72465 18.5893 8.65519C18.4194 8.58616 18.2255 8.55476 18.0124 8.55476C17.7976 8.55476 17.6018 8.58908 17.4304 8.66453C17.2612 8.73898 17.122 8.85387 17.0623 9.02469L13.6011 17.6124L11.7756 14.282L11.7751 14.2813C11.6927 14.1325 11.5506 14.0342 11.3822 13.9716C11.2158 13.9096 11.0332 13.8804 10.8371 13.8804H6.31934H6.128V14.0717V14.9353V15.1266H6.31934H10.1388L12.8217 20.0502L12.8223 20.0514C12.9047 20.2001 13.0469 20.2984 13.2152 20.3611C13.3817 20.423 13.5642 20.4523 13.7604 20.4523Z" fill="#999999" stroke="#999999" stroke-width="0.382664"/>
</g>
<g transform="translate(0,36)">
  <path d="M1.74805 29.0126V26.94H32.1499V29.0126H1.74805ZM5.20281 24.8673C4.65004 24.8673 4.16638 24.66 3.75181 24.2455C3.33724 23.831 3.12995 23.3474 3.12995 22.7946V6.21329C3.12995 5.66058 3.33724 5.17696 3.75181 4.76243C4.16638 4.34789 4.65004 4.14062 5.20281 4.14062H28.6952C29.2479 4.14062 29.7316 4.34789 30.1462 4.76243C30.5607 5.17696 30.768 5.66058 30.768 6.21329V22.7946C30.768 23.3474 30.5607 23.831 30.1462 24.2455C29.7316 24.66 29.2479 24.8673 28.6952 24.8673H5.20281ZM5.20281 22.7946H28.6952V6.21329H5.20281V22.7946Z" fill="#A1D103"/>
  <path d="M13.7604 20.4523V20.4525L13.7698 20.452C13.9805 20.4416 14.171 20.405 14.3373 20.3374C14.5031 20.2701 14.6472 20.1644 14.7094 19.999L18.0159 11.7695L20.2528 17.1217C20.3153 17.2862 20.4591 17.3916 20.6244 17.4587C20.7887 17.5254 20.9694 17.5627 21.1645 17.5733C21.3653 17.5841 21.5535 17.5573 21.7252 17.4875C21.8916 17.4199 22.0315 17.3195 22.1129 17.1727L22.1137 17.1711L23.929 13.8229L24.5484 14.751C24.6306 14.8825 24.7631 14.9725 24.9177 15.034C25.0777 15.0975 25.2576 15.1266 25.4534 15.1266H27.5794H27.7707V14.9353V14.0717V13.8804H27.5794H26.141L24.7641 11.7951C24.6807 11.6614 24.5456 11.5734 24.3889 11.5168C24.2307 11.4597 24.0528 11.4335 23.8589 11.4335C23.6628 11.4335 23.4802 11.4627 23.3138 11.5247C23.1455 11.5873 23.0033 11.6855 22.9209 11.8342C22.9209 11.8343 22.9209 11.8343 22.9208 11.8344L21.3074 14.7257L18.9622 9.00964C18.9017 8.83725 18.7603 8.72465 18.5893 8.65519C18.4194 8.58616 18.2255 8.55476 18.0124 8.55476C17.7976 8.55476 17.6018 8.58908 17.4304 8.66453C17.2612 8.73898 17.122 8.85387 17.0623 9.02469L13.6011 17.6124L11.7756 14.282L11.7751 14.2813C11.6927 14.1325 11.5506 14.0342 11.3822 13.9716C11.2158 13.9096 11.0332 13.8804 10.8371 13.8804H6.31934H6.128V14.0717V14.9353V15.1266H6.31934H10.1388L12.8217 20.0502L12.8223 20.0514C12.9047 20.2001 13.0469 20.2984 13.2152 20.3611C13.3817 20.423 13.5642 20.4523 13.7604 20.4523Z" fill="#A1D103" stroke="#A1D103" stroke-width="0.382664"/>
</g>
<g transform="translate(0,70)">
  <path d="M1.74805 29.0126V26.94H32.1499V29.0126H1.74805ZM5.20281 24.8673C4.65004 24.8673 4.16638 24.66 3.75181 24.2455C3.33724 23.831 3.12995 23.3474 3.12995 22.7946V6.21329C3.12995 5.66058 3.33724 5.17696 3.75181 4.76243C4.16638 4.34789 4.65004 4.14062 5.20281 4.14062H28.6952C29.2479 4.14062 29.7316 4.34789 30.1462 4.76243C30.5607 5.17696 30.768 5.66058 30.768 6.21329V22.7946C30.768 23.3474 30.5607 23.831 30.1462 24.2455C29.7316 24.66 29.2479 24.8673 28.6952 24.8673H5.20281ZM5.20281 22.7946H28.6952V6.21329H5.20281V22.7946Z" fill="#009cbd"/>
  <path d="M13.7604 20.4523V20.4525L13.7698 20.452C13.9805 20.4416 14.171 20.405 14.3373 20.3374C14.5031 20.2701 14.6472 20.1644 14.7094 19.999L18.0159 11.7695L20.2528 17.1217C20.3153 17.2862 20.4591 17.3916 20.6244 17.4587C20.7887 17.5254 20.9694 17.5627 21.1645 17.5733C21.3653 17.5841 21.5535 17.5573 21.7252 17.4875C21.8916 17.4199 22.0315 17.3195 22.1129 17.1727L22.1137 17.1711L23.929 13.8229L24.5484 14.751C24.6306 14.8825 24.7631 14.9725 24.9177 15.034C25.0777 15.0975 25.2576 15.1266 25.4534 15.1266H27.5794H27.7707V14.9353V14.0717V13.8804H27.5794H26.141L24.7641 11.7951C24.6807 11.6614 24.5456 11.5734 24.3889 11.5168C24.2307 11.4597 24.0528 11.4335 23.8589 11.4335C23.6628 11.4335 23.4802 11.4627 23.3138 11.5247C23.1455 11.5873 23.0033 11.6855 22.9209 11.8342C22.9209 11.8343 22.9209 11.8343 22.9208 11.8344L21.3074 14.7257L18.9622 9.00964C18.9017 8.83725 18.7603 8.72465 18.5893 8.65519C18.4194 8.58616 18.2255 8.55476 18.0124 8.55476C17.7976 8.55476 17.6018 8.58908 17.4304 8.66453C17.2612 8.73898 17.122 8.85387 17.0623 9.02469L13.6011 17.6124L11.7756 14.282L11.7751 14.2813C11.6927 14.1325 11.5506 14.0342 11.3822 13.9716C11.2158 13.9096 11.0332 13.8804 10.8371 13.8804H6.31934H6.128V14.0717V14.9353V15.1266H6.31934H10.1388L12.8217 20.0502L12.8223 20.0514C12.9047 20.2001 13.0469 20.2984 13.2152 20.3611C13.3817 20.423 13.5642 20.4523 13.7604 20.4523Z" fill="#a6daef" stroke="#009cbd" stroke-width="0.382664"/>
</g>
</svg>
