<svg width="35" height="105" viewBox="0 0 35 105" fill="none" xmlns="http://www.w3.org/2000/svg">
<g transform="translate(0,0)">
  <path d="M7.0875 29.0106C6.51747 29.0106 6.02948 28.8076 5.62355 28.4017C5.21762 27.9958 5.01465 27.5079 5.01465 26.9379V6.21123C5.01465 5.64124 5.21762 5.1533 5.62355 4.7474C6.02948 4.34151 6.51747 4.13856 7.0875 4.13856H14.1698C14.2849 3.33252 14.6534 2.67042 15.2753 2.15225C15.8971 1.63408 16.6226 1.375 17.4518 1.375C18.2809 1.375 19.0064 1.63408 19.6283 2.15225C20.2501 2.67042 20.6186 3.33252 20.7338 4.13856H27.8161C28.3861 4.13856 28.8741 4.34151 29.28 4.7474C29.6859 5.1533 29.8889 5.64124 29.8889 6.21123V26.9379C29.8889 27.5079 29.6859 27.9958 29.28 28.4017C28.8741 28.8076 28.3861 29.0106 27.8161 29.0106H7.0875ZM7.0875 26.9379H27.8161V6.21123H7.0875V26.9379ZM17.4518 5.62397C17.7742 5.62397 18.0564 5.50306 18.2982 5.26125C18.54 5.01944 18.6609 4.73733 18.6609 4.41491C18.6609 4.0925 18.54 3.81039 18.2982 3.56857C18.0564 3.32676 17.7742 3.20586 17.4518 3.20586C17.1293 3.20586 16.8472 3.32676 16.6054 3.56857C16.3635 3.81039 16.2426 4.0925 16.2426 4.41491C16.2426 4.73733 16.3635 5.01944 16.6054 5.26125C16.8472 5.50306 17.1293 5.62397 17.4518 5.62397Z" fill="#999999"/>
  <path d="M13.8811 21.1071C13.8874 21.1064 13.8935 21.1058 13.8994 21.1052C13.8988 21.1111 13.8981 21.1171 13.8974 21.1234C13.8829 21.2546 13.8749 21.3654 13.8749 21.4533C13.8749 22.011 14.0636 22.4864 14.4431 22.8659C14.8227 23.2455 15.2992 23.434 15.8587 23.434C16.4181 23.434 16.8946 23.2455 17.2742 22.8659C17.6539 22.4863 17.8424 22.0098 17.8424 21.4504C17.8424 21.0864 17.7767 20.7635 17.6366 20.4887C17.5477 20.3143 17.4584 20.1641 17.368 20.0411L19.9441 17.4652C20.0648 17.5499 20.2127 17.6378 20.3853 17.7292C20.6607 17.875 20.9847 17.9434 21.3497 17.9434C21.9091 17.9434 22.3856 17.7549 22.7653 17.3753C23.1449 16.9957 23.3334 16.5193 23.3334 15.9598C23.3334 15.4004 23.1449 14.924 22.7653 14.5444C22.3858 14.1649 21.9103 13.9763 21.3526 13.9763C21.2647 13.9763 21.1539 13.9842 21.0227 13.9988C21.0164 13.9995 21.0103 14.0001 21.0045 14.0007C21.0051 13.9949 21.0057 13.9888 21.0064 13.9825C21.021 13.8513 21.0289 13.7405 21.0289 13.6526C21.0289 13.0949 20.8402 12.6195 20.4607 12.2401C20.0811 11.8604 19.6046 11.6719 19.0452 11.6719C18.4857 11.6719 18.0092 11.8604 17.6296 12.2401C17.2499 12.6197 17.0614 13.0961 17.0614 13.6555C17.0614 14.0205 17.1299 14.3444 17.2757 14.6198C17.3671 14.7924 17.455 14.9403 17.5397 15.061L14.9636 17.6369C14.8405 17.5465 14.6903 17.4572 14.5159 17.3683C14.2411 17.2282 13.9181 17.1625 13.5541 17.1625C12.9947 17.1625 12.5182 17.351 12.1386 17.7306C11.7589 18.1102 11.5704 18.5867 11.5704 19.1461C11.5704 19.7055 11.7589 20.1819 12.1386 20.5615C12.518 20.941 12.9935 21.1297 13.5512 21.1297C13.6391 21.1297 13.75 21.1217 13.8811 21.1071ZM16.2522 20.6341L16.2522 20.6341L16.2562 20.6387C16.3203 20.7108 16.3984 20.8221 16.4904 20.9784C16.5652 21.1057 16.6062 21.2607 16.6062 21.4504C16.6062 21.6801 16.5341 21.8509 16.3988 21.9811C16.2609 22.1138 16.0859 22.1836 15.8587 22.1836C15.6314 22.1836 15.4564 22.1138 15.3185 21.9811C15.1832 21.8509 15.1111 21.6801 15.1111 21.4504C15.1111 21.1991 15.1014 20.9701 15.0818 20.7637C15.0597 20.5314 14.9798 20.3295 14.8275 20.1772C14.6751 20.0249 14.4732 19.945 14.2409 19.9228C14.0345 19.9032 13.8054 19.8935 13.5541 19.8935C13.3244 19.8935 13.1536 19.8215 13.0234 19.6862C12.8906 19.5483 12.8208 19.3733 12.8208 19.1461C12.8208 18.9188 12.8906 18.7439 13.0234 18.606C13.1536 18.4707 13.3244 18.3986 13.5541 18.3986C13.7439 18.3986 13.8989 18.4396 14.0261 18.5144C14.1825 18.6064 14.2938 18.6845 14.3659 18.7486L14.3658 18.7487L14.3714 18.7533C14.5722 18.9186 14.8073 18.9891 15.0651 18.9601L15.0651 18.9601C15.3187 18.9315 15.5398 18.8164 15.7247 18.626L18.5403 15.8107C18.7266 15.6244 18.8426 15.4087 18.8723 15.1651C18.9033 14.911 18.8226 14.6771 18.6516 14.4718L18.6517 14.4718L18.6476 14.4672C18.5835 14.3951 18.5054 14.2838 18.4135 14.1275C18.3386 14.0003 18.2976 13.8453 18.2976 13.6555C18.2976 13.4305 18.3692 13.2564 18.5076 13.118C18.6459 12.9797 18.8201 12.9081 19.0452 12.9081C19.2702 12.9081 19.4444 12.9797 19.5827 13.118C19.7211 13.2564 19.7927 13.4305 19.7927 13.6555C19.7927 13.9068 19.8024 14.1358 19.822 14.3422C19.8442 14.5746 19.9241 14.7765 20.0764 14.9288C20.2287 15.0811 20.4306 15.1609 20.663 15.1831C20.8693 15.2027 21.0984 15.2124 21.3497 15.2124C21.5747 15.2124 21.7489 15.284 21.8873 15.4223C22.0256 15.5607 22.0972 15.7348 22.0972 15.9598C22.0972 16.1849 22.0256 16.359 21.8873 16.4974C21.7489 16.6357 21.5747 16.7073 21.3497 16.7073C21.1599 16.7073 21.0049 16.6663 20.8777 16.5915C20.7213 16.4995 20.61 16.4214 20.5379 16.3574L20.538 16.3573L20.5324 16.3527C20.3316 16.1873 20.0965 16.1168 19.8387 16.1459L19.8387 16.1459C19.5851 16.1744 19.364 16.2895 19.1791 16.4799L16.3635 19.2953C16.1772 19.4815 16.0612 19.6972 16.0315 19.9408C16.0005 20.1949 16.0812 20.4288 16.2522 20.6341Z" fill="#999999" stroke="#999999" stroke-width="0.382664"/>
</g>
<g transform="translate(0,36)">
  <path d="M7.0875 29.0106C6.51747 29.0106 6.02948 28.8076 5.62355 28.4017C5.21762 27.9958 5.01465 27.5079 5.01465 26.9379V6.21123C5.01465 5.64124 5.21762 5.1533 5.62355 4.7474C6.02948 4.34151 6.51747 4.13856 7.0875 4.13856H14.1698C14.2849 3.33252 14.6534 2.67042 15.2753 2.15225C15.8971 1.63408 16.6226 1.375 17.4518 1.375C18.2809 1.375 19.0064 1.63408 19.6283 2.15225C20.2501 2.67042 20.6186 3.33252 20.7338 4.13856H27.8161C28.3861 4.13856 28.8741 4.34151 29.28 4.7474C29.6859 5.1533 29.8889 5.64124 29.8889 6.21123V26.9379C29.8889 27.5079 29.6859 27.9958 29.28 28.4017C28.8741 28.8076 28.3861 29.0106 27.8161 29.0106H7.0875ZM7.0875 26.9379H27.8161V6.21123H7.0875V26.9379ZM17.4518 5.62397C17.7742 5.62397 18.0564 5.50306 18.2982 5.26125C18.54 5.01944 18.6609 4.73733 18.6609 4.41491C18.6609 4.0925 18.54 3.81039 18.2982 3.56857C18.0564 3.32676 17.7742 3.20586 17.4518 3.20586C17.1293 3.20586 16.8472 3.32676 16.6054 3.56857C16.3635 3.81039 16.2426 4.0925 16.2426 4.41491C16.2426 4.73733 16.3635 5.01944 16.6054 5.26125C16.8472 5.50306 17.1293 5.62397 17.4518 5.62397Z" fill="#A1D103"/>
  <path d="M13.8811 21.1071C13.8874 21.1064 13.8935 21.1058 13.8994 21.1052C13.8988 21.1111 13.8981 21.1171 13.8974 21.1234C13.8829 21.2546 13.8749 21.3654 13.8749 21.4533C13.8749 22.011 14.0636 22.4864 14.4431 22.8659C14.8227 23.2455 15.2992 23.434 15.8587 23.434C16.4181 23.434 16.8946 23.2455 17.2742 22.8659C17.6539 22.4863 17.8424 22.0098 17.8424 21.4504C17.8424 21.0864 17.7767 20.7635 17.6366 20.4887C17.5477 20.3143 17.4584 20.1641 17.368 20.0411L19.9441 17.4652C20.0648 17.5499 20.2127 17.6378 20.3853 17.7292C20.6607 17.875 20.9847 17.9434 21.3497 17.9434C21.9091 17.9434 22.3856 17.7549 22.7653 17.3753C23.1449 16.9957 23.3334 16.5193 23.3334 15.9598C23.3334 15.4004 23.1449 14.924 22.7653 14.5444C22.3858 14.1649 21.9103 13.9763 21.3526 13.9763C21.2647 13.9763 21.1539 13.9842 21.0227 13.9988C21.0164 13.9995 21.0103 14.0001 21.0045 14.0007C21.0051 13.9949 21.0057 13.9888 21.0064 13.9825C21.021 13.8513 21.0289 13.7405 21.0289 13.6526C21.0289 13.0949 20.8402 12.6195 20.4607 12.2401C20.0811 11.8604 19.6046 11.6719 19.0452 11.6719C18.4857 11.6719 18.0092 11.8604 17.6296 12.2401C17.2499 12.6197 17.0614 13.0961 17.0614 13.6555C17.0614 14.0205 17.1299 14.3444 17.2757 14.6198C17.3671 14.7924 17.455 14.9403 17.5397 15.061L14.9636 17.6369C14.8405 17.5465 14.6903 17.4572 14.5159 17.3683C14.2411 17.2282 13.9181 17.1625 13.5541 17.1625C12.9947 17.1625 12.5182 17.351 12.1386 17.7306C11.7589 18.1102 11.5704 18.5867 11.5704 19.1461C11.5704 19.7055 11.7589 20.1819 12.1386 20.5615C12.518 20.941 12.9935 21.1297 13.5512 21.1297C13.6391 21.1297 13.75 21.1217 13.8811 21.1071ZM16.2522 20.6341L16.2522 20.6341L16.2562 20.6387C16.3203 20.7108 16.3984 20.8221 16.4904 20.9784C16.5652 21.1057 16.6062 21.2607 16.6062 21.4504C16.6062 21.6801 16.5341 21.8509 16.3988 21.9811C16.2609 22.1138 16.0859 22.1836 15.8587 22.1836C15.6314 22.1836 15.4564 22.1138 15.3185 21.9811C15.1832 21.8509 15.1111 21.6801 15.1111 21.4504C15.1111 21.1991 15.1014 20.9701 15.0818 20.7637C15.0597 20.5314 14.9798 20.3295 14.8275 20.1772C14.6751 20.0249 14.4732 19.945 14.2409 19.9228C14.0345 19.9032 13.8054 19.8935 13.5541 19.8935C13.3244 19.8935 13.1536 19.8215 13.0234 19.6862C12.8906 19.5483 12.8208 19.3733 12.8208 19.1461C12.8208 18.9188 12.8906 18.7439 13.0234 18.606C13.1536 18.4707 13.3244 18.3986 13.5541 18.3986C13.7439 18.3986 13.8989 18.4396 14.0261 18.5144C14.1825 18.6064 14.2938 18.6845 14.3659 18.7486L14.3658 18.7487L14.3714 18.7533C14.5722 18.9186 14.8073 18.9891 15.0651 18.9601L15.0651 18.9601C15.3187 18.9315 15.5398 18.8164 15.7247 18.626L18.5403 15.8107C18.7266 15.6244 18.8426 15.4087 18.8723 15.1651C18.9033 14.911 18.8226 14.6771 18.6516 14.4718L18.6517 14.4718L18.6476 14.4672C18.5835 14.3951 18.5054 14.2838 18.4135 14.1275C18.3386 14.0003 18.2976 13.8453 18.2976 13.6555C18.2976 13.4305 18.3692 13.2564 18.5076 13.118C18.6459 12.9797 18.8201 12.9081 19.0452 12.9081C19.2702 12.9081 19.4444 12.9797 19.5827 13.118C19.7211 13.2564 19.7927 13.4305 19.7927 13.6555C19.7927 13.9068 19.8024 14.1358 19.822 14.3422C19.8442 14.5746 19.9241 14.7765 20.0764 14.9288C20.2287 15.0811 20.4306 15.1609 20.663 15.1831C20.8693 15.2027 21.0984 15.2124 21.3497 15.2124C21.5747 15.2124 21.7489 15.284 21.8873 15.4223C22.0256 15.5607 22.0972 15.7348 22.0972 15.9598C22.0972 16.1849 22.0256 16.359 21.8873 16.4974C21.7489 16.6357 21.5747 16.7073 21.3497 16.7073C21.1599 16.7073 21.0049 16.6663 20.8777 16.5915C20.7213 16.4995 20.61 16.4214 20.5379 16.3574L20.538 16.3573L20.5324 16.3527C20.3316 16.1873 20.0965 16.1168 19.8387 16.1459L19.8387 16.1459C19.5851 16.1744 19.364 16.2895 19.1791 16.4799L16.3635 19.2953C16.1772 19.4815 16.0612 19.6972 16.0315 19.9408C16.0005 20.1949 16.0812 20.4288 16.2522 20.6341Z" fill="#A1D103" stroke="#A1D103" stroke-width="0.382664"/>
</g>
<g transform="translate(0,70)">
  <path d="M7.0875 29.0106C6.51747 29.0106 6.02948 28.8076 5.62355 28.4017C5.21762 27.9958 5.01465 27.5079 5.01465 26.9379V6.21123C5.01465 5.64124 5.21762 5.1533 5.62355 4.7474C6.02948 4.34151 6.51747 4.13856 7.0875 4.13856H14.1698C14.2849 3.33252 14.6534 2.67042 15.2753 2.15225C15.8971 1.63408 16.6226 1.375 17.4518 1.375C18.2809 1.375 19.0064 1.63408 19.6283 2.15225C20.2501 2.67042 20.6186 3.33252 20.7338 4.13856H27.8161C28.3861 4.13856 28.8741 4.34151 29.28 4.7474C29.6859 5.1533 29.8889 5.64124 29.8889 6.21123V26.9379C29.8889 27.5079 29.6859 27.9958 29.28 28.4017C28.8741 28.8076 28.3861 29.0106 27.8161 29.0106H7.0875ZM7.0875 26.9379H27.8161V6.21123H7.0875V26.9379ZM17.4518 5.62397C17.7742 5.62397 18.0564 5.50306 18.2982 5.26125C18.54 5.01944 18.6609 4.73733 18.6609 4.41491C18.6609 4.0925 18.54 3.81039 18.2982 3.56857C18.0564 3.32676 17.7742 3.20586 17.4518 3.20586C17.1293 3.20586 16.8472 3.32676 16.6054 3.56857C16.3635 3.81039 16.2426 4.0925 16.2426 4.41491C16.2426 4.73733 16.3635 5.01944 16.6054 5.26125C16.8472 5.50306 17.1293 5.62397 17.4518 5.62397Z" fill="#a6daef"/>
  <path d="M13.8811 21.1071C13.8874 21.1064 13.8935 21.1058 13.8994 21.1052C13.8988 21.1111 13.8981 21.1171 13.8974 21.1234C13.8829 21.2546 13.8749 21.3654 13.8749 21.4533C13.8749 22.011 14.0636 22.4864 14.4431 22.8659C14.8227 23.2455 15.2992 23.434 15.8587 23.434C16.4181 23.434 16.8946 23.2455 17.2742 22.8659C17.6539 22.4863 17.8424 22.0098 17.8424 21.4504C17.8424 21.0864 17.7767 20.7635 17.6366 20.4887C17.5477 20.3143 17.4584 20.1641 17.368 20.0411L19.9441 17.4652C20.0648 17.5499 20.2127 17.6378 20.3853 17.7292C20.6607 17.875 20.9847 17.9434 21.3497 17.9434C21.9091 17.9434 22.3856 17.7549 22.7653 17.3753C23.1449 16.9957 23.3334 16.5193 23.3334 15.9598C23.3334 15.4004 23.1449 14.924 22.7653 14.5444C22.3858 14.1649 21.9103 13.9763 21.3526 13.9763C21.2647 13.9763 21.1539 13.9842 21.0227 13.9988C21.0164 13.9995 21.0103 14.0001 21.0045 14.0007C21.0051 13.9949 21.0057 13.9888 21.0064 13.9825C21.021 13.8513 21.0289 13.7405 21.0289 13.6526C21.0289 13.0949 20.8402 12.6195 20.4607 12.2401C20.0811 11.8604 19.6046 11.6719 19.0452 11.6719C18.4857 11.6719 18.0092 11.8604 17.6296 12.2401C17.2499 12.6197 17.0614 13.0961 17.0614 13.6555C17.0614 14.0205 17.1299 14.3444 17.2757 14.6198C17.3671 14.7924 17.455 14.9403 17.5397 15.061L14.9636 17.6369C14.8405 17.5465 14.6903 17.4572 14.5159 17.3683C14.2411 17.2282 13.9181 17.1625 13.5541 17.1625C12.9947 17.1625 12.5182 17.351 12.1386 17.7306C11.7589 18.1102 11.5704 18.5867 11.5704 19.1461C11.5704 19.7055 11.7589 20.1819 12.1386 20.5615C12.518 20.941 12.9935 21.1297 13.5512 21.1297C13.6391 21.1297 13.75 21.1217 13.8811 21.1071ZM16.2522 20.6341L16.2522 20.6341L16.2562 20.6387C16.3203 20.7108 16.3984 20.8221 16.4904 20.9784C16.5652 21.1057 16.6062 21.2607 16.6062 21.4504C16.6062 21.6801 16.5341 21.8509 16.3988 21.9811C16.2609 22.1138 16.0859 22.1836 15.8587 22.1836C15.6314 22.1836 15.4564 22.1138 15.3185 21.9811C15.1832 21.8509 15.1111 21.6801 15.1111 21.4504C15.1111 21.1991 15.1014 20.9701 15.0818 20.7637C15.0597 20.5314 14.9798 20.3295 14.8275 20.1772C14.6751 20.0249 14.4732 19.945 14.2409 19.9228C14.0345 19.9032 13.8054 19.8935 13.5541 19.8935C13.3244 19.8935 13.1536 19.8215 13.0234 19.6862C12.8906 19.5483 12.8208 19.3733 12.8208 19.1461C12.8208 18.9188 12.8906 18.7439 13.0234 18.606C13.1536 18.4707 13.3244 18.3986 13.5541 18.3986C13.7439 18.3986 13.8989 18.4396 14.0261 18.5144C14.1825 18.6064 14.2938 18.6845 14.3659 18.7486L14.3658 18.7487L14.3714 18.7533C14.5722 18.9186 14.8073 18.9891 15.0651 18.9601L15.0651 18.9601C15.3187 18.9315 15.5398 18.8164 15.7247 18.626L18.5403 15.8107C18.7266 15.6244 18.8426 15.4087 18.8723 15.1651C18.9033 14.911 18.8226 14.6771 18.6516 14.4718L18.6517 14.4718L18.6476 14.4672C18.5835 14.3951 18.5054 14.2838 18.4135 14.1275C18.3386 14.0003 18.2976 13.8453 18.2976 13.6555C18.2976 13.4305 18.3692 13.2564 18.5076 13.118C18.6459 12.9797 18.8201 12.9081 19.0452 12.9081C19.2702 12.9081 19.4444 12.9797 19.5827 13.118C19.7211 13.2564 19.7927 13.4305 19.7927 13.6555C19.7927 13.9068 19.8024 14.1358 19.822 14.3422C19.8442 14.5746 19.9241 14.7765 20.0764 14.9288C20.2287 15.0811 20.4306 15.1609 20.663 15.1831C20.8693 15.2027 21.0984 15.2124 21.3497 15.2124C21.5747 15.2124 21.7489 15.284 21.8873 15.4223C22.0256 15.5607 22.0972 15.7348 22.0972 15.9598C22.0972 16.1849 22.0256 16.359 21.8873 16.4974C21.7489 16.6357 21.5747 16.7073 21.3497 16.7073C21.1599 16.7073 21.0049 16.6663 20.8777 16.5915C20.7213 16.4995 20.61 16.4214 20.5379 16.3574L20.538 16.3573L20.5324 16.3527C20.3316 16.1873 20.0965 16.1168 19.8387 16.1459L19.8387 16.1459C19.5851 16.1744 19.364 16.2895 19.1791 16.4799L16.3635 19.2953C16.1772 19.4815 16.0612 19.6972 16.0315 19.9408C16.0005 20.1949 16.0812 20.4288 16.2522 20.6341Z" fill="#a6daef" stroke="#a6daef" stroke-width="0.382664"/>
</g>
</svg>
