<svg width="20" height="125" viewBox="0 0 20 125" fill="none" xmlns="http://www.w3.org/2000/svg">
<g clip-path="url(#clip0_1308_27791)" transform="translate(0,0)">
<path fill-rule="evenodd" clip-rule="evenodd" d="M0.666504 4.00065C0.666504 2.52789 1.86041 1.33398 3.33317 1.33398H16.6665C18.1393 1.33398 19.3332 2.52789 19.3332 4.00065V9.33398H16.6665V8.00065H3.33317V9.33398H9.99984V11.334H5.99984V12.6673H9.99984V16.0007H9.33317L5.33317 20.0007V16.0007H3.33317C1.86041 16.0007 0.666504 14.8067 0.666504 13.334V4.00065ZM5.99984 4.66732H13.9998V6.00065H5.99984V4.66732ZM15.3332 11.334H11.9998V19.334H15.3332V18.0007H13.3332V16.6673H15.3332V15.334H13.3332V12.6673H15.3332V11.334ZM18.9426 11.334H15.9998V19.334H17.3332V16.6673H17.9211L18.6665 18.158V19.334H19.9998V17.8433L19.2555 16.3545L19.9998 15.6101V12.3912L18.9426 11.334ZM18.3904 15.334H17.3332V12.6673H18.3904L18.6665 12.9435V15.0578L18.3904 15.334Z" fill="#999999"/>
</g>
<g clip-path="url(#clip0_1308_27791)" transform="translate(0,25)">
<path fill-rule="evenodd" clip-rule="evenodd" d="M0.666504 4.00065C0.666504 2.52789 1.86041 1.33398 3.33317 1.33398H16.6665C18.1393 1.33398 19.3332 2.52789 19.3332 4.00065V9.33398H16.6665V8.00065H3.33317V9.33398H9.99984V11.334H5.99984V12.6673H9.99984V16.0007H9.33317L5.33317 20.0007V16.0007H3.33317C1.86041 16.0007 0.666504 14.8067 0.666504 13.334V4.00065ZM5.99984 4.66732H13.9998V6.00065H5.99984V4.66732ZM15.3332 11.334H11.9998V19.334H15.3332V18.0007H13.3332V16.6673H15.3332V15.334H13.3332V12.6673H15.3332V11.334ZM18.9426 11.334H15.9998V19.334H17.3332V16.6673H17.9211L18.6665 18.158V19.334H19.9998V17.8433L19.2555 16.3545L19.9998 15.6101V12.3912L18.9426 11.334ZM18.3904 15.334H17.3332V12.6673H18.3904L18.6665 12.9435V15.0578L18.3904 15.334Z" fill="#A1D103"/>
</g>
<g clip-path="url(#clip0_1308_27791)" transform="translate(0,50)">
<path fill-rule="evenodd" clip-rule="evenodd" d="M0.666504 4.00065C0.666504 2.52789 1.86041 1.33398 3.33317 1.33398H16.6665C18.1393 1.33398 19.3332 2.52789 19.3332 4.00065V9.33398H16.6665V8.00065H3.33317V9.33398H9.99984V11.334H5.99984V12.6673H9.99984V16.0007H9.33317L5.33317 20.0007V16.0007H3.33317C1.86041 16.0007 0.666504 14.8067 0.666504 13.334V4.00065ZM5.99984 4.66732H13.9998V6.00065H5.99984V4.66732ZM15.3332 11.334H11.9998V19.334H15.3332V18.0007H13.3332V16.6673H15.3332V15.334H13.3332V12.6673H15.3332V11.334ZM18.9426 11.334H15.9998V19.334H17.3332V16.6673H17.9211L18.6665 18.158V19.334H19.9998V17.8433L19.2555 16.3545L19.9998 15.6101V12.3912L18.9426 11.334ZM18.3904 15.334H17.3332V12.6673H18.3904L18.6665 12.9435V15.0578L18.3904 15.334Z" fill="#6B8E23"/>
</g>
<g clip-path="url(#clip0_1308_27791)" transform="translate(0,75)">
<path fill-rule="evenodd" clip-rule="evenodd" d="M0.666504 4.00065C0.666504 2.52789 1.86041 1.33398 3.33317 1.33398H16.6665C18.1393 1.33398 19.3332 2.52789 19.3332 4.00065V9.33398H16.6665V8.00065H3.33317V9.33398H9.99984V11.334H5.99984V12.6673H9.99984V16.0007H9.33317L5.33317 20.0007V16.0007H3.33317C1.86041 16.0007 0.666504 14.8067 0.666504 13.334V4.00065ZM5.99984 4.66732H13.9998V6.00065H5.99984V4.66732ZM15.3332 11.334H11.9998V19.334H15.3332V18.0007H13.3332V16.6673H15.3332V15.334H13.3332V12.6673H15.3332V11.334ZM18.9426 11.334H15.9998V19.334H17.3332V16.6673H17.9211L18.6665 18.158V19.334H19.9998V17.8433L19.2555 16.3545L19.9998 15.6101V12.3912L18.9426 11.334ZM18.3904 15.334H17.3332V12.6673H18.3904L18.6665 12.9435V15.0578L18.3904 15.334Z" fill="#a6daef"/>
</g>
<g clip-path="url(#clip0_1308_27791)" transform="translate(0,100)">
<path fill-rule="evenodd" clip-rule="evenodd" d="M0.666504 4.00065C0.666504 2.52789 1.86041 1.33398 3.33317 1.33398H16.6665C18.1393 1.33398 19.3332 2.52789 19.3332 4.00065V9.33398H16.6665V8.00065H3.33317V9.33398H9.99984V11.334H5.99984V12.6673H9.99984V16.0007H9.33317L5.33317 20.0007V16.0007H3.33317C1.86041 16.0007 0.666504 14.8067 0.666504 13.334V4.00065ZM5.99984 4.66732H13.9998V6.00065H5.99984V4.66732ZM15.3332 11.334H11.9998V19.334H15.3332V18.0007H13.3332V16.6673H15.3332V15.334H13.3332V12.6673H15.3332V11.334ZM18.9426 11.334H15.9998V19.334H17.3332V16.6673H17.9211L18.6665 18.158V19.334H19.9998V17.8433L19.2555 16.3545L19.9998 15.6101V12.3912L18.9426 11.334ZM18.3904 15.334H17.3332V12.6673H18.3904L18.6665 12.9435V15.0578L18.3904 15.334Z" fill="#a4c9ed"/>
</g>
<defs>
<clipPath id="clip0_1308_27791">
<rect width="20" height="20" fill="white"/>
</clipPath>
</defs>
</svg>
