<svg width="34" height="105" viewBox="0 0 34 105" fill="none" xmlns="http://www.w3.org/2000/svg">
<g transform="translate(0,0)">
  <path d="M6.24272 29.8548C5.67283 29.8548 5.18498 29.6519 4.77915 29.2461C4.37332 28.8403 4.17041 28.3525 4.17041 27.7827V7.06151C4.17041 6.49167 4.37332 6.00386 4.77915 5.59807C5.18498 5.19228 5.67283 4.98939 6.24272 4.98939H13.3231C13.4382 4.18356 13.8066 3.52164 14.4283 3.00361C15.05 2.48558 15.7753 2.22656 16.6042 2.22656C17.4332 2.22656 18.1585 2.48558 18.7802 3.00361C19.4019 3.52164 19.7703 4.18356 19.8854 4.98939H26.9658C27.5357 4.98939 28.0235 5.19228 28.4293 5.59807C28.8352 6.00386 29.0381 6.49167 29.0381 7.06151V18.4236C28.7157 18.2394 28.3761 18.0898 28.0192 17.9747C27.6623 17.8596 27.3112 17.7675 26.9658 17.6984V7.06151H6.24272V27.7827H16.9151C17.0072 28.1511 17.1111 28.5099 17.2267 28.8592C17.3424 29.2086 17.4803 29.5404 17.6404 29.8548H6.24272ZM6.24272 26.1595V27.7827V7.06151V17.6984V17.5602V26.1595ZM9.69656 24.3292H16.9842C17.0763 23.9608 17.1799 23.6039 17.295 23.2586C17.4101 22.9132 17.5598 22.5794 17.744 22.257H9.69656V24.3292ZM9.69656 18.4582H21.5778C21.9001 18.297 22.211 18.1646 22.5103 18.061C22.8097 17.9574 23.1435 17.8596 23.5119 17.7675V16.386H9.69656V18.4582ZM9.69656 12.5872H23.5119V10.515H9.69656V12.5872ZM16.6042 6.47441C16.9266 6.47441 17.2087 6.35353 17.4504 6.11179C17.6922 5.87004 17.8131 5.588 17.8131 5.26567C17.8131 4.94334 17.6922 4.6613 17.4504 4.41956C17.2087 4.17781 16.9266 4.05693 16.6042 4.05693C16.2819 4.05693 15.9998 4.17781 15.7581 4.41956C15.5163 4.6613 15.3954 4.94334 15.3954 5.26567C15.3954 5.588 15.5163 5.87004 15.7581 6.11179C15.9998 6.35353 16.2819 6.47441 16.6042 6.47441ZM25.3252 32.5831C23.5407 32.5831 22.0153 31.9442 20.7489 30.6664C19.4825 29.3886 18.8492 27.8748 18.8492 26.125C18.8492 24.3192 19.4823 22.7798 20.7485 21.507C22.0147 20.2342 23.546 19.5978 25.3425 19.5978C27.1154 19.5978 28.6409 20.2342 29.9188 21.507C31.1967 22.7798 31.8357 24.3192 31.8357 26.125C31.8357 27.8748 31.1967 29.3886 29.9188 30.6664C28.6409 31.9442 27.1097 32.5831 25.3252 32.5831ZM24.8244 30.511H25.9642V26.7121H29.7634V25.5724H25.9642V21.7736H24.8244V25.5724H21.0252V26.7121H24.8244V30.511Z" fill="#999999"/>
</g>
<g transform="translate(0,36)">
  <path d="M6.24272 29.8548C5.67283 29.8548 5.18498 29.6519 4.77915 29.2461C4.37332 28.8403 4.17041 28.3525 4.17041 27.7827V7.06151C4.17041 6.49167 4.37332 6.00386 4.77915 5.59807C5.18498 5.19228 5.67283 4.98939 6.24272 4.98939H13.3231C13.4382 4.18356 13.8066 3.52164 14.4283 3.00361C15.05 2.48558 15.7753 2.22656 16.6042 2.22656C17.4332 2.22656 18.1585 2.48558 18.7802 3.00361C19.4019 3.52164 19.7703 4.18356 19.8854 4.98939H26.9658C27.5357 4.98939 28.0235 5.19228 28.4293 5.59807C28.8352 6.00386 29.0381 6.49167 29.0381 7.06151V18.4236C28.7157 18.2394 28.3761 18.0898 28.0192 17.9747C27.6623 17.8596 27.3112 17.7675 26.9658 17.6984V7.06151H6.24272V27.7827H16.9151C17.0072 28.1511 17.1111 28.5099 17.2267 28.8592C17.3424 29.2086 17.4803 29.5404 17.6404 29.8548H6.24272ZM6.24272 26.1595V27.7827V7.06151V17.6984V17.5602V26.1595ZM9.69656 24.3292H16.9842C17.0763 23.9608 17.1799 23.6039 17.295 23.2586C17.4101 22.9132 17.5598 22.5794 17.744 22.257H9.69656V24.3292ZM9.69656 18.4582H21.5778C21.9001 18.297 22.211 18.1646 22.5103 18.061C22.8097 17.9574 23.1435 17.8596 23.5119 17.7675V16.386H9.69656V18.4582ZM9.69656 12.5872H23.5119V10.515H9.69656V12.5872ZM16.6042 6.47441C16.9266 6.47441 17.2087 6.35353 17.4504 6.11179C17.6922 5.87004 17.8131 5.588 17.8131 5.26567C17.8131 4.94334 17.6922 4.6613 17.4504 4.41956C17.2087 4.17781 16.9266 4.05693 16.6042 4.05693C16.2819 4.05693 15.9998 4.17781 15.7581 4.41956C15.5163 4.6613 15.3954 4.94334 15.3954 5.26567C15.3954 5.588 15.5163 5.87004 15.7581 6.11179C15.9998 6.35353 16.2819 6.47441 16.6042 6.47441ZM25.3252 32.5831C23.5407 32.5831 22.0153 31.9442 20.7489 30.6664C19.4825 29.3886 18.8492 27.8748 18.8492 26.125C18.8492 24.3192 19.4823 22.7798 20.7485 21.507C22.0147 20.2342 23.546 19.5978 25.3425 19.5978C27.1154 19.5978 28.6409 20.2342 29.9188 21.507C31.1967 22.7798 31.8357 24.3192 31.8357 26.125C31.8357 27.8748 31.1967 29.3886 29.9188 30.6664C28.6409 31.9442 27.1097 32.5831 25.3252 32.5831ZM24.8244 30.511H25.9642V26.7121H29.7634V25.5724H25.9642V21.7736H24.8244V25.5724H21.0252V26.7121H24.8244V30.511Z" fill="#A1D103"/>
</g>
<g transform="translate(0,70)">
  <path d="M6.24272 29.8548C5.67283 29.8548 5.18498 29.6519 4.77915 29.2461C4.37332 28.8403 4.17041 28.3525 4.17041 27.7827V7.06151C4.17041 6.49167 4.37332 6.00386 4.77915 5.59807C5.18498 5.19228 5.67283 4.98939 6.24272 4.98939H13.3231C13.4382 4.18356 13.8066 3.52164 14.4283 3.00361C15.05 2.48558 15.7753 2.22656 16.6042 2.22656C17.4332 2.22656 18.1585 2.48558 18.7802 3.00361C19.4019 3.52164 19.7703 4.18356 19.8854 4.98939H26.9658C27.5357 4.98939 28.0235 5.19228 28.4293 5.59807C28.8352 6.00386 29.0381 6.49167 29.0381 7.06151V18.4236C28.7157 18.2394 28.3761 18.0898 28.0192 17.9747C27.6623 17.8596 27.3112 17.7675 26.9658 17.6984V7.06151H6.24272V27.7827H16.9151C17.0072 28.1511 17.1111 28.5099 17.2267 28.8592C17.3424 29.2086 17.4803 29.5404 17.6404 29.8548H6.24272ZM6.24272 26.1595V27.7827V7.06151V17.6984V17.5602V26.1595ZM9.69656 24.3292H16.9842C17.0763 23.9608 17.1799 23.6039 17.295 23.2586C17.4101 22.9132 17.5598 22.5794 17.744 22.257H9.69656V24.3292ZM9.69656 18.4582H21.5778C21.9001 18.297 22.211 18.1646 22.5103 18.061C22.8097 17.9574 23.1435 17.8596 23.5119 17.7675V16.386H9.69656V18.4582ZM9.69656 12.5872H23.5119V10.515H9.69656V12.5872ZM16.6042 6.47441C16.9266 6.47441 17.2087 6.35353 17.4504 6.11179C17.6922 5.87004 17.8131 5.588 17.8131 5.26567C17.8131 4.94334 17.6922 4.6613 17.4504 4.41956C17.2087 4.17781 16.9266 4.05693 16.6042 4.05693C16.2819 4.05693 15.9998 4.17781 15.7581 4.41956C15.5163 4.6613 15.3954 4.94334 15.3954 5.26567C15.3954 5.588 15.5163 5.87004 15.7581 6.11179C15.9998 6.35353 16.2819 6.47441 16.6042 6.47441ZM25.3252 32.5831C23.5407 32.5831 22.0153 31.9442 20.7489 30.6664C19.4825 29.3886 18.8492 27.8748 18.8492 26.125C18.8492 24.3192 19.4823 22.7798 20.7485 21.507C22.0147 20.2342 23.546 19.5978 25.3425 19.5978C27.1154 19.5978 28.6409 20.2342 29.9188 21.507C31.1967 22.7798 31.8357 24.3192 31.8357 26.125C31.8357 27.8748 31.1967 29.3886 29.9188 30.6664C28.6409 31.9442 27.1097 32.5831 25.3252 32.5831ZM24.8244 30.511H25.9642V26.7121H29.7634V25.5724H25.9642V21.7736H24.8244V25.5724H21.0252V26.7121H24.8244V30.511Z" fill="#a6daef"/>
</g>
</svg>
