<svg width="20" height="175" viewBox="0 0 20 175" fill="none" xmlns="http://www.w3.org/2000/svg">
<g transform="translate(0,0)">
<path fill-rule="evenodd" clip-rule="evenodd" d="M0.666504 3.00065C0.666504 1.52789 1.86041 0.333984 3.33317 0.333984H16.6665C18.1393 0.333984 19.3332 1.52789 19.3332 3.00065V8.33398H16.6665V7.00065H3.33317V8.33398H10.6665V10.334H5.99984V11.6673H10.6665V15.0007H9.33317L5.33317 19.0007V15.0007H3.33317C1.86041 15.0007 0.666504 13.8067 0.666504 12.334V3.00065ZM5.99984 3.66732H13.9998V5.00065H5.99984V3.66732ZM15.8979 10.334H13.4351L12.6665 14.9455V18.334H13.9998V15.6673H15.3332V18.334H16.6665V14.9455L15.8979 10.334ZM15.2129 14.334H14.1201L14.5646 11.6673H14.7684L15.2129 14.334ZM17.9998 18.334H19.3332V10.334H17.9998V18.334Z" fill="#999999"/>
</g>
<g transform="translate(0,25)">
<path fill-rule="evenodd" clip-rule="evenodd" d="M0.666504 3.00065C0.666504 1.52789 1.86041 0.333984 3.33317 0.333984H16.6665C18.1393 0.333984 19.3332 1.52789 19.3332 3.00065V8.33398H16.6665V7.00065H3.33317V8.33398H10.6665V10.334H5.99984V11.6673H10.6665V15.0007H9.33317L5.33317 19.0007V15.0007H3.33317C1.86041 15.0007 0.666504 13.8067 0.666504 12.334V3.00065ZM5.99984 3.66732H13.9998V5.00065H5.99984V3.66732ZM15.8979 10.334H13.4351L12.6665 14.9455V18.334H13.9998V15.6673H15.3332V18.334H16.6665V14.9455L15.8979 10.334ZM15.2129 14.334H14.1201L14.5646 11.6673H14.7684L15.2129 14.334ZM17.9998 18.334H19.3332V10.334H17.9998V18.334Z" fill="#A1D103"/>
</g>
<g transform="translate(0,50)">
<path fill-rule="evenodd" clip-rule="evenodd" d="M0.666504 3.00065C0.666504 1.52789 1.86041 0.333984 3.33317 0.333984H16.6665C18.1393 0.333984 19.3332 1.52789 19.3332 3.00065V8.33398H16.6665V7.00065H3.33317V8.33398H10.6665V10.334H5.99984V11.6673H10.6665V15.0007H9.33317L5.33317 19.0007V15.0007H3.33317C1.86041 15.0007 0.666504 13.8067 0.666504 12.334V3.00065ZM5.99984 3.66732H13.9998V5.00065H5.99984V3.66732ZM15.8979 10.334H13.4351L12.6665 14.9455V18.334H13.9998V15.6673H15.3332V18.334H16.6665V14.9455L15.8979 10.334ZM15.2129 14.334H14.1201L14.5646 11.6673H14.7684L15.2129 14.334ZM17.9998 18.334H19.3332V10.334H17.9998V18.334Z" fill="#6B8E23"/>
</g>
<g transform="translate(0,75)">
<path fill-rule="evenodd" clip-rule="evenodd" d="M0.666504 3.00065C0.666504 1.52789 1.86041 0.333984 3.33317 0.333984H16.6665C18.1393 0.333984 19.3332 1.52789 19.3332 3.00065V8.33398H16.6665V7.00065H3.33317V8.33398H10.6665V10.334H5.99984V11.6673H10.6665V15.0007H9.33317L5.33317 19.0007V15.0007H3.33317C1.86041 15.0007 0.666504 13.8067 0.666504 12.334V3.00065ZM5.99984 3.66732H13.9998V5.00065H5.99984V3.66732ZM15.8979 10.334H13.4351L12.6665 14.9455V18.334H13.9998V15.6673H15.3332V18.334H16.6665V14.9455L15.8979 10.334ZM15.2129 14.334H14.1201L14.5646 11.6673H14.7684L15.2129 14.334ZM17.9998 18.334H19.3332V10.334H17.9998V18.334Z" fill="#BA0101"/>
</g>
<g transform="translate(0,100)">
<path fill-rule="evenodd" clip-rule="evenodd" d="M0.666504 3.00065C0.666504 1.52789 1.86041 0.333984 3.33317 0.333984H16.6665C18.1393 0.333984 19.3332 1.52789 19.3332 3.00065V8.33398H16.6665V7.00065H3.33317V8.33398H10.6665V10.334H5.99984V11.6673H10.6665V15.0007H9.33317L5.33317 19.0007V15.0007H3.33317C1.86041 15.0007 0.666504 13.8067 0.666504 12.334V3.00065ZM5.99984 3.66732H13.9998V5.00065H5.99984V3.66732ZM15.8979 10.334H13.4351L12.6665 14.9455V18.334H13.9998V15.6673H15.3332V18.334H16.6665V14.9455L15.8979 10.334ZM15.2129 14.334H14.1201L14.5646 11.6673H14.7684L15.2129 14.334ZM17.9998 18.334H19.3332V10.334H17.9998V18.334Z" fill="#984546"/>
</g>
<g transform="translate(0,125)">
<path fill-rule="evenodd" clip-rule="evenodd" d="M0.666504 3.00065C0.666504 1.52789 1.86041 0.333984 3.33317 0.333984H16.6665C18.1393 0.333984 19.3332 1.52789 19.3332 3.00065V8.33398H16.6665V7.00065H3.33317V8.33398H10.6665V10.334H5.99984V11.6673H10.6665V15.0007H9.33317L5.33317 19.0007V15.0007H3.33317C1.86041 15.0007 0.666504 13.8067 0.666504 12.334V3.00065ZM5.99984 3.66732H13.9998V5.00065H5.99984V3.66732ZM15.8979 10.334H13.4351L12.6665 14.9455V18.334H13.9998V15.6673H15.3332V18.334H16.6665V14.9455L15.8979 10.334ZM15.2129 14.334H14.1201L14.5646 11.6673H14.7684L15.2129 14.334ZM17.9998 18.334H19.3332V10.334H17.9998V18.334Z" fill="#a6daef"/>
</g>
<g transform="translate(0,150)">
<path fill-rule="evenodd" clip-rule="evenodd" d="M0.666504 3.00065C0.666504 1.52789 1.86041 0.333984 3.33317 0.333984H16.6665C18.1393 0.333984 19.3332 1.52789 19.3332 3.00065V8.33398H16.6665V7.00065H3.33317V8.33398H10.6665V10.334H5.99984V11.6673H10.6665V15.0007H9.33317L5.33317 19.0007V15.0007H3.33317C1.86041 15.0007 0.666504 13.8067 0.666504 12.334V3.00065ZM5.99984 3.66732H13.9998V5.00065H5.99984V3.66732ZM15.8979 10.334H13.4351L12.6665 14.9455V18.334H13.9998V15.6673H15.3332V18.334H16.6665V14.9455L15.8979 10.334ZM15.2129 14.334H14.1201L14.5646 11.6673H14.7684L15.2129 14.334ZM17.9998 18.334H19.3332V10.334H17.9998V18.334Z" fill="#a4c9de"/>
</g>
</svg>
