<svg width="29" height="120" viewBox="0 0 29 120" fill="none" xmlns="http://www.w3.org/2000/svg">
<g clip-path="url(#clip0_1308_27793)" transform="translate(0,0)">
  <path fill-rule="evenodd" clip-rule="evenodd" d="M4 0C1.79086 0 0 1.79086 0 4V18C0 20.2091 1.79086 22 4 22H7V28L13 22H14V17H8V15H14V12H4V10H24V12H28V4C28 1.79086 26.2091 0 24 0H4ZM20 5H8V7H20V5ZM17 15H22V17H19V21H22V23H19V25H22V27H17V15ZM27.4142 15H23V27H27.4142L29 25.4142V16.5858L27.4142 15ZM26.5858 25H25V17H26.5858L27 17.4142V24.5858L26.5858 25Z" fill="#6B8E23"/>
</g>
<g clip-path="url(#clip0_1308_27793)" transform="translate(0,30)">
  <path fill-rule="evenodd" clip-rule="evenodd" d="M4 0C1.79086 0 0 1.79086 0 4V18C0 20.2091 1.79086 22 4 22H7V28L13 22H14V17H8V15H14V12H4V10H24V12H28V4C28 1.79086 26.2091 0 24 0H4ZM20 5H8V7H20V5ZM17 15H22V17H19V21H22V23H19V25H22V27H17V15ZM27.4142 15H23V27H27.4142L29 25.4142V16.5858L27.4142 15ZM26.5858 25H25V17H26.5858L27 17.4142V24.5858L26.5858 25Z" fill="#A1D103"/>
</g>
<g clip-path="url(#clip0_1308_27793)" transform="translate(0,60)">
  <path fill-rule="evenodd" clip-rule="evenodd" d="M4 0C1.79086 0 0 1.79086 0 4V18C0 20.2091 1.79086 22 4 22H7V28L13 22H14V17H8V15H14V12H4V10H24V12H28V4C28 1.79086 26.2091 0 24 0H4ZM20 5H8V7H20V5ZM17 15H22V17H19V21H22V23H19V25H22V27H17V15ZM27.4142 15H23V27H27.4142L29 25.4142V16.5858L27.4142 15ZM26.5858 25H25V17H26.5858L27 17.4142V24.5858L26.5858 25Z" fill="#a4c9ed"/>
</g>
<g clip-path="url(#clip0_1308_27793)" transform="translate(0,90)">
  <path fill-rule="evenodd" clip-rule="evenodd" d="M4 0C1.79086 0 0 1.79086 0 4V18C0 20.2091 1.79086 22 4 22H7V28L13 22H14V17H8V15H14V12H4V10H24V12H28V4C28 1.79086 26.2091 0 24 0H4ZM20 5H8V7H20V5ZM17 15H22V17H19V21H22V23H19V25H22V27H17V15ZM27.4142 15H23V27H27.4142L29 25.4142V16.5858L27.4142 15ZM26.5858 25H25V17H26.5858L27 17.4142V24.5858L26.5858 25Z" fill="#a6daef"/>
</g>
</svg>
