<svg xmlns="http://www.w3.org/2000/svg" width="24" height="90" viewBox="0 0 24 90" fill="none">
     <!-- First SVG -->
  <g class="first-svg" transform="translate(0,0)">
    <path d="M7.15 16.775H8.65L15.025 10.4L13.55 8.875L7.15 15.275V16.775ZM15.475 9.95L16.45 8.975C16.5667 8.85833 16.6292 8.72917 16.6375 8.5875C16.6458 8.44583 16.5833 8.30833 16.45 8.175L15.725 7.475C15.5917 7.34167 15.4583 7.27917 15.325 7.2875C15.1917 7.29583 15.0667 7.35833 14.95 7.475L14 8.425L15.475 9.95ZM4.5 21C4.08333 21 3.72917 20.8542 3.4375 20.5625C3.14583 20.2708 3 19.9167 3 19.5V4.5C3 4.08333 3.14583 3.72917 3.4375 3.4375C3.72917 3.14583 4.08333 3 4.5 3H9.625C9.70833 2.41667 9.975 1.9375 10.425 1.5625C10.875 1.1875 11.4 1 12 1C12.6 1 13.125 1.1875 13.575 1.5625C14.025 1.9375 14.2917 2.41667 14.375 3H19.5C19.9167 3 20.2708 3.14583 20.5625 3.4375C20.8542 3.72917 21 4.08333 21 4.5V19.5C21 19.9167 20.8542 20.2708 20.5625 20.5625C20.2708 20.8542 19.9167 21 19.5 21H4.5ZM12 4.075C12.2333 4.075 12.4375 3.9875 12.6125 3.8125C12.7875 3.6375 12.875 3.43333 12.875 3.2C12.875 2.96667 12.7875 2.7625 12.6125 2.5875C12.4375 2.4125 12.2333 2.325 12 2.325C11.7667 2.325 11.5625 2.4125 11.3875 2.5875C11.2125 2.7625 11.125 2.96667 11.125 3.2C11.125 3.43333 11.2125 3.6375 11.3875 3.8125C11.5625 3.9875 11.7667 4.075 12 4.075Z" fill="#999999"/>
  </g>

  <!-- Second SVG -->
  <g class="second-svg"  transform="translate(0,32)">
    <path d="M7.15 16.775H8.65L15.025 10.4L13.55 8.875L7.15 15.275V16.775ZM15.475 9.95L16.45 8.975C16.5667 8.85833 16.6292 8.72917 16.6375 8.5875C16.6458 8.44583 16.5833 8.30833 16.45 8.175L15.725 7.475C15.5917 7.34167 15.4583 7.27917 15.325 7.2875C15.1917 7.29583 15.0667 7.35833 14.95 7.475L14 8.425L15.475 9.95ZM4.5 21C4.08333 21 3.72917 20.8542 3.4375 20.5625C3.14583 20.2708 3 19.9167 3 19.5V4.5C3 4.08333 3.14583 3.72917 3.4375 3.4375C3.72917 3.14583 4.08333 3 4.5 3H9.625C9.70833 2.41667 9.975 1.9375 10.425 1.5625C10.875 1.1875 11.4 1 12 1C12.6 1 13.125 1.1875 13.575 1.5625C14.025 1.9375 14.2917 2.41667 14.375 3H19.5C19.9167 3 20.2708 3.14583 20.5625 3.4375C20.8542 3.72917 21 4.08333 21 4.5V19.5C21 19.9167 20.8542 20.2708 20.5625 20.5625C20.2708 20.8542 19.9167 21 19.5 21H4.5ZM12 4.075C12.2333 4.075 12.4375 3.9875 12.6125 3.8125C12.7875 3.6375 12.875 3.43333 12.875 3.2C12.875 2.96667 12.7875 2.7625 12.6125 2.5875C12.4375 2.4125 12.2333 2.325 12 2.325C11.7667 2.325 11.5625 2.4125 11.3875 2.5875C11.2125 2.7625 11.125 2.96667 11.125 3.2C11.125 3.43333 11.2125 3.6375 11.3875 3.8125C11.5625 3.9875 11.7667 4.075 12 4.075Z" fill="#8A85FF"/>
  </g>

  <g class="second-svg"  transform="translate(0,64)">
    <path d="M7.15 16.775H8.65L15.025 10.4L13.55 8.875L7.15 15.275V16.775ZM15.475 9.95L16.45 8.975C16.5667 8.85833 16.6292 8.72917 16.6375 8.5875C16.6458 8.44583 16.5833 8.30833 16.45 8.175L15.725 7.475C15.5917 7.34167 15.4583 7.27917 15.325 7.2875C15.1917 7.29583 15.0667 7.35833 14.95 7.475L14 8.425L15.475 9.95ZM4.5 21C4.08333 21 3.72917 20.8542 3.4375 20.5625C3.14583 20.2708 3 19.9167 3 19.5V4.5C3 4.08333 3.14583 3.72917 3.4375 3.4375C3.72917 3.14583 4.08333 3 4.5 3H9.625C9.70833 2.41667 9.975 1.9375 10.425 1.5625C10.875 1.1875 11.4 1 12 1C12.6 1 13.125 1.1875 13.575 1.5625C14.025 1.9375 14.2917 2.41667 14.375 3H19.5C19.9167 3 20.2708 3.14583 20.5625 3.4375C20.8542 3.72917 21 4.08333 21 4.5V19.5C21 19.9167 20.8542 20.2708 20.5625 20.5625C20.2708 20.8542 19.9167 21 19.5 21H4.5ZM12 4.075C12.2333 4.075 12.4375 3.9875 12.6125 3.8125C12.7875 3.6375 12.875 3.43333 12.875 3.2C12.875 2.96667 12.7875 2.7625 12.6125 2.5875C12.4375 2.4125 12.2333 2.325 12 2.325C11.7667 2.325 11.5625 2.4125 11.3875 2.5875C11.2125 2.7625 11.125 2.96667 11.125 3.2C11.125 3.43333 11.2125 3.6375 11.3875 3.8125C11.5625 3.9875 11.7667 4.075 12 4.075Z" fill="#0068b4"/>
  </g>
</svg>