<svg xmlns="http://www.w3.org/2000/svg" width="24" height="90" viewBox="0 0 24 90" fill="none">
  <g class="first-svg" transform="translate(0,0)">
    <path d="M8.93305 14.283C9.36083 14.71 10.0549 14.71 10.4826 14.283L11.2897 13.476L6.96402 9.15039L6.15702 9.9574C5.72924 10.3844 5.72924 11.0792 6.15702 11.5055L8.93305 14.283Z" fill="#999999"/>
    <path d="M20.2866 2.07856L18.3616 0.153561C18.1561 -0.0511869 17.8239 -0.0511869 17.6182 0.153561C17.4134 0.358309 17.4134 0.691224 17.6182 0.896157L18.0065 1.28451L16.7914 2.50099L17.9397 3.64931L19.1549 2.43283L19.5432 2.82118C19.7487 3.02669 20.0809 3.02669 20.2866 2.82118C20.4906 2.61624 20.4906 2.28403 20.2866 2.07856Z" fill="#999999"/>
    <path d="M19.9828 14.9289C19.9828 12.8256 19.1105 10.9265 17.7074 9.5718C17.7414 9.41485 17.762 9.25182 17.762 9.08402C17.762 8.22772 17.2834 7.48146 16.5796 7.10051L17.4995 6.17907C18.0593 5.62083 18.0593 4.71362 17.4995 4.15387L16.2844 2.93739C15.7246 2.37764 14.8174 2.37764 14.2579 2.93739L7.97823 9.21849L11.2192 12.4579L13.5196 10.1575C13.9019 10.8615 14.6468 11.3399 15.5044 11.3399C15.6303 11.3399 15.7547 11.3262 15.876 11.3073C16.8506 12.2084 17.4643 13.4956 17.4643 14.9275C17.4643 17.6519 15.2557 19.8604 12.5314 19.8604C11.2162 19.8604 10.0232 19.3415 9.13884 18.502L5.99731 18.5022C6.63747 19.6695 7.581 20.6442 8.7202 21.326H7.47704C7.16144 21.326 6.85059 21.5778 6.78374 21.8858L6.45158 23.44C6.38491 23.7479 6.58966 23.9997 6.90354 23.9997H18.4126C18.7266 23.9997 18.9314 23.7479 18.8645 23.44L18.5324 21.8858C18.4657 21.5778 18.1547 21.326 17.8391 21.326H16.3471C18.5241 20.0267 19.9827 17.6489 19.9827 14.9289L19.9828 14.9289ZM15.5063 10.2569C14.8578 10.2569 14.3331 9.7327 14.3331 9.08494C14.3331 8.43718 14.8573 7.91303 15.5063 7.91303C16.1541 7.91303 16.6782 8.43718 16.6782 9.08494C16.6782 9.7327 16.1541 10.2569 15.5063 10.2569Z" fill="#999999"/>
    <path d="M10.7172 17.3909C10.7172 17.114 10.4934 16.8889 10.2166 16.8889L4.50207 16.8887C4.22513 16.8887 4 17.114 4 17.3907C4 17.6661 4.22532 17.8913 4.50207 17.8913H10.2156C10.4931 17.8923 10.7169 17.6669 10.7169 17.3909L10.7172 17.3909Z" fill="#999999"/>
  </g>

  <!-- Second SVG -->
  <g class="second-svg"  transform="translate(0,32)">
    <path d="M8.93305 14.283C9.36083 14.71 10.0549 14.71 10.4826 14.283L11.2897 13.476L6.96402 9.15039L6.15702 9.9574C5.72924 10.3844 5.72924 11.0792 6.15702 11.5055L8.93305 14.283Z" fill="#8A85FF"/>
    <path d="M20.2866 2.07856L18.3616 0.153561C18.1561 -0.0511869 17.8239 -0.0511869 17.6182 0.153561C17.4134 0.358309 17.4134 0.691224 17.6182 0.896157L18.0065 1.28451L16.7914 2.50099L17.9397 3.64931L19.1549 2.43283L19.5432 2.82118C19.7487 3.02669 20.0809 3.02669 20.2866 2.82118C20.4906 2.61624 20.4906 2.28403 20.2866 2.07856Z" fill="#8A85FF"/>
    <path d="M19.9828 14.9289C19.9828 12.8256 19.1105 10.9265 17.7074 9.5718C17.7414 9.41485 17.762 9.25182 17.762 9.08402C17.762 8.22772 17.2834 7.48146 16.5796 7.10051L17.4995 6.17907C18.0593 5.62083 18.0593 4.71362 17.4995 4.15387L16.2844 2.93739C15.7246 2.37764 14.8174 2.37764 14.2579 2.93739L7.97823 9.21849L11.2192 12.4579L13.5196 10.1575C13.9019 10.8615 14.6468 11.3399 15.5044 11.3399C15.6303 11.3399 15.7547 11.3262 15.876 11.3073C16.8506 12.2084 17.4643 13.4956 17.4643 14.9275C17.4643 17.6519 15.2557 19.8604 12.5314 19.8604C11.2162 19.8604 10.0232 19.3415 9.13884 18.502L5.99731 18.5022C6.63747 19.6695 7.581 20.6442 8.7202 21.326H7.47704C7.16144 21.326 6.85059 21.5778 6.78374 21.8858L6.45158 23.44C6.38491 23.7479 6.58966 23.9997 6.90354 23.9997H18.4126C18.7266 23.9997 18.9314 23.7479 18.8645 23.44L18.5324 21.8858C18.4657 21.5778 18.1547 21.326 17.8391 21.326H16.3471C18.5241 20.0267 19.9827 17.6489 19.9827 14.9289L19.9828 14.9289ZM15.5063 10.2569C14.8578 10.2569 14.3331 9.7327 14.3331 9.08494C14.3331 8.43718 14.8573 7.91303 15.5063 7.91303C16.1541 7.91303 16.6782 8.43718 16.6782 9.08494C16.6782 9.7327 16.1541 10.2569 15.5063 10.2569Z" fill="#8A85FF"/>
    <path d="M10.7172 17.3909C10.7172 17.114 10.4934 16.8889 10.2166 16.8889L4.50207 16.8887C4.22513 16.8887 4 17.114 4 17.3907C4 17.6661 4.22532 17.8913 4.50207 17.8913H10.2156C10.4931 17.8923 10.7169 17.6669 10.7169 17.3909L10.7172 17.3909Z" fill="#8A85FF"/>  
  </g>

  <g class="second-svg"  transform="translate(0,64)">
    <path d="M8.93305 14.283C9.36083 14.71 10.0549 14.71 10.4826 14.283L11.2897 13.476L6.96402 9.15039L6.15702 9.9574C5.72924 10.3844 5.72924 11.0792 6.15702 11.5055L8.93305 14.283Z" fill="#0068b4"/>
    <path d="M20.2866 2.07856L18.3616 0.153561C18.1561 -0.0511869 17.8239 -0.0511869 17.6182 0.153561C17.4134 0.358309 17.4134 0.691224 17.6182 0.896157L18.0065 1.28451L16.7914 2.50099L17.9397 3.64931L19.1549 2.43283L19.5432 2.82118C19.7487 3.02669 20.0809 3.02669 20.2866 2.82118C20.4906 2.61624 20.4906 2.28403 20.2866 2.07856Z" fill="#0068b4"/>
    <path d="M19.9828 14.9289C19.9828 12.8256 19.1105 10.9265 17.7074 9.5718C17.7414 9.41485 17.762 9.25182 17.762 9.08402C17.762 8.22772 17.2834 7.48146 16.5796 7.10051L17.4995 6.17907C18.0593 5.62083 18.0593 4.71362 17.4995 4.15387L16.2844 2.93739C15.7246 2.37764 14.8174 2.37764 14.2579 2.93739L7.97823 9.21849L11.2192 12.4579L13.5196 10.1575C13.9019 10.8615 14.6468 11.3399 15.5044 11.3399C15.6303 11.3399 15.7547 11.3262 15.876 11.3073C16.8506 12.2084 17.4643 13.4956 17.4643 14.9275C17.4643 17.6519 15.2557 19.8604 12.5314 19.8604C11.2162 19.8604 10.0232 19.3415 9.13884 18.502L5.99731 18.5022C6.63747 19.6695 7.581 20.6442 8.7202 21.326H7.47704C7.16144 21.326 6.85059 21.5778 6.78374 21.8858L6.45158 23.44C6.38491 23.7479 6.58966 23.9997 6.90354 23.9997H18.4126C18.7266 23.9997 18.9314 23.7479 18.8645 23.44L18.5324 21.8858C18.4657 21.5778 18.1547 21.326 17.8391 21.326H16.3471C18.5241 20.0267 19.9827 17.6489 19.9827 14.9289L19.9828 14.9289ZM15.5063 10.2569C14.8578 10.2569 14.3331 9.7327 14.3331 9.08494C14.3331 8.43718 14.8573 7.91303 15.5063 7.91303C16.1541 7.91303 16.6782 8.43718 16.6782 9.08494C16.6782 9.7327 16.1541 10.2569 15.5063 10.2569Z" fill="#0068b4"/>
    <path d="M10.7172 17.3909C10.7172 17.114 10.4934 16.8889 10.2166 16.8889L4.50207 16.8887C4.22513 16.8887 4 17.114 4 17.3907C4 17.6661 4.22532 17.8913 4.50207 17.8913H10.2156C10.4931 17.8923 10.7169 17.6669 10.7169 17.3909L10.7172 17.3909Z" fill="#0068b4"/>  
  </g>
</svg>
