<svg width="23" height="100" viewBox="0 0 23 100" fill="none" xmlns="http://www.w3.org/2000/svg">
<g transform="translate(0,0)">
<path d="M20.6152 14.0422V6.99219L11.0902 12.1172L0.115234 6.11719L11.0902 0.117188L22.1152 6.11719V14.0422H20.6152ZM11.0902 18.1172L3.84023 14.1422V8.89219L11.0902 12.8672L18.3402 8.89219V14.1422L11.0902 18.1172Z" fill="white"/>
</g>
<g transform="translate(0,25)">
<path d="M20.6152 14.0422V6.99219L11.0902 12.1172L0.115234 6.11719L11.0902 0.117188L22.1152 6.11719V14.0422H20.6152ZM11.0902 18.1172L3.84023 14.1422V8.89219L11.0902 12.8672L18.3402 8.89219V14.1422L11.0902 18.1172Z" fill="#999999"/>
</g>
<g transform="translate(0,50)">
<path d="M20.6152 14.0422V6.99219L11.0902 12.1172L0.115234 6.11719L11.0902 0.117188L22.1152 6.11719V14.0422H20.6152ZM11.0902 18.1172L3.84023 14.1422V8.89219L11.0902 12.8672L18.3402 8.89219V14.1422L11.0902 18.1172Z" fill="#8A85FF"/>
</g>
<g transform="translate(0,75)">
<path d="M20.6152 14.0422V6.99219L11.0902 12.1172L0.115234 6.11719L11.0902 0.117188L22.1152 6.11719V14.0422H20.6152ZM11.0902 18.1172L3.84023 14.1422V8.89219L11.0902 12.8672L18.3402 8.89219V14.1422L11.0902 18.1172Z" fill="#0068b4"/>
</g>
</svg>
