<svg width="23" height="100" viewBox="0 0 23 100" fill="none" xmlns="http://www.w3.org/2000/svg">
<g transform="translate(0,0)">
<path d="M11.1152 6.38594L7.96524 3.23594L11.1152 0.0859375L14.2652 3.23594L11.1152 6.38594ZM0.115234 18.1109V14.1109C0.115234 13.6276 0.286068 13.2151 0.627734 12.8734C0.969401 12.5318 1.3819 12.3609 1.86523 12.3609H5.39023C5.67357 12.3609 5.9444 12.4318 6.20273 12.5734C6.46107 12.7151 6.6819 12.9109 6.86523 13.1609C7.34857 13.8609 7.96524 14.4026 8.71523 14.7859C9.46523 15.1693 10.2652 15.3609 11.1152 15.3609C11.9652 15.3609 12.7652 15.1693 13.5152 14.7859C14.2652 14.4026 14.8902 13.8609 15.3902 13.1609C15.5736 12.9109 15.7902 12.7151 16.0402 12.5734C16.2902 12.4318 16.5569 12.3609 16.8402 12.3609H20.3652C20.8486 12.3609 21.2611 12.5318 21.6027 12.8734C21.9444 13.2151 22.1152 13.6276 22.1152 14.1109V18.1109H15.6152V15.1359C15.0152 15.6859 14.3277 16.1109 13.5527 16.4109C12.7777 16.7109 11.9652 16.8609 11.1152 16.8609C10.2652 16.8609 9.4569 16.7109 8.69024 16.4109C7.92357 16.1109 7.2319 15.6859 6.61523 15.1359V18.1109H0.115234ZM3.11523 10.6109C2.36523 10.6109 1.7194 10.3401 1.17773 9.79844C0.636068 9.25677 0.365234 8.61094 0.365234 7.86094C0.365234 7.09427 0.636068 6.44427 1.17773 5.91094C1.7194 5.3776 2.36523 5.11094 3.11523 5.11094C3.8819 5.11094 4.5319 5.3776 5.06523 5.91094C5.59857 6.44427 5.86523 7.09427 5.86523 7.86094C5.86523 8.61094 5.59857 9.25677 5.06523 9.79844C4.5319 10.3401 3.8819 10.6109 3.11523 10.6109ZM19.1152 10.6109C18.3652 10.6109 17.7194 10.3401 17.1777 9.79844C16.6361 9.25677 16.3652 8.61094 16.3652 7.86094C16.3652 7.09427 16.6361 6.44427 17.1777 5.91094C17.7194 5.3776 18.3652 5.11094 19.1152 5.11094C19.8819 5.11094 20.5319 5.3776 21.0652 5.91094C21.5986 6.44427 21.8652 7.09427 21.8652 7.86094C21.8652 8.61094 21.5986 9.25677 21.0652 9.79844C20.5319 10.3401 19.8819 10.6109 19.1152 10.6109Z" fill="white"/>
</g>
<g transform="translate(0,25)">
<path d="M11.1152 6.38594L7.96524 3.23594L11.1152 0.0859375L14.2652 3.23594L11.1152 6.38594ZM0.115234 18.1109V14.1109C0.115234 13.6276 0.286068 13.2151 0.627734 12.8734C0.969401 12.5318 1.3819 12.3609 1.86523 12.3609H5.39023C5.67357 12.3609 5.9444 12.4318 6.20273 12.5734C6.46107 12.7151 6.6819 12.9109 6.86523 13.1609C7.34857 13.8609 7.96524 14.4026 8.71523 14.7859C9.46523 15.1693 10.2652 15.3609 11.1152 15.3609C11.9652 15.3609 12.7652 15.1693 13.5152 14.7859C14.2652 14.4026 14.8902 13.8609 15.3902 13.1609C15.5736 12.9109 15.7902 12.7151 16.0402 12.5734C16.2902 12.4318 16.5569 12.3609 16.8402 12.3609H20.3652C20.8486 12.3609 21.2611 12.5318 21.6027 12.8734C21.9444 13.2151 22.1152 13.6276 22.1152 14.1109V18.1109H15.6152V15.1359C15.0152 15.6859 14.3277 16.1109 13.5527 16.4109C12.7777 16.7109 11.9652 16.8609 11.1152 16.8609C10.2652 16.8609 9.4569 16.7109 8.69024 16.4109C7.92357 16.1109 7.2319 15.6859 6.61523 15.1359V18.1109H0.115234ZM3.11523 10.6109C2.36523 10.6109 1.7194 10.3401 1.17773 9.79844C0.636068 9.25677 0.365234 8.61094 0.365234 7.86094C0.365234 7.09427 0.636068 6.44427 1.17773 5.91094C1.7194 5.3776 2.36523 5.11094 3.11523 5.11094C3.8819 5.11094 4.5319 5.3776 5.06523 5.91094C5.59857 6.44427 5.86523 7.09427 5.86523 7.86094C5.86523 8.61094 5.59857 9.25677 5.06523 9.79844C4.5319 10.3401 3.8819 10.6109 3.11523 10.6109ZM19.1152 10.6109C18.3652 10.6109 17.7194 10.3401 17.1777 9.79844C16.6361 9.25677 16.3652 8.61094 16.3652 7.86094C16.3652 7.09427 16.6361 6.44427 17.1777 5.91094C17.7194 5.3776 18.3652 5.11094 19.1152 5.11094C19.8819 5.11094 20.5319 5.3776 21.0652 5.91094C21.5986 6.44427 21.8652 7.09427 21.8652 7.86094C21.8652 8.61094 21.5986 9.25677 21.0652 9.79844C20.5319 10.3401 19.8819 10.6109 19.1152 10.6109Z" fill="#999999"/>
</g>
<g transform="translate(0,50)">
<path d="M11.1152 6.38594L7.96524 3.23594L11.1152 0.0859375L14.2652 3.23594L11.1152 6.38594ZM0.115234 18.1109V14.1109C0.115234 13.6276 0.286068 13.2151 0.627734 12.8734C0.969401 12.5318 1.3819 12.3609 1.86523 12.3609H5.39023C5.67357 12.3609 5.9444 12.4318 6.20273 12.5734C6.46107 12.7151 6.6819 12.9109 6.86523 13.1609C7.34857 13.8609 7.96524 14.4026 8.71523 14.7859C9.46523 15.1693 10.2652 15.3609 11.1152 15.3609C11.9652 15.3609 12.7652 15.1693 13.5152 14.7859C14.2652 14.4026 14.8902 13.8609 15.3902 13.1609C15.5736 12.9109 15.7902 12.7151 16.0402 12.5734C16.2902 12.4318 16.5569 12.3609 16.8402 12.3609H20.3652C20.8486 12.3609 21.2611 12.5318 21.6027 12.8734C21.9444 13.2151 22.1152 13.6276 22.1152 14.1109V18.1109H15.6152V15.1359C15.0152 15.6859 14.3277 16.1109 13.5527 16.4109C12.7777 16.7109 11.9652 16.8609 11.1152 16.8609C10.2652 16.8609 9.4569 16.7109 8.69024 16.4109C7.92357 16.1109 7.2319 15.6859 6.61523 15.1359V18.1109H0.115234ZM3.11523 10.6109C2.36523 10.6109 1.7194 10.3401 1.17773 9.79844C0.636068 9.25677 0.365234 8.61094 0.365234 7.86094C0.365234 7.09427 0.636068 6.44427 1.17773 5.91094C1.7194 5.3776 2.36523 5.11094 3.11523 5.11094C3.8819 5.11094 4.5319 5.3776 5.06523 5.91094C5.59857 6.44427 5.86523 7.09427 5.86523 7.86094C5.86523 8.61094 5.59857 9.25677 5.06523 9.79844C4.5319 10.3401 3.8819 10.6109 3.11523 10.6109ZM19.1152 10.6109C18.3652 10.6109 17.7194 10.3401 17.1777 9.79844C16.6361 9.25677 16.3652 8.61094 16.3652 7.86094C16.3652 7.09427 16.6361 6.44427 17.1777 5.91094C17.7194 5.3776 18.3652 5.11094 19.1152 5.11094C19.8819 5.11094 20.5319 5.3776 21.0652 5.91094C21.5986 6.44427 21.8652 7.09427 21.8652 7.86094C21.8652 8.61094 21.5986 9.25677 21.0652 9.79844C20.5319 10.3401 19.8819 10.6109 19.1152 10.6109Z" fill="#8A85FF"/>
</g>
<g transform="translate(0,75)">
<path d="M11.1152 6.38594L7.96524 3.23594L11.1152 0.0859375L14.2652 3.23594L11.1152 6.38594ZM0.115234 18.1109V14.1109C0.115234 13.6276 0.286068 13.2151 0.627734 12.8734C0.969401 12.5318 1.3819 12.3609 1.86523 12.3609H5.39023C5.67357 12.3609 5.9444 12.4318 6.20273 12.5734C6.46107 12.7151 6.6819 12.9109 6.86523 13.1609C7.34857 13.8609 7.96524 14.4026 8.71523 14.7859C9.46523 15.1693 10.2652 15.3609 11.1152 15.3609C11.9652 15.3609 12.7652 15.1693 13.5152 14.7859C14.2652 14.4026 14.8902 13.8609 15.3902 13.1609C15.5736 12.9109 15.7902 12.7151 16.0402 12.5734C16.2902 12.4318 16.5569 12.3609 16.8402 12.3609H20.3652C20.8486 12.3609 21.2611 12.5318 21.6027 12.8734C21.9444 13.2151 22.1152 13.6276 22.1152 14.1109V18.1109H15.6152V15.1359C15.0152 15.6859 14.3277 16.1109 13.5527 16.4109C12.7777 16.7109 11.9652 16.8609 11.1152 16.8609C10.2652 16.8609 9.4569 16.7109 8.69024 16.4109C7.92357 16.1109 7.2319 15.6859 6.61523 15.1359V18.1109H0.115234ZM3.11523 10.6109C2.36523 10.6109 1.7194 10.3401 1.17773 9.79844C0.636068 9.25677 0.365234 8.61094 0.365234 7.86094C0.365234 7.09427 0.636068 6.44427 1.17773 5.91094C1.7194 5.3776 2.36523 5.11094 3.11523 5.11094C3.8819 5.11094 4.5319 5.3776 5.06523 5.91094C5.59857 6.44427 5.86523 7.09427 5.86523 7.86094C5.86523 8.61094 5.59857 9.25677 5.06523 9.79844C4.5319 10.3401 3.8819 10.6109 3.11523 10.6109ZM19.1152 10.6109C18.3652 10.6109 17.7194 10.3401 17.1777 9.79844C16.6361 9.25677 16.3652 8.61094 16.3652 7.86094C16.3652 7.09427 16.6361 6.44427 17.1777 5.91094C17.7194 5.3776 18.3652 5.11094 19.1152 5.11094C19.8819 5.11094 20.5319 5.3776 21.0652 5.91094C21.5986 6.44427 21.8652 7.09427 21.8652 7.86094C21.8652 8.61094 21.5986 9.25677 21.0652 9.79844C20.5319 10.3401 19.8819 10.6109 19.1152 10.6109Z" fill="#0068b4"/>
</g>
</svg>
