<svg width="32" height="32" viewBox="0 0 32 32" fill="none" xmlns="http://www.w3.org/2000/svg">
<path d="M23.4684 4.61353L7.98344 4.61353C5.13162 4.61353 2.82178 6.91047 2.82178 9.73648L2.82178 22.7181C2.82178 25.5441 5.13162 27.841 7.98344 27.841L23.4684 27.841C26.3203 27.841 28.6301 25.5441 28.6301 22.7181L28.6301 9.73648C28.6301 6.91047 26.3203 4.61353 23.4684 4.61353ZM11.2095 9.99456C12.8483 9.99456 14.1903 11.3366 14.1903 12.9754C14.1903 14.6143 12.8483 15.9563 11.2095 15.9563C9.57066 15.9563 8.22862 14.6143 8.22862 12.9754C8.22862 11.3366 9.57066 9.99456 11.2095 9.99456ZM16.2034 22.2406C16.0873 22.3697 15.9066 22.4471 15.7259 22.4471H6.69303C6.51237 22.4471 6.33171 22.3697 6.21557 22.2406C6.09944 22.1116 6.03491 21.9309 6.04782 21.7503C6.26719 19.5824 7.99635 17.8661 10.1642 17.6596C10.8482 17.5951 11.5579 17.5951 12.2418 17.6596C14.4097 17.8661 16.1518 19.5824 16.3582 21.7503C16.3841 21.9309 16.3195 22.1116 16.2034 22.2406ZM24.7589 22.3568H22.178C21.649 22.3568 21.2102 21.918 21.2102 21.3889C21.2102 20.8599 21.649 20.4211 22.178 20.4211L24.7589 20.4211C25.2879 20.4211 25.7267 20.8599 25.7267 21.3889C25.7267 21.918 25.2879 22.3568 24.7589 22.3568ZM24.7589 17.1951L19.5972 17.1951C19.0681 17.1951 18.6294 16.7563 18.6294 16.2273C18.6294 15.6982 19.0681 15.2595 19.5972 15.2595L24.7589 15.2595C25.2879 15.2595 25.7267 15.6982 25.7267 16.2273C25.7267 16.7563 25.2879 17.1951 24.7589 17.1951ZM24.7589 12.0334L18.3068 12.0334C17.7777 12.0334 17.339 11.5947 17.339 11.0656C17.339 10.5365 17.7777 10.0978 18.3068 10.0978L24.7589 10.0978C25.2879 10.0978 25.7267 10.5365 25.7267 11.0656C25.7267 11.5947 25.2879 12.0334 24.7589 12.0334Z" fill="#0C0C0C"/>
</svg>
