<svg xmlns="http://www.w3.org/2000/svg" width="24" height="90" viewBox="0 0 24 90" fill="none">
   <!-- First SVG -->
    <g class="first-svg" transform="translate(0,0)">
  <path d="M16.525 15.45L19.35 12.6C19.8833 12.0667 20.2917 11.4583 20.575 10.775C20.8583 10.0917 21 9.375 21 8.625C21 7.05833 20.4542 5.72917 19.3625 4.6375C18.2708 3.54583 16.9417 3 15.375 3C14.625 3 13.9083 3.14167 13.225 3.425C12.5417 3.70833 11.9333 4.11667 11.4 4.65L8.55 7.475L16.525 15.45ZM8.625 21C9.375 21 10.0917 20.8583 10.775 20.575C11.4583 20.2917 12.0667 19.8833 12.6 19.35L15.45 16.525L7.475 8.55L4.65 11.4C4.11667 11.9333 3.70833 12.5417 3.425 13.225C3.14167 13.9083 3 14.625 3 15.375C3 16.9417 3.54583 18.2708 4.6375 19.3625C5.72917 20.4542 7.05833 21 8.625 21Z" fill="#999999"/>
  </g>

  <!-- Second SVG -->
  <g class="second-svg"  transform="translate(0,32)">
    <path d="M16.525 15.45L19.35 12.6C19.8833 12.0667 20.2917 11.4583 20.575 10.775C20.8583 10.0917 21 9.375 21 8.625C21 7.05833 20.4542 5.72917 19.3625 4.6375C18.2708 3.54583 16.9417 3 15.375 3C14.625 3 13.9083 3.14167 13.225 3.425C12.5417 3.70833 11.9333 4.11667 11.4 4.65L8.55 7.475L16.525 15.45ZM8.625 21C9.375 21 10.0917 20.8583 10.775 20.575C11.4583 20.2917 12.0667 19.8833 12.6 19.35L15.45 16.525L7.475 8.55L4.65 11.4C4.11667 11.9333 3.70833 12.5417 3.425 13.225C3.14167 13.9083 3 14.625 3 15.375C3 16.9417 3.54583 18.2708 4.6375 19.3625C5.72917 20.4542 7.05833 21 8.625 21Z" fill="#8A85FF"/>
  </g>

  <g class="second-svg"  transform="translate(0,64)">
    <path d="M16.525 15.45L19.35 12.6C19.8833 12.0667 20.2917 11.4583 20.575 10.775C20.8583 10.0917 21 9.375 21 8.625C21 7.05833 20.4542 5.72917 19.3625 4.6375C18.2708 3.54583 16.9417 3 15.375 3C14.625 3 13.9083 3.14167 13.225 3.425C12.5417 3.70833 11.9333 4.11667 11.4 4.65L8.55 7.475L16.525 15.45ZM8.625 21C9.375 21 10.0917 20.8583 10.775 20.575C11.4583 20.2917 12.0667 19.8833 12.6 19.35L15.45 16.525L7.475 8.55L4.65 11.4C4.11667 11.9333 3.70833 12.5417 3.425 13.225C3.14167 13.9083 3 14.625 3 15.375C3 16.9417 3.54583 18.2708 4.6375 19.3625C5.72917 20.4542 7.05833 21 8.625 21Z" fill="#0068b4"/>
  </g>
</svg>