<svg width="23" height="23" viewBox="0 0 23 23" fill="none" xmlns="http://www.w3.org/2000/svg">
<path fill-rule="evenodd" clip-rule="evenodd" d="M14.5924 3.17508L14.9998 2.76762L20.2321 7.99985L19.8246 8.40731L18.9009 8.71521C18.4667 8.85994 18.087 9.13362 17.8124 9.49975L14.7498 13.5832V17.4821L13.9998 18.2321L4.76762 8.99985L5.51762 8.24985H9.41652L13.4999 5.18727C13.8661 4.91268 14.1398 4.53296 14.2845 4.09879L14.5924 3.17508ZM16.5908 0.823072C15.7122 -0.0556082 14.2875 -0.0556066 13.4089 0.823072L12.7829 1.44904C12.5359 1.69603 12.3498 1.99714 12.2393 2.32852L11.9375 3.23413L8.58318 5.74985H5.41406C4.81733 5.74985 4.24503 5.9869 3.82307 6.40886L2.82307 7.40886C1.94439 8.28754 1.94439 9.71216 2.82307 10.5908L6.61612 14.3839L0 21V23H2L8.61612 16.3839L12.4089 20.1766C13.2875 21.0553 14.7122 21.0553 15.5908 20.1766L16.5908 19.1766C17.0128 18.7547 17.2498 18.1824 17.2498 17.5856V14.4165L19.7656 11.0622L20.6712 10.7604C21.0026 10.6499 21.3037 10.4638 21.5507 10.2168L22.1766 9.59084C23.0553 8.71216 23.0553 7.28754 22.1766 6.40886L16.5908 0.823072Z" fill="#999999"/>
</svg>
