<svg width="23" height="23" viewBox="0 0 23 23" fill="none" xmlns="http://www.w3.org/2000/svg">
<path fill-rule="evenodd" clip-rule="evenodd" d="M16.5908 0.823072C15.7122 -0.0556091 14.2875 -0.0556057 13.4089 0.823072L12.7829 1.44904C12.5359 1.69603 12.3498 1.99714 12.2393 2.32851L11.9375 3.23413L8.58318 5.74985H5.41406C4.81733 5.74985 4.24503 5.9869 3.82307 6.40886L2.82307 7.40886C1.94439 8.28754 1.94439 9.71216 2.82307 10.5908L6.61612 14.3839L0 21V23H2L8.61612 16.3839L12.4089 20.1766C13.2875 21.0553 14.7122 21.0553 15.5908 20.1766L16.5908 19.1766C17.0128 18.7547 17.2498 18.1824 17.2498 17.5856V14.4165L19.7656 11.0622L20.6712 10.7604C21.0026 10.6499 21.3037 10.4638 21.5507 10.2168L22.1766 9.59084C23.0553 8.71216 23.0553 7.28754 22.1766 6.40886L16.5908 0.823072Z" fill="#999999"/>
</svg>
