<svg width="27" height="28" viewBox="0 0 27 28" fill="none" xmlns="http://www.w3.org/2000/svg">
<path fill-rule="evenodd" clip-rule="evenodd" d="M13.0008 13.9992V11.9992H2.00077L0.169673 2.38594C0.0640141 1.83123 0.239776 1.26018 0.639067 0.860891C1.1545 0.345455 1.94054 0.21459 2.59517 0.535225L25.1027 11.5593C25.6523 11.8285 26.0008 12.3872 26.0008 12.9992V13.0003L25.9997 13.0003H19.9997C15.6296 13.0003 12.0778 16.5044 12.001 20.8562L2.59517 25.4632C1.94054 25.7838 1.1545 25.6529 0.639067 25.1375C0.239776 24.7382 0.064014 24.1672 0.169673 23.6124L2.00077 13.9992H13.0008ZM19.9997 16.0003C17.2383 16.0003 14.9997 18.2389 14.9997 21.0003C14.9997 23.0507 16.2338 24.8127 17.9997 25.5843V28.0003H18.9997L20.9997 26.0003H21.9997C24.7611 26.0003 26.9997 23.7618 26.9997 21.0003C26.9997 18.2389 24.7611 16.0003 21.9997 16.0003H19.9997ZM20.7068 19.0003C20.5193 19.0003 20.3394 19.0748 20.2068 19.2074C20.0742 19.34 19.9997 19.5199 19.9997 19.7074V20.0003H17.9997V19.7074C17.9997 18.9895 18.2849 18.3009 18.7926 17.7932C19.3003 17.2855 19.9888 17.0003 20.7068 17.0003H21.2926C22.0106 17.0003 22.6991 17.2855 23.2068 17.7932L23.3533 17.9397C23.7672 18.3536 23.9997 18.915 23.9997 19.5003C23.9997 20.0857 23.7672 20.6471 23.3533 21.061L22.2926 22.1217C22.1051 22.3092 21.9997 22.5635 21.9997 22.8288V23.0003H19.9997V22.8288C19.9997 22.0331 20.3158 21.2701 20.8784 20.7074L21.939 19.6468C21.9779 19.6079 21.9997 19.5553 21.9997 19.5003C21.9997 19.4454 21.9779 19.3927 21.939 19.3539L21.7926 19.2074C21.66 19.0748 21.4801 19.0003 21.2926 19.0003H20.7068ZM19.9997 25.0003V24.0003H21.9997V25.0003H19.9997Z" fill="#999999"/>
</svg>
