<svg xmlns="http://www.w3.org/2000/svg" width="24" height="90" viewBox="0 0 24 90" fill="none">
  <!-- First SVG -->
  <g class="first-svg" transform="translate(0,0)">
    <path d="M4.29999 21C3.60371 21 3.10881 20.675 2.81529 20.025C2.52176 19.375 2.61666 18.7833 3.09999 18.25L9.29999 11.25V4.5H7.99999C7.78749 4.5 7.60936 4.42771 7.46562 4.28313C7.32187 4.13853 7.24999 3.95936 7.24999 3.74562C7.24999 3.53187 7.32187 3.35417 7.46562 3.2125C7.60936 3.07083 7.78749 3 7.99999 3H16C16.2125 3 16.3906 3.07229 16.5344 3.21688C16.6781 3.36148 16.75 3.54064 16.75 3.75438C16.75 3.96813 16.6781 4.14583 16.5344 4.2875C16.3906 4.42917 16.2125 4.5 16 4.5H14.7V11.25L20.9 18.25C21.3833 18.7833 21.4782 19.375 21.1847 20.025C20.8912 20.675 20.3963 21 19.7 21H4.29999Z" fill="#999999"/>
  </g>

  <!-- Second SVG -->
  <g class="second-svg"  transform="translate(0,32)">
    <path d="M4.29999 21C3.60371 21 3.10881 20.675 2.81529 20.025C2.52176 19.375 2.61666 18.7833 3.09999 18.25L9.29999 11.25V4.5H7.99999C7.78749 4.5 7.60936 4.42771 7.46562 4.28313C7.32187 4.13853 7.24999 3.95936 7.24999 3.74562C7.24999 3.53187 7.32187 3.35417 7.46562 3.2125C7.60936 3.07083 7.78749 3 7.99999 3H16C16.2125 3 16.3906 3.07229 16.5344 3.21688C16.6781 3.36148 16.75 3.54064 16.75 3.75438C16.75 3.96813 16.6781 4.14583 16.5344 4.2875C16.3906 4.42917 16.2125 4.5 16 4.5H14.7V11.25L20.9 18.25C21.3833 18.7833 21.4782 19.375 21.1847 20.025C20.8912 20.675 20.3963 21 19.7 21H4.29999Z" fill="#8A85FF"/>
  </g>

  <g class="second-svg"  transform="translate(0,64)">
    <path d="M4.29999 21C3.60371 21 3.10881 20.675 2.81529 20.025C2.52176 19.375 2.61666 18.7833 3.09999 18.25L9.29999 11.25V4.5H7.99999C7.78749 4.5 7.60936 4.42771 7.46562 4.28313C7.32187 4.13853 7.24999 3.95936 7.24999 3.74562C7.24999 3.53187 7.32187 3.35417 7.46562 3.2125C7.60936 3.07083 7.78749 3 7.99999 3H16C16.2125 3 16.3906 3.07229 16.5344 3.21688C16.6781 3.36148 16.75 3.54064 16.75 3.75438C16.75 3.96813 16.6781 4.14583 16.5344 4.2875C16.3906 4.42917 16.2125 4.5 16 4.5H14.7V11.25L20.9 18.25C21.3833 18.7833 21.4782 19.375 21.1847 20.025C20.8912 20.675 20.3963 21 19.7 21H4.29999Z" fill="#0068b4"/>
  </g>
</svg>
