<svg width="30" height="90" viewBox="0 0 30 90" fill="none" xmlns="http://www.w3.org/2000/svg">
  <!-- First SVG -->
  <g class="first-svg" transform="translate(0,0)">
    <path d="M12.125 27.5L11.5 23.5625C11.1042 23.4167 10.6875 23.2188 10.25 22.9688C9.8125 22.7188 9.42708 22.4583 9.09375 22.1875L5.40625 23.875L2.5 18.75L5.875 16.2812C5.83333 16.0938 5.80729 15.8802 5.79688 15.6406C5.78646 15.401 5.78125 15.1875 5.78125 15C5.78125 14.8125 5.78646 14.599 5.79688 14.3594C5.80729 14.1198 5.83333 13.9062 5.875 13.7188L2.5 11.25L5.40625 6.125L9.09375 7.8125C9.42708 7.54167 9.8125 7.28125 10.25 7.03125C10.6875 6.78125 11.1042 6.59375 11.5 6.46875L12.125 2.5H17.875L18.5 6.4375C18.8958 6.58333 19.3177 6.77604 19.7656 7.01562C20.2135 7.25521 20.5938 7.52083 20.9062 7.8125L24.5938 6.125L27.5 11.25L24.125 13.6562C24.1667 13.8646 24.1927 14.0885 24.2031 14.3281C24.2135 14.5677 24.2188 14.7917 24.2188 15C24.2188 15.2083 24.2135 15.4271 24.2031 15.6562C24.1927 15.8854 24.1667 16.1042 24.125 16.3125L27.5 18.75L24.5938 23.875L20.9062 22.1875C20.5729 22.4583 20.1927 22.724 19.7656 22.9844C19.3385 23.2448 18.9167 23.4375 18.5 23.5625L17.875 27.5H12.125ZM15 19.0625C16.125 19.0625 17.0833 18.6667 17.875 17.875C18.6667 17.0833 19.0625 16.125 19.0625 15C19.0625 13.875 18.6667 12.9167 17.875 12.125C17.0833 11.3333 16.125 10.9375 15 10.9375C13.875 10.9375 12.9167 11.3333 12.125 12.125C11.3333 12.9167 10.9375 13.875 10.9375 15C10.9375 16.125 11.3333 17.0833 12.125 17.875C12.9167 18.6667 13.875 19.0625 15 19.0625Z" fill="#999999"/>
  </g>

  <!-- Second SVG -->
  <g class="second-svg"  transform="translate(0,30)">
    <path d="M12.125 27.5L11.5 23.5625C11.1042 23.4167 10.6875 23.2188 10.25 22.9688C9.8125 22.7188 9.42708 22.4583 9.09375 22.1875L5.40625 23.875L2.5 18.75L5.875 16.2812C5.83333 16.0938 5.80729 15.8802 5.79688 15.6406C5.78646 15.401 5.78125 15.1875 5.78125 15C5.78125 14.8125 5.78646 14.599 5.79688 14.3594C5.80729 14.1198 5.83333 13.9062 5.875 13.7188L2.5 11.25L5.40625 6.125L9.09375 7.8125C9.42708 7.54167 9.8125 7.28125 10.25 7.03125C10.6875 6.78125 11.1042 6.59375 11.5 6.46875L12.125 2.5H17.875L18.5 6.4375C18.8958 6.58333 19.3177 6.77604 19.7656 7.01562C20.2135 7.25521 20.5938 7.52083 20.9062 7.8125L24.5938 6.125L27.5 11.25L24.125 13.6562C24.1667 13.8646 24.1927 14.0885 24.2031 14.3281C24.2135 14.5677 24.2188 14.7917 24.2188 15C24.2188 15.2083 24.2135 15.4271 24.2031 15.6562C24.1927 15.8854 24.1667 16.1042 24.125 16.3125L27.5 18.75L24.5938 23.875L20.9062 22.1875C20.5729 22.4583 20.1927 22.724 19.7656 22.9844C19.3385 23.2448 18.9167 23.4375 18.5 23.5625L17.875 27.5H12.125ZM15 19.0625C16.125 19.0625 17.0833 18.6667 17.875 17.875C18.6667 17.0833 19.0625 16.125 19.0625 15C19.0625 13.875 18.6667 12.9167 17.875 12.125C17.0833 11.3333 16.125 10.9375 15 10.9375C13.875 10.9375 12.9167 11.3333 12.125 12.125C11.3333 12.9167 10.9375 13.875 10.9375 15C10.9375 16.125 11.3333 17.0833 12.125 17.875C12.9167 18.6667 13.875 19.0625 15 19.0625Z" fill="#8A85FF"/>
  </g>

  <g class="second-svg"  transform="translate(0,60)">
    <path d="M12.125 27.5L11.5 23.5625C11.1042 23.4167 10.6875 23.2188 10.25 22.9688C9.8125 22.7188 9.42708 22.4583 9.09375 22.1875L5.40625 23.875L2.5 18.75L5.875 16.2812C5.83333 16.0938 5.80729 15.8802 5.79688 15.6406C5.78646 15.401 5.78125 15.1875 5.78125 15C5.78125 14.8125 5.78646 14.599 5.79688 14.3594C5.80729 14.1198 5.83333 13.9062 5.875 13.7188L2.5 11.25L5.40625 6.125L9.09375 7.8125C9.42708 7.54167 9.8125 7.28125 10.25 7.03125C10.6875 6.78125 11.1042 6.59375 11.5 6.46875L12.125 2.5H17.875L18.5 6.4375C18.8958 6.58333 19.3177 6.77604 19.7656 7.01562C20.2135 7.25521 20.5938 7.52083 20.9062 7.8125L24.5938 6.125L27.5 11.25L24.125 13.6562C24.1667 13.8646 24.1927 14.0885 24.2031 14.3281C24.2135 14.5677 24.2188 14.7917 24.2188 15C24.2188 15.2083 24.2135 15.4271 24.2031 15.6562C24.1927 15.8854 24.1667 16.1042 24.125 16.3125L27.5 18.75L24.5938 23.875L20.9062 22.1875C20.5729 22.4583 20.1927 22.724 19.7656 22.9844C19.3385 23.2448 18.9167 23.4375 18.5 23.5625L17.875 27.5H12.125ZM15 19.0625C16.125 19.0625 17.0833 18.6667 17.875 17.875C18.6667 17.0833 19.0625 16.125 19.0625 15C19.0625 13.875 18.6667 12.9167 17.875 12.125C17.0833 11.3333 16.125 10.9375 15 10.9375C13.875 10.9375 12.9167 11.3333 12.125 12.125C11.3333 12.9167 10.9375 13.875 10.9375 15C10.9375 16.125 11.3333 17.0833 12.125 17.875C12.9167 18.6667 13.875 19.0625 15 19.0625Z" fill="#0068b4"/>
  </g>
</svg>