<svg width="20" height="75" viewBox="0 0 20 75" fill="none" xmlns="http://www.w3.org/2000/svg">
<g clip-path="url(#clip0_425_1692)" transform="translate(0,0)">
<path fill-rule="evenodd" clip-rule="evenodd" d="M0.666504 4.00016C0.666504 2.5274 1.86041 1.3335 3.33317 1.3335H16.6665C18.1393 1.3335 19.3332 2.5274 19.3332 4.00016V13.3335C19.3332 14.8063 18.1393 16.0002 16.6665 16.0002H9.33317L5.33317 20.0002V16.0002H3.33317C1.86041 16.0002 0.666504 14.8063 0.666504 13.3335V4.00016ZM5.99984 4.66683H13.9998V6.00016H5.99984V4.66683ZM16.6665 8.00016H3.33317V9.3335H16.6665V8.00016ZM5.99984 11.3335H13.9998V12.6668H5.99984V11.3335Z" fill="#999999"/>
</g>
<g clip-path="url(#clip0_425_1692)" transform="translate(0,25)">
<path fill-rule="evenodd" clip-rule="evenodd" d="M0.666504 4.00016C0.666504 2.5274 1.86041 1.3335 3.33317 1.3335H16.6665C18.1393 1.3335 19.3332 2.5274 19.3332 4.00016V13.3335C19.3332 14.8063 18.1393 16.0002 16.6665 16.0002H9.33317L5.33317 20.0002V16.0002H3.33317C1.86041 16.0002 0.666504 14.8063 0.666504 13.3335V4.00016ZM5.99984 4.66683H13.9998V6.00016H5.99984V4.66683ZM16.6665 8.00016H3.33317V9.3335H16.6665V8.00016ZM5.99984 11.3335H13.9998V12.6668H5.99984V11.3335Z" fill="#A1D103"/>
</g>
<g clip-path="url(#clip0_425_1692)" transform="translate(0,50)">
<path fill-rule="evenodd" clip-rule="evenodd" d="M0.666504 4.00016C0.666504 2.5274 1.86041 1.3335 3.33317 1.3335H16.6665C18.1393 1.3335 19.3332 2.5274 19.3332 4.00016V13.3335C19.3332 14.8063 18.1393 16.0002 16.6665 16.0002H9.33317L5.33317 20.0002V16.0002H3.33317C1.86041 16.0002 0.666504 14.8063 0.666504 13.3335V4.00016ZM5.99984 4.66683H13.9998V6.00016H5.99984V4.66683ZM16.6665 8.00016H3.33317V9.3335H16.6665V8.00016ZM5.99984 11.3335H13.9998V12.6668H5.99984V11.3335Z" fill="#a6daef"/>
</g>
<defs>
<clipPath id="clip0_425_1692">
<rect width="20" height="20" fill="white"/>
</clipPath>
</defs>
</svg>
