<svg width="32" height="32" viewBox="0 0 32 32" fill="none" xmlns="http://www.w3.org/2000/svg">
<path d="M24.9396 26.8732C24.6944 26.8732 24.4492 26.7829 24.2556 26.6022C23.8685 26.228 23.8685 25.6215 24.2427 25.2344C26.4493 22.989 27.6623 20.0211 27.6623 16.8725C27.6623 10.2913 22.3071 4.93611 15.726 4.93611C9.14486 4.93611 3.78963 10.2913 3.78963 16.8725C3.78963 20.0082 4.98972 22.9632 7.18342 25.2086C7.55765 25.5957 7.54474 26.2022 7.17052 26.5764C6.7834 26.9506 6.1769 26.9377 5.80268 26.5635C3.26056 23.9569 1.854 20.5114 1.854 16.8725C1.854 9.2203 8.07381 3.00049 15.726 3.00049C23.3782 3.00049 29.598 9.2203 29.598 16.8725C29.598 20.5243 28.1914 23.9827 25.6235 26.5893C25.4428 26.7829 25.1847 26.8732 24.9396 26.8732Z" fill="#0C0C0C"/>
<path d="M15.7261 29.1313C18.4912 29.1313 20.7329 26.8897 20.7329 24.1245C20.7329 21.3593 18.4912 19.1177 15.7261 19.1177C12.9609 19.1177 10.7192 21.3593 10.7192 24.1245C10.7192 26.8897 12.9609 29.1313 15.7261 29.1313Z" fill="#0C0C0C"/>
<path d="M20.888 11.7109C19.4685 11.7109 18.3071 12.8723 18.3071 14.2918V15.2596C18.3071 16.15 19.0298 16.8726 19.9201 16.8726H20.888C22.3074 16.8726 23.4688 15.7112 23.4688 14.2918C23.4688 12.8723 22.3074 11.7109 20.888 11.7109Z" fill="#0C0C0C"/>
</svg>
