<svg width="25" height="28" viewBox="0 0 25 28" fill="none" xmlns="http://www.w3.org/2000/svg">
<path d="M12.6411 0.105742C13.0442 0.105742 13.5187 0.363299 14.0283 1.04039C14.5307 1.70792 15.0037 2.7045 15.4095 3.97906C15.9751 5.75602 16.3937 8.02094 16.5946 10.5664C16.11 10.2689 15.612 9.9753 15.1021 9.68705C12.9556 8.47365 10.8313 7.48713 8.87291 6.76203C9.62444 2.709 10.9881 0 12.5456 0C12.5775 0 12.6094 0.00113972 12.6411 0.00340739V0.105742Z" fill="#A1D103"/>
<path d="M0.186403 6.98176C-0.643143 8.38869 1.3567 11.1463 4.97905 14.0006C1.35735 16.8544 -0.642313 19.6116 0.186382 21.0186L0.279747 20.9658C0.481268 21.3076 0.946316 21.5811 1.80001 21.6747C2.64166 21.7669 3.75966 21.6697 5.08991 21.3765C7.7444 20.7913 11.1324 19.4509 14.6126 17.4836C15.3252 17.0808 16.0126 16.6681 16.6712 16.2496C16.7082 15.5176 16.7275 14.7662 16.7275 14C16.7275 13.2339 16.7082 12.4827 16.6712 11.7507C16.0127 11.3323 15.3253 10.9197 14.6128 10.5169C11.1327 8.54964 7.74463 7.20916 5.09013 6.624C3.75989 6.33076 2.64188 6.23356 1.80024 6.3258C0.946539 6.41937 0.481492 6.6929 0.279971 7.03465L0.186403 6.98176Z" fill="#A1D103"/>
<path d="M17.6788 12.4104C17.6969 12.9328 17.7061 13.4632 17.7061 14C17.7061 14.5369 17.6969 15.0674 17.6788 15.5899C18.4597 15.0629 19.1928 14.5304 19.8709 14.0002C19.1928 13.47 18.4597 12.9374 17.6788 12.4104Z" fill="#A1D103"/>
<path d="M20.6428 14.6222C21.472 15.3118 22.2023 15.9919 22.8175 16.6449C23.7419 17.6263 24.3869 18.5256 24.7262 19.2854C25.0702 20.0561 25.0608 20.5872 24.8593 20.9289L24.9529 20.9818C24.1771 22.2973 21.1197 22.1056 17.181 20.7308C17.3852 19.5047 17.535 18.1792 17.6212 16.7851C18.7134 16.0742 19.7265 15.3472 20.6428 14.6222Z" fill="#A1D103"/>
<path d="M20.6428 13.3781C19.7265 12.6531 18.7134 11.9261 17.6212 11.2153C17.5351 9.82143 17.3853 8.49609 17.1812 7.27017C21.1194 5.8955 24.1765 5.70365 24.9528 7.01859L24.8591 7.07159C25.0606 7.41333 25.07 7.94443 24.7259 8.71508C24.3867 9.47485 23.7417 10.3742 22.8172 11.3556C22.2021 12.0085 21.4719 12.6886 20.6428 13.3781Z" fill="#A1D103"/>
<path d="M15.1019 18.3134C15.6119 18.0252 16.1099 17.7315 16.5946 17.434C16.3937 19.9793 15.9751 22.2441 15.4095 24.0209C15.0037 25.2955 14.5307 26.2921 14.0283 26.9596C13.5187 27.6367 13.0442 27.8943 12.6411 27.8943V27.9966C12.6094 27.9989 12.5775 28 12.5456 28C10.9881 28 9.62452 25.2912 8.87299 21.2384C10.8313 20.5133 12.9555 19.5268 15.1019 18.3134Z" fill="#A1D103"/>
</svg>
