<svg width="34" height="105" viewBox="0 0 34 105" fill="none" xmlns="http://www.w3.org/2000/svg">
<g transform="translate(0,0)">
  <path d="M31.2279 5.42325C31.084 5.22324 30.8736 5.08104 30.6343 5.02218C30.395 4.96332 30.1426 4.99164 29.9223 5.10207L28.565 5.77551L29.2385 4.41827C29.3511 4.19823 29.3814 3.94516 29.3238 3.70477C29.2661 3.46438 29.1245 3.25251 28.9243 3.10741C28.7242 2.96232 28.4787 2.89356 28.2323 2.91355C27.9859 2.93355 27.7548 3.04098 27.5806 3.21644L23.436 7.36068C23.34 7.45749 23.264 7.5723 23.2125 7.69853C23.1609 7.82476 23.1348 7.95993 23.1355 8.09628V9.74362L16.183 16.6852C16.0858 16.7815 16.0088 16.8961 15.9562 17.0224C15.9035 17.1486 15.8765 17.284 15.8765 17.4208C15.8765 17.5576 15.9035 17.693 15.9562 17.8193C16.0088 17.9455 16.0858 18.0601 16.183 18.1564C16.2793 18.2535 16.3939 18.3306 16.5201 18.3832C16.6464 18.4358 16.7818 18.4629 16.9186 18.4629C17.0554 18.4629 17.1908 18.4358 17.3171 18.3832C17.4434 18.3306 17.558 18.2535 17.6543 18.1564L24.5965 11.2045H26.244C26.3804 11.2052 26.5155 11.1791 26.6418 11.1276C26.768 11.076 26.8829 11 26.9797 10.904L31.1243 6.75977C31.2971 6.58539 31.4024 6.3553 31.4214 6.11052C31.4404 5.86574 31.3718 5.62218 31.2279 5.42325Z" fill="#999999"/>
  <path d="M13.9034 16.6869C13.9395 16.5267 13.9916 16.3705 14.0588 16.2207C14.0532 16.2038 14.0532 16.1857 14.0588 16.1689C14.2091 15.8156 14.4274 15.4952 14.7012 15.226L17.6128 12.3147C17.3832 12.2756 17.1513 12.2513 16.9186 12.2422C15.8939 12.2422 14.8923 12.546 14.0403 13.1152C13.1883 13.6844 12.5243 14.4935 12.1322 15.4401C11.74 16.3866 11.6374 17.4282 11.8373 18.4331C12.0372 19.438 12.5307 20.361 13.2552 21.0855C13.9797 21.81 14.9029 22.3034 15.9078 22.5032C16.9128 22.7031 17.9545 22.6005 18.9012 22.2085C19.8478 21.8164 20.6569 21.1524 21.2262 20.3005C21.7955 19.4486 22.0993 18.4471 22.0993 17.4225C22.0911 17.1828 22.0669 16.944 22.0268 16.7076L19.1152 19.6189C18.8479 19.8902 18.5314 20.1082 18.1827 20.2613H18.1205C17.9706 20.3285 17.8144 20.3805 17.6542 20.4167H17.5403C17.13 20.5004 16.7071 20.5004 16.2969 20.4167H16.1829C16.0227 20.3805 15.8665 20.3285 15.7166 20.2613H15.6648C14.9576 19.9485 14.3923 19.3833 14.0795 18.6761C14.074 18.6593 14.074 18.6411 14.0795 18.6243C14.0123 18.4745 13.9602 18.3183 13.9241 18.1581V18.0441C13.8403 17.6339 13.8403 17.211 13.9241 16.8008L13.9034 16.6869Z" fill="#999999"/>
  <path d="M20.9286 9.01585C19.6796 8.40701 18.3081 8.09162 16.9186 8.09376C15.0743 8.09376 13.2713 8.64064 11.7377 9.66523C10.2042 10.6898 9.00893 12.1461 8.30312 13.85C7.5973 15.5538 7.41263 17.4286 7.77245 19.2374C8.13227 21.0462 9.02043 22.7077 10.3246 24.0117C11.6288 25.3158 13.2904 26.2039 15.0994 26.5637C16.9083 26.9235 18.7833 26.7388 20.4873 26.033C22.1913 25.3273 23.6477 24.1321 24.6724 22.5987C25.6971 21.0653 26.244 19.2625 26.244 17.4183C26.2462 16.029 25.9307 14.6576 25.3218 13.4087L23.7469 14.9939C24.2985 16.5449 24.306 18.2374 23.7682 19.7932C23.2303 21.349 22.1792 22.6756 20.7875 23.5549C19.3957 24.4342 17.7463 24.814 16.1101 24.6317C14.4739 24.4495 12.9485 23.7161 11.7844 22.5521C10.6203 21.3881 9.88682 19.8628 9.70457 18.2268C9.52232 16.5908 9.9021 14.9414 10.7815 13.5498C11.6609 12.1582 12.9876 11.1072 14.5435 10.5694C16.0995 10.0316 17.7921 10.0391 19.3432 10.5907L20.9286 9.01585Z" fill="#999999"/>
  <path d="M28.4407 12.3622C28.1439 12.6537 27.7916 12.8827 27.4046 13.0356C27.9998 14.4204 28.3099 15.9109 28.3164 17.4182C28.3164 19.6722 27.6479 21.8756 26.3956 23.7498C25.1432 25.624 23.3631 27.0847 21.2804 27.9473C19.1978 28.8099 16.9061 29.0356 14.6951 28.5958C12.4842 28.1561 10.4533 27.0707 8.85935 25.4768C7.26535 23.883 6.17983 21.8523 5.74005 19.6415C5.30026 17.4308 5.52598 15.1393 6.38864 13.0568C7.2513 10.9744 8.71217 9.19446 10.5865 7.94218C12.4609 6.6899 14.6645 6.0215 16.9187 6.0215C18.424 6.01814 19.9145 6.31764 21.3017 6.90215C21.4545 6.51521 21.6836 6.16289 21.9752 5.86609L22.6279 5.20301C20.8411 4.36777 18.8911 3.93959 16.9187 3.94938C14.2546 3.94938 11.6503 4.73931 9.4352 6.21928C7.22007 7.69925 5.49359 9.80278 4.47408 12.2639C3.45457 14.725 3.18782 17.4331 3.70756 20.0458C4.2273 22.6585 5.51019 25.0584 7.394 26.942C9.27782 28.8257 11.6779 30.1084 14.2909 30.6281C16.9038 31.1478 19.6121 30.8811 22.0735 29.8617C24.5348 28.8423 26.6385 27.1159 28.1186 24.901C29.5987 22.6861 30.3887 20.082 30.3887 17.4182C30.3888 15.4436 29.9499 13.4937 29.1039 11.7095L28.4407 12.3622Z" fill="#999999"/>
</g>
<g transform="translate(0,36)">
  <path d="M31.2279 5.42325C31.084 5.22324 30.8736 5.08104 30.6343 5.02218C30.395 4.96332 30.1426 4.99164 29.9223 5.10207L28.565 5.77551L29.2385 4.41827C29.3511 4.19823 29.3814 3.94516 29.3238 3.70477C29.2661 3.46438 29.1245 3.25251 28.9243 3.10741C28.7242 2.96232 28.4787 2.89356 28.2323 2.91355C27.9859 2.93355 27.7548 3.04098 27.5806 3.21644L23.436 7.36068C23.34 7.45749 23.264 7.5723 23.2125 7.69853C23.1609 7.82476 23.1348 7.95993 23.1355 8.09628V9.74362L16.183 16.6852C16.0858 16.7815 16.0088 16.8961 15.9562 17.0224C15.9035 17.1486 15.8765 17.284 15.8765 17.4208C15.8765 17.5576 15.9035 17.693 15.9562 17.8193C16.0088 17.9455 16.0858 18.0601 16.183 18.1564C16.2793 18.2535 16.3939 18.3306 16.5201 18.3832C16.6464 18.4358 16.7818 18.4629 16.9186 18.4629C17.0554 18.4629 17.1908 18.4358 17.3171 18.3832C17.4434 18.3306 17.558 18.2535 17.6543 18.1564L24.5965 11.2045H26.244C26.3804 11.2052 26.5155 11.1791 26.6418 11.1276C26.768 11.076 26.8829 11 26.9797 10.904L31.1243 6.75977C31.2971 6.58539 31.4024 6.3553 31.4214 6.11052C31.4404 5.86574 31.3718 5.62218 31.2279 5.42325Z" fill="#A1D103"/>
  <path d="M13.9034 16.6869C13.9395 16.5267 13.9916 16.3705 14.0588 16.2207C14.0532 16.2038 14.0532 16.1857 14.0588 16.1689C14.2091 15.8156 14.4274 15.4952 14.7012 15.226L17.6128 12.3147C17.3832 12.2756 17.1513 12.2513 16.9186 12.2422C15.8939 12.2422 14.8923 12.546 14.0403 13.1152C13.1883 13.6844 12.5243 14.4935 12.1322 15.4401C11.74 16.3866 11.6374 17.4282 11.8373 18.4331C12.0372 19.438 12.5307 20.361 13.2552 21.0855C13.9797 21.81 14.9029 22.3034 15.9078 22.5032C16.9128 22.7031 17.9545 22.6005 18.9012 22.2085C19.8478 21.8164 20.6569 21.1524 21.2262 20.3005C21.7955 19.4486 22.0993 18.4471 22.0993 17.4225C22.0911 17.1828 22.0669 16.944 22.0268 16.7076L19.1152 19.6189C18.8479 19.8902 18.5314 20.1082 18.1827 20.2613H18.1205C17.9706 20.3285 17.8144 20.3805 17.6542 20.4167H17.5403C17.13 20.5004 16.7071 20.5004 16.2969 20.4167H16.1829C16.0227 20.3805 15.8665 20.3285 15.7166 20.2613H15.6648C14.9576 19.9485 14.3923 19.3833 14.0795 18.6761C14.074 18.6593 14.074 18.6411 14.0795 18.6243C14.0123 18.4745 13.9602 18.3183 13.9241 18.1581V18.0441C13.8403 17.6339 13.8403 17.211 13.9241 16.8008L13.9034 16.6869Z" fill="#A1D103"/>
  <path d="M20.9286 9.01585C19.6796 8.40701 18.3081 8.09162 16.9186 8.09376C15.0743 8.09376 13.2713 8.64064 11.7377 9.66523C10.2042 10.6898 9.00893 12.1461 8.30312 13.85C7.5973 15.5538 7.41263 17.4286 7.77245 19.2374C8.13227 21.0462 9.02043 22.7077 10.3246 24.0117C11.6288 25.3158 13.2904 26.2039 15.0994 26.5637C16.9083 26.9235 18.7833 26.7388 20.4873 26.033C22.1913 25.3273 23.6477 24.1321 24.6724 22.5987C25.6971 21.0653 26.244 19.2625 26.244 17.4183C26.2462 16.029 25.9307 14.6576 25.3218 13.4087L23.7469 14.9939C24.2985 16.5449 24.306 18.2374 23.7682 19.7932C23.2303 21.349 22.1792 22.6756 20.7875 23.5549C19.3957 24.4342 17.7463 24.814 16.1101 24.6317C14.4739 24.4495 12.9485 23.7161 11.7844 22.5521C10.6203 21.3881 9.88682 19.8628 9.70457 18.2268C9.52232 16.5908 9.9021 14.9414 10.7815 13.5498C11.6609 12.1582 12.9876 11.1072 14.5435 10.5694C16.0995 10.0316 17.7921 10.0391 19.3432 10.5907L20.9286 9.01585Z" fill="#A1D103"/>
  <path d="M28.4407 12.3622C28.1439 12.6537 27.7916 12.8827 27.4046 13.0356C27.9998 14.4204 28.3099 15.9109 28.3164 17.4182C28.3164 19.6722 27.6479 21.8756 26.3956 23.7498C25.1432 25.624 23.3631 27.0847 21.2804 27.9473C19.1978 28.8099 16.9061 29.0356 14.6951 28.5958C12.4842 28.1561 10.4533 27.0707 8.85935 25.4768C7.26535 23.883 6.17983 21.8523 5.74005 19.6415C5.30026 17.4308 5.52598 15.1393 6.38864 13.0568C7.2513 10.9744 8.71217 9.19446 10.5865 7.94218C12.4609 6.6899 14.6645 6.0215 16.9187 6.0215C18.424 6.01814 19.9145 6.31764 21.3017 6.90215C21.4545 6.51521 21.6836 6.16289 21.9752 5.86609L22.6279 5.20301C20.8411 4.36777 18.8911 3.93959 16.9187 3.94938C14.2546 3.94938 11.6503 4.73931 9.4352 6.21928C7.22007 7.69925 5.49359 9.80278 4.47408 12.2639C3.45457 14.725 3.18782 17.4331 3.70756 20.0458C4.2273 22.6585 5.51019 25.0584 7.394 26.942C9.27782 28.8257 11.6779 30.1084 14.2909 30.6281C16.9038 31.1478 19.6121 30.8811 22.0735 29.8617C24.5348 28.8423 26.6385 27.1159 28.1186 24.901C29.5987 22.6861 30.3887 20.082 30.3887 17.4182C30.3888 15.4436 29.9499 13.4937 29.1039 11.7095L28.4407 12.3622Z" fill="#A1D103"/>
</g>
<g transform="translate(0,70)">
  <path d="M31.2279 5.42325C31.084 5.22324 30.8736 5.08104 30.6343 5.02218C30.395 4.96332 30.1426 4.99164 29.9223 5.10207L28.565 5.77551L29.2385 4.41827C29.3511 4.19823 29.3814 3.94516 29.3238 3.70477C29.2661 3.46438 29.1245 3.25251 28.9243 3.10741C28.7242 2.96232 28.4787 2.89356 28.2323 2.91355C27.9859 2.93355 27.7548 3.04098 27.5806 3.21644L23.436 7.36068C23.34 7.45749 23.264 7.5723 23.2125 7.69853C23.1609 7.82476 23.1348 7.95993 23.1355 8.09628V9.74362L16.183 16.6852C16.0858 16.7815 16.0088 16.8961 15.9562 17.0224C15.9035 17.1486 15.8765 17.284 15.8765 17.4208C15.8765 17.5576 15.9035 17.693 15.9562 17.8193C16.0088 17.9455 16.0858 18.0601 16.183 18.1564C16.2793 18.2535 16.3939 18.3306 16.5201 18.3832C16.6464 18.4358 16.7818 18.4629 16.9186 18.4629C17.0554 18.4629 17.1908 18.4358 17.3171 18.3832C17.4434 18.3306 17.558 18.2535 17.6543 18.1564L24.5965 11.2045H26.244C26.3804 11.2052 26.5155 11.1791 26.6418 11.1276C26.768 11.076 26.8829 11 26.9797 10.904L31.1243 6.75977C31.2971 6.58539 31.4024 6.3553 31.4214 6.11052C31.4404 5.86574 31.3718 5.62218 31.2279 5.42325Z" fill="#a6daef"/>
  <path d="M13.9034 16.6869C13.9395 16.5267 13.9916 16.3705 14.0588 16.2207C14.0532 16.2038 14.0532 16.1857 14.0588 16.1689C14.2091 15.8156 14.4274 15.4952 14.7012 15.226L17.6128 12.3147C17.3832 12.2756 17.1513 12.2513 16.9186 12.2422C15.8939 12.2422 14.8923 12.546 14.0403 13.1152C13.1883 13.6844 12.5243 14.4935 12.1322 15.4401C11.74 16.3866 11.6374 17.4282 11.8373 18.4331C12.0372 19.438 12.5307 20.361 13.2552 21.0855C13.9797 21.81 14.9029 22.3034 15.9078 22.5032C16.9128 22.7031 17.9545 22.6005 18.9012 22.2085C19.8478 21.8164 20.6569 21.1524 21.2262 20.3005C21.7955 19.4486 22.0993 18.4471 22.0993 17.4225C22.0911 17.1828 22.0669 16.944 22.0268 16.7076L19.1152 19.6189C18.8479 19.8902 18.5314 20.1082 18.1827 20.2613H18.1205C17.9706 20.3285 17.8144 20.3805 17.6542 20.4167H17.5403C17.13 20.5004 16.7071 20.5004 16.2969 20.4167H16.1829C16.0227 20.3805 15.8665 20.3285 15.7166 20.2613H15.6648C14.9576 19.9485 14.3923 19.3833 14.0795 18.6761C14.074 18.6593 14.074 18.6411 14.0795 18.6243C14.0123 18.4745 13.9602 18.3183 13.9241 18.1581V18.0441C13.8403 17.6339 13.8403 17.211 13.9241 16.8008L13.9034 16.6869Z" fill="#a6daef"/>
  <path d="M20.9286 9.01585C19.6796 8.40701 18.3081 8.09162 16.9186 8.09376C15.0743 8.09376 13.2713 8.64064 11.7377 9.66523C10.2042 10.6898 9.00893 12.1461 8.30312 13.85C7.5973 15.5538 7.41263 17.4286 7.77245 19.2374C8.13227 21.0462 9.02043 22.7077 10.3246 24.0117C11.6288 25.3158 13.2904 26.2039 15.0994 26.5637C16.9083 26.9235 18.7833 26.7388 20.4873 26.033C22.1913 25.3273 23.6477 24.1321 24.6724 22.5987C25.6971 21.0653 26.244 19.2625 26.244 17.4183C26.2462 16.029 25.9307 14.6576 25.3218 13.4087L23.7469 14.9939C24.2985 16.5449 24.306 18.2374 23.7682 19.7932C23.2303 21.349 22.1792 22.6756 20.7875 23.5549C19.3957 24.4342 17.7463 24.814 16.1101 24.6317C14.4739 24.4495 12.9485 23.7161 11.7844 22.5521C10.6203 21.3881 9.88682 19.8628 9.70457 18.2268C9.52232 16.5908 9.9021 14.9414 10.7815 13.5498C11.6609 12.1582 12.9876 11.1072 14.5435 10.5694C16.0995 10.0316 17.7921 10.0391 19.3432 10.5907L20.9286 9.01585Z" fill="#a6daef"/>
  <path d="M28.4407 12.3622C28.1439 12.6537 27.7916 12.8827 27.4046 13.0356C27.9998 14.4204 28.3099 15.9109 28.3164 17.4182C28.3164 19.6722 27.6479 21.8756 26.3956 23.7498C25.1432 25.624 23.3631 27.0847 21.2804 27.9473C19.1978 28.8099 16.9061 29.0356 14.6951 28.5958C12.4842 28.1561 10.4533 27.0707 8.85935 25.4768C7.26535 23.883 6.17983 21.8523 5.74005 19.6415C5.30026 17.4308 5.52598 15.1393 6.38864 13.0568C7.2513 10.9744 8.71217 9.19446 10.5865 7.94218C12.4609 6.6899 14.6645 6.0215 16.9187 6.0215C18.424 6.01814 19.9145 6.31764 21.3017 6.90215C21.4545 6.51521 21.6836 6.16289 21.9752 5.86609L22.6279 5.20301C20.8411 4.36777 18.8911 3.93959 16.9187 3.94938C14.2546 3.94938 11.6503 4.73931 9.4352 6.21928C7.22007 7.69925 5.49359 9.80278 4.47408 12.2639C3.45457 14.725 3.18782 17.4331 3.70756 20.0458C4.2273 22.6585 5.51019 25.0584 7.394 26.942C9.27782 28.8257 11.6779 30.1084 14.2909 30.6281C16.9038 31.1478 19.6121 30.8811 22.0735 29.8617C24.5348 28.8423 26.6385 27.1159 28.1186 24.901C29.5987 22.6861 30.3887 20.082 30.3887 17.4182C30.3888 15.4436 29.9499 13.4937 29.1039 11.7095L28.4407 12.3622Z" fill="#a6daef"/>
</g>
</svg>
