<svg width="21" height="100" viewBox="0 0 21 100" fill="none" xmlns="http://www.w3.org/2000/svg">
<g transform="translate(0,0)">
<path d="M14.1152 12.8672C13.2819 12.8672 12.5736 12.5755 11.9902 11.9922C11.4069 11.4089 11.1152 10.7005 11.1152 9.86719C11.1152 9.03385 11.4069 8.32552 11.9902 7.74219C12.5736 7.15885 13.2819 6.86719 14.1152 6.86719C14.9486 6.86719 15.6569 7.15885 16.2402 7.74219C16.8236 8.32552 17.1152 9.03385 17.1152 9.86719C17.1152 10.7005 16.8236 11.4089 16.2402 11.9922C15.6569 12.5755 14.9486 12.8672 14.1152 12.8672ZM8.11523 19.8672V16.9672C8.11523 16.6172 8.19857 16.288 8.36523 15.9797C8.5319 15.6714 8.76523 15.4255 9.06523 15.2422C9.5319 14.9589 10.0152 14.713 10.5152 14.5047C11.0152 14.2964 11.5319 14.1255 12.0652 13.9922L14.1152 16.6422L16.1652 13.9922C16.6986 14.1255 17.2111 14.2964 17.7027 14.5047C18.1944 14.713 18.6736 14.9589 19.1402 15.2422C19.4402 15.4255 19.6777 15.6714 19.8527 15.9797C20.0277 16.288 20.1152 16.6172 20.1152 16.9672V19.8672H8.11523ZM6.61523 16.9672V18.1172H1.61523C1.20273 18.1172 0.849609 17.9703 0.555859 17.6766C0.262109 17.3828 0.115234 17.0297 0.115234 16.6172V1.61719C0.115234 1.20469 0.262109 0.851562 0.555859 0.557813C0.849609 0.264063 1.20273 0.117188 1.61523 0.117188H16.6152C17.0277 0.117188 17.3809 0.264063 17.6746 0.557813C17.9684 0.851562 18.1152 1.20469 18.1152 1.61719V7.79219C17.7319 7.04219 17.1819 6.45052 16.4652 6.01719C15.7486 5.58385 14.9652 5.36719 14.1152 5.36719V4.11719H4.11523V5.61719H12.6402C12.0069 5.85052 11.4444 6.20885 10.9527 6.69219C10.4611 7.17552 10.0986 7.73385 9.86523 8.36719H4.11523V9.86719H9.61523C9.61523 10.3839 9.69857 10.8755 9.86523 11.3422C10.0319 11.8089 10.2652 12.2339 10.5652 12.6172H4.11523V14.1172H8.04023C7.59023 14.4505 7.24023 14.8714 6.99023 15.3797C6.74023 15.888 6.61523 16.4172 6.61523 16.9672Z" fill="white"/>
</g>
<g transform="translate(0,25)">
<path d="M14.1152 12.8672C13.2819 12.8672 12.5736 12.5755 11.9902 11.9922C11.4069 11.4089 11.1152 10.7005 11.1152 9.86719C11.1152 9.03385 11.4069 8.32552 11.9902 7.74219C12.5736 7.15885 13.2819 6.86719 14.1152 6.86719C14.9486 6.86719 15.6569 7.15885 16.2402 7.74219C16.8236 8.32552 17.1152 9.03385 17.1152 9.86719C17.1152 10.7005 16.8236 11.4089 16.2402 11.9922C15.6569 12.5755 14.9486 12.8672 14.1152 12.8672ZM8.11523 19.8672V16.9672C8.11523 16.6172 8.19857 16.288 8.36523 15.9797C8.5319 15.6714 8.76523 15.4255 9.06523 15.2422C9.5319 14.9589 10.0152 14.713 10.5152 14.5047C11.0152 14.2964 11.5319 14.1255 12.0652 13.9922L14.1152 16.6422L16.1652 13.9922C16.6986 14.1255 17.2111 14.2964 17.7027 14.5047C18.1944 14.713 18.6736 14.9589 19.1402 15.2422C19.4402 15.4255 19.6777 15.6714 19.8527 15.9797C20.0277 16.288 20.1152 16.6172 20.1152 16.9672V19.8672H8.11523ZM6.61523 16.9672V18.1172H1.61523C1.20273 18.1172 0.849609 17.9703 0.555859 17.6766C0.262109 17.3828 0.115234 17.0297 0.115234 16.6172V1.61719C0.115234 1.20469 0.262109 0.851562 0.555859 0.557813C0.849609 0.264063 1.20273 0.117188 1.61523 0.117188H16.6152C17.0277 0.117188 17.3809 0.264063 17.6746 0.557813C17.9684 0.851562 18.1152 1.20469 18.1152 1.61719V7.79219C17.7319 7.04219 17.1819 6.45052 16.4652 6.01719C15.7486 5.58385 14.9652 5.36719 14.1152 5.36719V4.11719H4.11523V5.61719H12.6402C12.0069 5.85052 11.4444 6.20885 10.9527 6.69219C10.4611 7.17552 10.0986 7.73385 9.86523 8.36719H4.11523V9.86719H9.61523C9.61523 10.3839 9.69857 10.8755 9.86523 11.3422C10.0319 11.8089 10.2652 12.2339 10.5652 12.6172H4.11523V14.1172H8.04023C7.59023 14.4505 7.24023 14.8714 6.99023 15.3797C6.74023 15.888 6.61523 16.4172 6.61523 16.9672Z" fill="#999999"/>
</g>
<g transform="translate(0,50)">
<path d="M14.1152 12.8672C13.2819 12.8672 12.5736 12.5755 11.9902 11.9922C11.4069 11.4089 11.1152 10.7005 11.1152 9.86719C11.1152 9.03385 11.4069 8.32552 11.9902 7.74219C12.5736 7.15885 13.2819 6.86719 14.1152 6.86719C14.9486 6.86719 15.6569 7.15885 16.2402 7.74219C16.8236 8.32552 17.1152 9.03385 17.1152 9.86719C17.1152 10.7005 16.8236 11.4089 16.2402 11.9922C15.6569 12.5755 14.9486 12.8672 14.1152 12.8672ZM8.11523 19.8672V16.9672C8.11523 16.6172 8.19857 16.288 8.36523 15.9797C8.5319 15.6714 8.76523 15.4255 9.06523 15.2422C9.5319 14.9589 10.0152 14.713 10.5152 14.5047C11.0152 14.2964 11.5319 14.1255 12.0652 13.9922L14.1152 16.6422L16.1652 13.9922C16.6986 14.1255 17.2111 14.2964 17.7027 14.5047C18.1944 14.713 18.6736 14.9589 19.1402 15.2422C19.4402 15.4255 19.6777 15.6714 19.8527 15.9797C20.0277 16.288 20.1152 16.6172 20.1152 16.9672V19.8672H8.11523ZM6.61523 16.9672V18.1172H1.61523C1.20273 18.1172 0.849609 17.9703 0.555859 17.6766C0.262109 17.3828 0.115234 17.0297 0.115234 16.6172V1.61719C0.115234 1.20469 0.262109 0.851562 0.555859 0.557813C0.849609 0.264063 1.20273 0.117188 1.61523 0.117188H16.6152C17.0277 0.117188 17.3809 0.264063 17.6746 0.557813C17.9684 0.851562 18.1152 1.20469 18.1152 1.61719V7.79219C17.7319 7.04219 17.1819 6.45052 16.4652 6.01719C15.7486 5.58385 14.9652 5.36719 14.1152 5.36719V4.11719H4.11523V5.61719H12.6402C12.0069 5.85052 11.4444 6.20885 10.9527 6.69219C10.4611 7.17552 10.0986 7.73385 9.86523 8.36719H4.11523V9.86719H9.61523C9.61523 10.3839 9.69857 10.8755 9.86523 11.3422C10.0319 11.8089 10.2652 12.2339 10.5652 12.6172H4.11523V14.1172H8.04023C7.59023 14.4505 7.24023 14.8714 6.99023 15.3797C6.74023 15.888 6.61523 16.4172 6.61523 16.9672Z" fill="#8A85FF"/>
</g>
<g transform="translate(0,75)">
<path d="M14.1152 12.8672C13.2819 12.8672 12.5736 12.5755 11.9902 11.9922C11.4069 11.4089 11.1152 10.7005 11.1152 9.86719C11.1152 9.03385 11.4069 8.32552 11.9902 7.74219C12.5736 7.15885 13.2819 6.86719 14.1152 6.86719C14.9486 6.86719 15.6569 7.15885 16.2402 7.74219C16.8236 8.32552 17.1152 9.03385 17.1152 9.86719C17.1152 10.7005 16.8236 11.4089 16.2402 11.9922C15.6569 12.5755 14.9486 12.8672 14.1152 12.8672ZM8.11523 19.8672V16.9672C8.11523 16.6172 8.19857 16.288 8.36523 15.9797C8.5319 15.6714 8.76523 15.4255 9.06523 15.2422C9.5319 14.9589 10.0152 14.713 10.5152 14.5047C11.0152 14.2964 11.5319 14.1255 12.0652 13.9922L14.1152 16.6422L16.1652 13.9922C16.6986 14.1255 17.2111 14.2964 17.7027 14.5047C18.1944 14.713 18.6736 14.9589 19.1402 15.2422C19.4402 15.4255 19.6777 15.6714 19.8527 15.9797C20.0277 16.288 20.1152 16.6172 20.1152 16.9672V19.8672H8.11523ZM6.61523 16.9672V18.1172H1.61523C1.20273 18.1172 0.849609 17.9703 0.555859 17.6766C0.262109 17.3828 0.115234 17.0297 0.115234 16.6172V1.61719C0.115234 1.20469 0.262109 0.851562 0.555859 0.557813C0.849609 0.264063 1.20273 0.117188 1.61523 0.117188H16.6152C17.0277 0.117188 17.3809 0.264063 17.6746 0.557813C17.9684 0.851562 18.1152 1.20469 18.1152 1.61719V7.79219C17.7319 7.04219 17.1819 6.45052 16.4652 6.01719C15.7486 5.58385 14.9652 5.36719 14.1152 5.36719V4.11719H4.11523V5.61719H12.6402C12.0069 5.85052 11.4444 6.20885 10.9527 6.69219C10.4611 7.17552 10.0986 7.73385 9.86523 8.36719H4.11523V9.86719H9.61523C9.61523 10.3839 9.69857 10.8755 9.86523 11.3422C10.0319 11.8089 10.2652 12.2339 10.5652 12.6172H4.11523V14.1172H8.04023C7.59023 14.4505 7.24023 14.8714 6.99023 15.3797C6.74023 15.888 6.61523 16.4172 6.61523 16.9672Z" fill="#0068b4"/>
</g>
</svg>
