<svg width="35" height="105" viewBox="0 0 35 105" fill="none" xmlns="http://www.w3.org/2000/svg">
<g transform="translate(0,0)">
  <path d="M13.3029 4.29868V2.22656H21.5921V4.29868H13.3029ZM16.4114 19.736H18.4837V11.7928H16.4114V19.736ZM17.4475 31.2017C15.7436 31.2017 14.1376 30.8736 12.6294 30.2174C11.1212 29.5613 9.803 28.6691 8.67475 27.5409C7.54649 26.4128 6.65425 25.0947 5.99802 23.5867C5.34179 22.0786 5.01367 20.4727 5.01367 18.769C5.01367 17.0652 5.34179 15.4593 5.99802 13.9513C6.65425 12.4433 7.54649 11.1252 8.67475 9.99701C9.803 8.86885 11.1212 7.97669 12.6294 7.32052C14.1376 6.66435 15.7436 6.33627 17.4475 6.33627C18.9902 6.33627 20.4408 6.59528 21.7994 7.11331C23.1579 7.63134 24.3667 8.35082 25.4259 9.27177L27.1873 7.51047L28.638 8.96095L26.8765 10.7222C27.7054 11.6432 28.4135 12.7598 29.0006 14.0722C29.5878 15.3845 29.8813 16.9501 29.8813 18.769C29.8813 20.4727 29.5532 22.0786 28.897 23.5867C28.2408 25.0947 27.3485 26.4128 26.2203 27.5409C25.092 28.6691 23.7738 29.5613 22.2656 30.2174C20.7574 30.8736 19.1514 31.2017 17.4475 31.2017ZM17.4475 29.1296C20.3257 29.1296 22.7722 28.1223 24.7869 26.1077C26.8017 24.0932 27.809 21.6469 27.809 18.769C27.809 15.891 26.8017 13.4448 24.7869 11.4302C22.7722 9.41566 20.3257 8.40838 17.4475 8.40838C14.5693 8.40838 12.1228 9.41566 10.1081 11.4302C8.09335 13.4448 7.08598 15.891 7.08598 18.769C7.08598 21.6469 8.09335 24.0932 10.1081 26.1077C12.1228 28.1223 14.5693 29.1296 17.4475 29.1296Z" fill="#999999"/>
</g>
<g transform="translate(0,36)">
<path d="M13.3029 4.29868V2.22656H21.5921V4.29868H13.3029ZM16.4114 19.736H18.4837V11.7928H16.4114V19.736ZM17.4475 31.2017C15.7436 31.2017 14.1376 30.8736 12.6294 30.2174C11.1212 29.5613 9.803 28.6691 8.67475 27.5409C7.54649 26.4128 6.65425 25.0947 5.99802 23.5867C5.34179 22.0786 5.01367 20.4727 5.01367 18.769C5.01367 17.0652 5.34179 15.4593 5.99802 13.9513C6.65425 12.4433 7.54649 11.1252 8.67475 9.99701C9.803 8.86885 11.1212 7.97669 12.6294 7.32052C14.1376 6.66435 15.7436 6.33627 17.4475 6.33627C18.9902 6.33627 20.4408 6.59528 21.7994 7.11331C23.1579 7.63134 24.3667 8.35082 25.4259 9.27177L27.1873 7.51047L28.638 8.96095L26.8765 10.7222C27.7054 11.6432 28.4135 12.7598 29.0006 14.0722C29.5878 15.3845 29.8813 16.9501 29.8813 18.769C29.8813 20.4727 29.5532 22.0786 28.897 23.5867C28.2408 25.0947 27.3485 26.4128 26.2203 27.5409C25.092 28.6691 23.7738 29.5613 22.2656 30.2174C20.7574 30.8736 19.1514 31.2017 17.4475 31.2017ZM17.4475 29.1296C20.3257 29.1296 22.7722 28.1223 24.7869 26.1077C26.8017 24.0932 27.809 21.6469 27.809 18.769C27.809 15.891 26.8017 13.4448 24.7869 11.4302C22.7722 9.41566 20.3257 8.40838 17.4475 8.40838C14.5693 8.40838 12.1228 9.41566 10.1081 11.4302C8.09335 13.4448 7.08598 15.891 7.08598 18.769C7.08598 21.6469 8.09335 24.0932 10.1081 26.1077C12.1228 28.1223 14.5693 29.1296 17.4475 29.1296Z" fill="#A1D103"/>
</g>
<g transform="translate(0,70)">
<path d="M13.3029 4.29868V2.22656H21.5921V4.29868H13.3029ZM16.4114 19.736H18.4837V11.7928H16.4114V19.736ZM17.4475 31.2017C15.7436 31.2017 14.1376 30.8736 12.6294 30.2174C11.1212 29.5613 9.803 28.6691 8.67475 27.5409C7.54649 26.4128 6.65425 25.0947 5.99802 23.5867C5.34179 22.0786 5.01367 20.4727 5.01367 18.769C5.01367 17.0652 5.34179 15.4593 5.99802 13.9513C6.65425 12.4433 7.54649 11.1252 8.67475 9.99701C9.803 8.86885 11.1212 7.97669 12.6294 7.32052C14.1376 6.66435 15.7436 6.33627 17.4475 6.33627C18.9902 6.33627 20.4408 6.59528 21.7994 7.11331C23.1579 7.63134 24.3667 8.35082 25.4259 9.27177L27.1873 7.51047L28.638 8.96095L26.8765 10.7222C27.7054 11.6432 28.4135 12.7598 29.0006 14.0722C29.5878 15.3845 29.8813 16.9501 29.8813 18.769C29.8813 20.4727 29.5532 22.0786 28.897 23.5867C28.2408 25.0947 27.3485 26.4128 26.2203 27.5409C25.092 28.6691 23.7738 29.5613 22.2656 30.2174C20.7574 30.8736 19.1514 31.2017 17.4475 31.2017ZM17.4475 29.1296C20.3257 29.1296 22.7722 28.1223 24.7869 26.1077C26.8017 24.0932 27.809 21.6469 27.809 18.769C27.809 15.891 26.8017 13.4448 24.7869 11.4302C22.7722 9.41566 20.3257 8.40838 17.4475 8.40838C14.5693 8.40838 12.1228 9.41566 10.1081 11.4302C8.09335 13.4448 7.08598 15.891 7.08598 18.769C7.08598 21.6469 8.09335 24.0932 10.1081 26.1077C12.1228 28.1223 14.5693 29.1296 17.4475 29.1296Z" fill="#a6daef"/>
</g>
</svg>
