<svg width="30" height="90" viewBox="0 0 30 90" fill="none" xmlns="http://www.w3.org/2000/svg">
<g class="first-svg" transform="translate(0,0)">
<path fill-rule="evenodd" clip-rule="evenodd" d="M16 8C16 11.3137 13.3137 14 10 14C6.68629 14 4 11.3137 4 8C4 4.68629 6.68629 2 10 2C13.3137 2 16 4.68629 16 8ZM6.04224 16.0634C3.18377 16.4455 1 18.5102 1 21V28H19V21C19 18.5102 16.8162 16.4455 13.9578 16.0634L10 22L6.04224 16.0634ZM19.0002 8C19.0002 9.99655 18.3501 11.8413 17.25 13.334C18.0739 13.7596 19.009 14 20.0002 14C23.3139 14 26.0002 11.3137 26.0002 8C26.0002 4.68629 23.3139 2 20.0002 2C19.009 2 18.0739 2.24038 17.25 2.66602C18.3501 4.15874 19.0002 6.00345 19.0002 8ZM29.0002 28H22.0002V20C22.0002 18.7697 21.6299 17.6259 20.9947 16.674L21.5002 16H23.0002C26.3139 16 29.0002 18.2386 29.0002 21V28Z" fill="#999999"/>
</g>
<g class="second-svg"  transform="translate(0,30)">
<path fill-rule="evenodd" clip-rule="evenodd" d="M16 8C16 11.3137 13.3137 14 10 14C6.68629 14 4 11.3137 4 8C4 4.68629 6.68629 2 10 2C13.3137 2 16 4.68629 16 8ZM6.04224 16.0634C3.18377 16.4455 1 18.5102 1 21V28H19V21C19 18.5102 16.8162 16.4455 13.9578 16.0634L10 22L6.04224 16.0634ZM19.0002 8C19.0002 9.99655 18.3501 11.8413 17.25 13.334C18.0739 13.7596 19.009 14 20.0002 14C23.3139 14 26.0002 11.3137 26.0002 8C26.0002 4.68629 23.3139 2 20.0002 2C19.009 2 18.0739 2.24038 17.25 2.66602C18.3501 4.15874 19.0002 6.00345 19.0002 8ZM29.0002 28H22.0002V20C22.0002 18.7697 21.6299 17.6259 20.9947 16.674L21.5002 16H23.0002C26.3139 16 29.0002 18.2386 29.0002 21V28Z" fill="#8A85FF"/>
</g>
<g class="second-svg"  transform="translate(0,60)">
<path fill-rule="evenodd" clip-rule="evenodd" d="M16 8C16 11.3137 13.3137 14 10 14C6.68629 14 4 11.3137 4 8C4 4.68629 6.68629 2 10 2C13.3137 2 16 4.68629 16 8ZM6.04224 16.0634C3.18377 16.4455 1 18.5102 1 21V28H19V21C19 18.5102 16.8162 16.4455 13.9578 16.0634L10 22L6.04224 16.0634ZM19.0002 8C19.0002 9.99655 18.3501 11.8413 17.25 13.334C18.0739 13.7596 19.009 14 20.0002 14C23.3139 14 26.0002 11.3137 26.0002 8C26.0002 4.68629 23.3139 2 20.0002 2C19.009 2 18.0739 2.24038 17.25 2.66602C18.3501 4.15874 19.0002 6.00345 19.0002 8ZM29.0002 28H22.0002V20C22.0002 18.7697 21.6299 17.6259 20.9947 16.674L21.5002 16H23.0002C26.3139 16 29.0002 18.2386 29.0002 21V28Z" fill="#0068b4"/>
</g>
</svg>
