<svg width="6" height="24" viewBox="0 0 6 24" fill="none" xmlns="http://www.w3.org/2000/svg">
<path fill-rule="evenodd" clip-rule="evenodd" d="M6 3C6 4.65685 4.65685 6 3 6C1.34314 6 -8.1423e-07 4.65685 -5.24537e-07 3C-2.34843e-07 1.34315 1.34314 2.34843e-07 3 5.24536e-07C4.65685 8.1423e-07 6 1.34315 6 3ZM6 12C6 13.6569 4.65685 15 3 15C1.34314 15 -2.38784e-06 13.6569 -2.09815e-06 12C-1.80845e-06 10.3431 1.34314 9 3 9C4.65685 9 6 10.3431 6 12ZM3 24C4.65685 24 6 22.6569 6 21C6 19.3431 4.65685 18 3 18C1.34314 18 -1.23987e-06 19.3431 -1.23987e-06 21C-1.23987e-06 22.6569 1.34314 24 3 24Z" fill="#999999"/>
</svg>
