<svg width="32" height="32" viewBox="0 0 32 32" fill="none" xmlns="http://www.w3.org/2000/svg">
<path d="M25.4173 8.2911L17.7522 3.86497C16.5005 3.14234 14.952 3.14234 13.6874 3.86497L6.03523 8.2911C4.78353 9.01374 4.00928 10.3558 4.00928 11.8139L4.00928 20.6404C4.00928 22.0857 4.78353 23.4277 6.03523 24.1632L13.7003 28.5894C14.952 29.312 16.5005 29.312 17.7651 28.5894L25.4302 24.1632C26.6819 23.4406 27.4562 22.0986 27.4562 20.6404L27.4562 11.8139C27.4432 10.3558 26.669 9.02664 25.4173 8.2911ZM14.7584 10.7429C14.7584 10.2138 15.1972 9.77508 15.7263 9.77508C16.2553 9.77508 16.6941 10.2138 16.6941 10.7429V17.5176C16.6941 18.0467 16.2553 18.4854 15.7263 18.4854C15.1972 18.4854 14.7584 18.0467 14.7584 17.5176V10.7429ZM16.9134 22.2018C16.8489 22.3566 16.7586 22.4986 16.6425 22.6276C16.3973 22.8728 16.0747 23.0019 15.7263 23.0019C15.5585 23.0019 15.3908 22.9631 15.2359 22.8986C15.0681 22.8341 14.9391 22.7438 14.8101 22.6276C14.6939 22.4986 14.6036 22.3566 14.5262 22.2018C14.4617 22.0469 14.4358 21.8792 14.4358 21.7114C14.4358 21.3759 14.5649 21.0404 14.8101 20.7952C14.9391 20.6791 15.0681 20.5888 15.2359 20.5243C15.7134 20.3178 16.2811 20.4339 16.6425 20.7952C16.7586 20.9243 16.8489 21.0533 16.9134 21.2211C16.978 21.3759 17.0167 21.5437 17.0167 21.7114C17.0167 21.8792 16.978 22.0469 16.9134 22.2018Z" fill="#0C0C0C"/>
</svg>
