<svg width="28" height="90" viewBox="0 0 28 90" fill="none" xmlns="http://www.w3.org/2000/svg">
<g transform="translate(0,0)">
<path fill-rule="evenodd" clip-rule="evenodd" d="M12.2678 1.00251C13.0374 -0.331565 14.9628 -0.331565 15.7325 1.00251L27.2697 21.0003C28.0389 22.3336 27.0766 23.9997 25.5373 23.9997H2.46294C0.923627 23.9997 -0.0386592 22.3336 0.730572 21.0003L12.2678 1.00251ZM13.5001 16.4997C13.5001 16.4997 12.5001 10.4997 12.5001 8.49973C12.5001 6.49973 13.0001 5.99973 14.0001 5.99973C15.0001 5.99973 15.5001 6.49973 15.5001 8.49973C15.5001 10.4997 14.5001 16.4997 14.5001 16.4997H13.5001ZM14 21.4998C14.8284 21.4998 15.5 20.8282 15.5 19.9998C15.5 19.1713 14.8284 18.4998 14 18.4998C13.1716 18.4998 12.5 19.1713 12.5 19.9998C12.5 20.8282 13.1716 21.4998 14 21.4998Z" fill="#999999"/>
</g>
<g transform="translate(0,30)">
<path fill-rule="evenodd" clip-rule="evenodd" d="M12.2678 1.00251C13.0374 -0.331565 14.9628 -0.331565 15.7325 1.00251L27.2697 21.0003C28.0389 22.3336 27.0766 23.9997 25.5373 23.9997H2.46294C0.923627 23.9997 -0.0386592 22.3336 0.730572 21.0003L12.2678 1.00251ZM13.5001 16.4997C13.5001 16.4997 12.5001 10.4997 12.5001 8.49973C12.5001 6.49973 13.0001 5.99973 14.0001 5.99973C15.0001 5.99973 15.5001 6.49973 15.5001 8.49973C15.5001 10.4997 14.5001 16.4997 14.5001 16.4997H13.5001ZM14 21.4998C14.8284 21.4998 15.5 20.8282 15.5 19.9998C15.5 19.1713 14.8284 18.4998 14 18.4998C13.1716 18.4998 12.5 19.1713 12.5 19.9998C12.5 20.8282 13.1716 21.4998 14 21.4998Z" fill="#8A85FF"/>
</g>
<g transform="translate(0,60)">
<path fill-rule="evenodd" clip-rule="evenodd" d="M12.2678 1.00251C13.0374 -0.331565 14.9628 -0.331565 15.7325 1.00251L27.2697 21.0003C28.0389 22.3336 27.0766 23.9997 25.5373 23.9997H2.46294C0.923627 23.9997 -0.0386592 22.3336 0.730572 21.0003L12.2678 1.00251ZM13.5001 16.4997C13.5001 16.4997 12.5001 10.4997 12.5001 8.49973C12.5001 6.49973 13.0001 5.99973 14.0001 5.99973C15.0001 5.99973 15.5001 6.49973 15.5001 8.49973C15.5001 10.4997 14.5001 16.4997 14.5001 16.4997H13.5001ZM14 21.4998C14.8284 21.4998 15.5 20.8282 15.5 19.9998C15.5 19.1713 14.8284 18.4998 14 18.4998C13.1716 18.4998 12.5 19.1713 12.5 19.9998C12.5 20.8282 13.1716 21.4998 14 21.4998Z" fill="#0068b4"/>
</g>
</svg>
