<svg width="30" height="90" viewBox="0 0 30 90" fill="none" xmlns="http://www.w3.org/2000/svg">
  <!-- First SVG -->
  <g class="first-svg" transform="translate(0,0)">
    <path d="M5.36252 5.36252L7.86252 2.86252C7.97932 2.74667 8.11784 2.65501 8.27014 2.59281C8.42243 2.5306 8.58551 2.49907 8.75002 2.50002H22.5C23.1631 2.50002 23.7989 2.76341 24.2678 3.23225C24.7366 3.70109 25 4.33698 25 5.00002V25C25 25.6631 24.7366 26.2989 24.2678 26.7678C23.7989 27.2366 23.1631 27.5 22.5 27.5H7.50002C6.83698 27.5 6.20109 27.2366 5.73225 26.7678C5.26341 26.2989 5.00002 25.6631 5.00002 25V6.25002C4.99907 6.08551 5.0306 5.92243 5.09281 5.77014C5.15501 5.61784 5.24667 5.47932 5.36252 5.36252Z" fill="#999999"/>
    <path d="M18.6339 17.3661C18.8683 17.6005 19 17.9185 19 18.25C19 18.5815 18.8683 18.8995 18.6339 19.1339C18.3995 19.3683 18.0815 19.5 17.75 19.5H10.25C9.91848 19.5 9.60054 19.3683 9.36612 19.1339C9.1317 18.8995 9 18.5815 9 18.25C9 17.9185 9.1317 17.6005 9.36612 17.3661C9.60054 17.1317 9.91848 17 10.25 17H17.75C18.0815 17 18.3995 17.1317 18.6339 17.3661Z" fill="#282C34"/>
    <path d="M21.1339 12.3661C21.3683 12.6005 21.5 12.9185 21.5 13.25C21.5 13.5815 21.3683 13.8995 21.1339 14.1339C20.8995 14.3683 20.5815 14.5 20.25 14.5H10.25C9.91848 14.5 9.60054 14.3683 9.36612 14.1339C9.1317 13.8995 9 13.5815 9 13.25C9 12.9185 9.1317 12.6005 9.36612 12.3661C9.60054 12.1317 9.91848 12 10.25 12H20.25C20.5815 12 20.8995 12.1317 21.1339 12.3661Z" fill="#282C34"/>
    <path d="M8.75002 2.50002C8.58551 2.49907 8.42243 2.5306 8.27014 2.59281C8.11784 2.65501 7.97932 2.74667 7.86252 2.86252L5.36252 5.36252C5.24667 5.47932 5.15501 5.61784 5.09281 5.77014C5.0306 5.92243 4.99907 6.08551 5.00002 6.25002H7.50002C7.83154 6.25002 8.14948 6.11832 8.3839 5.8839C8.61832 5.64948 8.75002 5.33154 8.75002 5.00002V2.50002Z" fill="#282C34"/>
  </g>

  <!-- Second SVG -->
  <g class="second-svg"  transform="translate(0,30)">
    <path d="M5.36252 5.36252L7.86252 2.86252C7.97932 2.74667 8.11784 2.65501 8.27014 2.59281C8.42243 2.5306 8.58551 2.49907 8.75002 2.50002H22.5C23.1631 2.50002 23.7989 2.76341 24.2678 3.23225C24.7366 3.70109 25 4.33698 25 5.00002V25C25 25.6631 24.7366 26.2989 24.2678 26.7678C23.7989 27.2366 23.1631 27.5 22.5 27.5H7.50002C6.83698 27.5 6.20109 27.2366 5.73225 26.7678C5.26341 26.2989 5.00002 25.6631 5.00002 25V6.25002C4.99907 6.08551 5.0306 5.92243 5.09281 5.77014C5.15501 5.61784 5.24667 5.47932 5.36252 5.36252Z" fill="#8A85FF"/>
    <path d="M18.6339 17.3661C18.8683 17.6005 19 17.9185 19 18.25C19 18.5815 18.8683 18.8995 18.6339 19.1339C18.3995 19.3683 18.0815 19.5 17.75 19.5H10.25C9.91848 19.5 9.60054 19.3683 9.36612 19.1339C9.1317 18.8995 9 18.5815 9 18.25C9 17.9185 9.1317 17.6005 9.36612 17.3661C9.60054 17.1317 9.91848 17 10.25 17H17.75C18.0815 17 18.3995 17.1317 18.6339 17.3661Z" fill="#373566"/>
    <path d="M21.1339 12.3661C21.3683 12.6005 21.5 12.9185 21.5 13.25C21.5 13.5815 21.3683 13.8995 21.1339 14.1339C20.8995 14.3683 20.5815 14.5 20.25 14.5H10.25C9.91848 14.5 9.60054 14.3683 9.36612 14.1339C9.1317 13.8995 9 13.5815 9 13.25C9 12.9185 9.1317 12.6005 9.36612 12.3661C9.60054 12.1317 9.91848 12 10.25 12H20.25C20.5815 12 20.8995 12.1317 21.1339 12.3661Z" fill="#373566"/>
    <path d="M8.75002 2.50002C8.58551 2.49907 8.42243 2.5306 8.27014 2.59281C8.11784 2.65501 7.97932 2.74667 7.86252 2.86252L5.36252 5.36252C5.24667 5.47932 5.15501 5.61784 5.09281 5.77014C5.0306 5.92243 4.99907 6.08551 5.00002 6.25002H7.50002C7.83154 6.25002 8.14948 6.11832 8.3839 5.8839C8.61832 5.64948 8.75002 5.33154 8.75002 5.00002V2.50002Z" fill="#373566"/>
  </g>

  <g class="second-svg"  transform="translate(0,60)">
    <path d="M5.36252 5.36252L7.86252 2.86252C7.97932 2.74667 8.11784 2.65501 8.27014 2.59281C8.42243 2.5306 8.58551 2.49907 8.75002 2.50002H22.5C23.1631 2.50002 23.7989 2.76341 24.2678 3.23225C24.7366 3.70109 25 4.33698 25 5.00002V25C25 25.6631 24.7366 26.2989 24.2678 26.7678C23.7989 27.2366 23.1631 27.5 22.5 27.5H7.50002C6.83698 27.5 6.20109 27.2366 5.73225 26.7678C5.26341 26.2989 5.00002 25.6631 5.00002 25V6.25002C4.99907 6.08551 5.0306 5.92243 5.09281 5.77014C5.15501 5.61784 5.24667 5.47932 5.36252 5.36252Z" fill="#0068b4"/>
    <path d="M18.6339 17.3661C18.8683 17.6005 19 17.9185 19 18.25C19 18.5815 18.8683 18.8995 18.6339 19.1339C18.3995 19.3683 18.0815 19.5 17.75 19.5H10.25C9.91848 19.5 9.60054 19.3683 9.36612 19.1339C9.1317 18.8995 9 18.5815 9 18.25C9 17.9185 9.1317 17.6005 9.36612 17.3661C9.60054 17.1317 9.91848 17 10.25 17H17.75C18.0815 17 18.3995 17.1317 18.6339 17.3661Z" fill="#004499"/>
    <path d="M21.1339 12.3661C21.3683 12.6005 21.5 12.9185 21.5 13.25C21.5 13.5815 21.3683 13.8995 21.1339 14.1339C20.8995 14.3683 20.5815 14.5 20.25 14.5H10.25C9.91848 14.5 9.60054 14.3683 9.36612 14.1339C9.1317 13.8995 9 13.5815 9 13.25C9 12.9185 9.1317 12.6005 9.36612 12.3661C9.60054 12.1317 9.91848 12 10.25 12H20.25C20.5815 12 20.8995 12.1317 21.1339 12.3661Z" fill="#004499"/>
    <path d="M8.75002 2.50002C8.58551 2.49907 8.42243 2.5306 8.27014 2.59281C8.11784 2.65501 7.97932 2.74667 7.86252 2.86252L5.36252 5.36252C5.24667 5.47932 5.15501 5.61784 5.09281 5.77014C5.0306 5.92243 4.99907 6.08551 5.00002 6.25002H7.50002C7.83154 6.25002 8.14948 6.11832 8.3839 5.8839C8.61832 5.64948 8.75002 5.33154 8.75002 5.00002V2.50002Z" fill="#004499"/>
  </g>
</svg>

