<svg width="30" height="90" viewBox="0 0 30 90" fill="none" xmlns="http://www.w3.org/2000/svg">
<g class="first-svg" transform="translate(0,0)">
<path fill-rule="evenodd" clip-rule="evenodd" d="M1 4C1 3.44772 1.44772 3 2 3H8C8.55228 3 9 3.44772 9 4V26C9 26.5523 8.55228 27 8 27H2C1.44772 27 1 26.5523 1 26V4ZM11 4C11 3.44772 11.4477 3 12 3H18C18.5523 3 19 3.44772 19 4V16.5155C16.588 18.1301 15 20.8796 15 24C15 25.0519 15.1805 26.0617 15.5121 27H12C11.4477 27 11 26.5523 11 26V4ZM24 15C25.8501 15 27.5699 15.5583 29 16.5155V4C29 3.44772 28.5523 3 28 3H22C21.4477 3 21 3.44772 21 4V15.5121C21.9383 15.1805 22.9481 15 24 15ZM19.4632 22.7143C19.564 22.3577 19.7058 22.0183 19.8831 21.7014L18.8482 20.6666L20.6665 18.8483L21.7013 19.8831C22.0182 19.7058 22.3577 19.564 22.7143 19.4632V18H25.2857V19.4632C25.6423 19.564 25.9818 19.7058 26.2987 19.8831L27.3335 18.8483L29.1518 20.6666L28.1169 21.7014C28.2942 22.0183 28.436 22.3577 28.5368 22.7143H30V25.2857H28.5368C28.436 25.6423 28.2942 25.9818 28.1169 26.2987L29.1518 27.3336L27.3335 29.1518L26.2986 28.1169C25.9817 28.2942 25.6423 28.436 25.2857 28.5368V30H22.7143V28.5368C22.3577 28.436 22.0183 28.2942 21.7014 28.1169L20.6665 29.1518L18.8482 27.3336L19.8831 26.2987C19.7058 25.9818 19.564 25.6423 19.4632 25.2857H18V22.7143H19.4632ZM25.7143 24C25.7143 24.9468 24.9468 25.7143 24 25.7143C23.0532 25.7143 22.2857 24.9468 22.2857 24C22.2857 23.0532 23.0532 22.2857 24 22.2857C24.9468 22.2857 25.7143 23.0532 25.7143 24Z" fill="#999999"/>
</g>
<g class="second-svg"  transform="translate(0,30)">
<path fill-rule="evenodd" clip-rule="evenodd" d="M1 4C1 3.44772 1.44772 3 2 3H8C8.55228 3 9 3.44772 9 4V26C9 26.5523 8.55228 27 8 27H2C1.44772 27 1 26.5523 1 26V4ZM11 4C11 3.44772 11.4477 3 12 3H18C18.5523 3 19 3.44772 19 4V16.5155C16.588 18.1301 15 20.8796 15 24C15 25.0519 15.1805 26.0617 15.5121 27H12C11.4477 27 11 26.5523 11 26V4ZM24 15C25.8501 15 27.5699 15.5583 29 16.5155V4C29 3.44772 28.5523 3 28 3H22C21.4477 3 21 3.44772 21 4V15.5121C21.9383 15.1805 22.9481 15 24 15ZM19.4632 22.7143C19.564 22.3577 19.7058 22.0183 19.8831 21.7014L18.8482 20.6666L20.6665 18.8483L21.7013 19.8831C22.0182 19.7058 22.3577 19.564 22.7143 19.4632V18H25.2857V19.4632C25.6423 19.564 25.9818 19.7058 26.2987 19.8831L27.3335 18.8483L29.1518 20.6666L28.1169 21.7014C28.2942 22.0183 28.436 22.3577 28.5368 22.7143H30V25.2857H28.5368C28.436 25.6423 28.2942 25.9818 28.1169 26.2987L29.1518 27.3336L27.3335 29.1518L26.2986 28.1169C25.9817 28.2942 25.6423 28.436 25.2857 28.5368V30H22.7143V28.5368C22.3577 28.436 22.0183 28.2942 21.7014 28.1169L20.6665 29.1518L18.8482 27.3336L19.8831 26.2987C19.7058 25.9818 19.564 25.6423 19.4632 25.2857H18V22.7143H19.4632ZM25.7143 24C25.7143 24.9468 24.9468 25.7143 24 25.7143C23.0532 25.7143 22.2857 24.9468 22.2857 24C22.2857 23.0532 23.0532 22.2857 24 22.2857C24.9468 22.2857 25.7143 23.0532 25.7143 24Z" fill="#8A85FF"/>
</g>
<g class="second-svg"  transform="translate(0,60)">
<path fill-rule="evenodd" clip-rule="evenodd" d="M1 4C1 3.44772 1.44772 3 2 3H8C8.55228 3 9 3.44772 9 4V26C9 26.5523 8.55228 27 8 27H2C1.44772 27 1 26.5523 1 26V4ZM11 4C11 3.44772 11.4477 3 12 3H18C18.5523 3 19 3.44772 19 4V16.5155C16.588 18.1301 15 20.8796 15 24C15 25.0519 15.1805 26.0617 15.5121 27H12C11.4477 27 11 26.5523 11 26V4ZM24 15C25.8501 15 27.5699 15.5583 29 16.5155V4C29 3.44772 28.5523 3 28 3H22C21.4477 3 21 3.44772 21 4V15.5121C21.9383 15.1805 22.9481 15 24 15ZM19.4632 22.7143C19.564 22.3577 19.7058 22.0183 19.8831 21.7014L18.8482 20.6666L20.6665 18.8483L21.7013 19.8831C22.0182 19.7058 22.3577 19.564 22.7143 19.4632V18H25.2857V19.4632C25.6423 19.564 25.9818 19.7058 26.2987 19.8831L27.3335 18.8483L29.1518 20.6666L28.1169 21.7014C28.2942 22.0183 28.436 22.3577 28.5368 22.7143H30V25.2857H28.5368C28.436 25.6423 28.2942 25.9818 28.1169 26.2987L29.1518 27.3336L27.3335 29.1518L26.2986 28.1169C25.9817 28.2942 25.6423 28.436 25.2857 28.5368V30H22.7143V28.5368C22.3577 28.436 22.0183 28.2942 21.7014 28.1169L20.6665 29.1518L18.8482 27.3336L19.8831 26.2987C19.7058 25.9818 19.564 25.6423 19.4632 25.2857H18V22.7143H19.4632ZM25.7143 24C25.7143 24.9468 24.9468 25.7143 24 25.7143C23.0532 25.7143 22.2857 24.9468 22.2857 24C22.2857 23.0532 23.0532 22.2857 24 22.2857C24.9468 22.2857 25.7143 23.0532 25.7143 24Z" fill="#0068b4"/>
</g>
</svg>
